ISO-10303-21;
HEADER;
/* Generated by software containing ST-Developer
 * from STEP Tools, Inc. (www.steptools.com) 
 */

FILE_DESCRIPTION(
/* description */ (''),
/* implementation_level */ '2;1');

FILE_NAME(
/* name */ 'C:\\Users\\Artem\\Downloads\\box_driver.stp',
/* time_stamp */ '2026-05-30T12:53:30+03:00',
/* author */ ('\X2\0410044004420451043C\X0\'),
/* organization */ (''),
/* preprocessor_version */ 'ST-DEVELOPER v18.1',
/* originating_system */ 'Autodesk Inventor 2022',
/* authorisation */ '');

FILE_SCHEMA (('AUTOMOTIVE_DESIGN { 1 0 10303 214 3 1 1 }'));
ENDSEC;

DATA;
#10=MECHANICAL_DESIGN_GEOMETRIC_PRESENTATION_REPRESENTATION('',(#13),#1796);
#11=SHAPE_REPRESENTATION_RELATIONSHIP('SRR','None',#1803,#12);
#12=ADVANCED_BREP_SHAPE_REPRESENTATION('',(#14),#1795);
#13=STYLED_ITEM('',(#1812),#14);
#14=MANIFOLD_SOLID_BREP('\X2\04220432043504400434043E0435\X0\ \X2\04420435043B043E\X0\1',
#1039);
#15=FACE_BOUND('',#142,.T.);
#16=FACE_BOUND('',#143,.T.);
#17=FACE_BOUND('',#144,.T.);
#18=FACE_BOUND('',#145,.T.);
#19=FACE_BOUND('',#148,.T.);
#20=FACE_BOUND('',#152,.T.);
#21=FACE_BOUND('',#158,.T.);
#22=FACE_BOUND('',#159,.T.);
#23=FACE_BOUND('',#173,.T.);
#24=FACE_BOUND('',#174,.T.);
#25=FACE_BOUND('',#175,.T.);
#26=FACE_BOUND('',#176,.T.);
#27=FACE_BOUND('',#177,.T.);
#28=FACE_BOUND('',#178,.T.);
#29=FACE_BOUND('',#179,.T.);
#30=FACE_BOUND('',#180,.T.);
#31=PLANE('',#1083);
#32=PLANE('',#1086);
#33=PLANE('',#1096);
#34=PLANE('',#1099);
#35=PLANE('',#1100);
#36=PLANE('',#1110);
#37=PLANE('',#1113);
#38=PLANE('',#1123);
#39=PLANE('',#1126);
#40=PLANE('',#1130);
#41=PLANE('',#1134);
#42=PLANE('',#1137);
#43=PLANE('',#1142);
#44=PLANE('',#1147);
#45=PLANE('',#1151);
#46=PLANE('',#1152);
#47=PLANE('',#1160);
#48=PLANE('',#1163);
#49=PLANE('',#1164);
#50=PLANE('',#1165);
#51=PLANE('',#1166);
#52=PLANE('',#1175);
#53=TOROIDAL_SURFACE('',#1077,2.,1.);
#54=TOROIDAL_SURFACE('',#1090,2.,1.);
#55=TOROIDAL_SURFACE('',#1105,2.,1.);
#56=TOROIDAL_SURFACE('',#1117,2.,1.);
#57=FACE_OUTER_BOUND('',#111,.T.);
#58=FACE_OUTER_BOUND('',#112,.T.);
#59=FACE_OUTER_BOUND('',#113,.T.);
#60=FACE_OUTER_BOUND('',#114,.T.);
#61=FACE_OUTER_BOUND('',#115,.T.);
#62=FACE_OUTER_BOUND('',#116,.T.);
#63=FACE_OUTER_BOUND('',#117,.T.);
#64=FACE_OUTER_BOUND('',#118,.T.);
#65=FACE_OUTER_BOUND('',#119,.T.);
#66=FACE_OUTER_BOUND('',#120,.T.);
#67=FACE_OUTER_BOUND('',#121,.T.);
#68=FACE_OUTER_BOUND('',#122,.T.);
#69=FACE_OUTER_BOUND('',#123,.T.);
#70=FACE_OUTER_BOUND('',#124,.T.);
#71=FACE_OUTER_BOUND('',#125,.T.);
#72=FACE_OUTER_BOUND('',#126,.T.);
#73=FACE_OUTER_BOUND('',#127,.T.);
#74=FACE_OUTER_BOUND('',#128,.T.);
#75=FACE_OUTER_BOUND('',#129,.T.);
#76=FACE_OUTER_BOUND('',#130,.T.);
#77=FACE_OUTER_BOUND('',#131,.T.);
#78=FACE_OUTER_BOUND('',#132,.T.);
#79=FACE_OUTER_BOUND('',#133,.T.);
#80=FACE_OUTER_BOUND('',#134,.T.);
#81=FACE_OUTER_BOUND('',#135,.T.);
#82=FACE_OUTER_BOUND('',#136,.T.);
#83=FACE_OUTER_BOUND('',#137,.T.);
#84=FACE_OUTER_BOUND('',#138,.T.);
#85=FACE_OUTER_BOUND('',#139,.T.);
#86=FACE_OUTER_BOUND('',#140,.T.);
#87=FACE_OUTER_BOUND('',#141,.T.);
#88=FACE_OUTER_BOUND('',#146,.T.);
#89=FACE_OUTER_BOUND('',#147,.T.);
#90=FACE_OUTER_BOUND('',#149,.T.);
#91=FACE_OUTER_BOUND('',#150,.T.);
#92=FACE_OUTER_BOUND('',#151,.T.);
#93=FACE_OUTER_BOUND('',#153,.T.);
#94=FACE_OUTER_BOUND('',#154,.T.);
#95=FACE_OUTER_BOUND('',#155,.T.);
#96=FACE_OUTER_BOUND('',#156,.T.);
#97=FACE_OUTER_BOUND('',#157,.T.);
#98=FACE_OUTER_BOUND('',#160,.T.);
#99=FACE_OUTER_BOUND('',#161,.T.);
#100=FACE_OUTER_BOUND('',#162,.T.);
#101=FACE_OUTER_BOUND('',#163,.T.);
#102=FACE_OUTER_BOUND('',#164,.T.);
#103=FACE_OUTER_BOUND('',#165,.T.);
#104=FACE_OUTER_BOUND('',#166,.T.);
#105=FACE_OUTER_BOUND('',#167,.T.);
#106=FACE_OUTER_BOUND('',#168,.T.);
#107=FACE_OUTER_BOUND('',#169,.T.);
#108=FACE_OUTER_BOUND('',#170,.T.);
#109=FACE_OUTER_BOUND('',#171,.T.);
#110=FACE_OUTER_BOUND('',#172,.T.);
#111=EDGE_LOOP('',(#661,#662,#663,#664));
#112=EDGE_LOOP('',(#665,#666,#667,#668));
#113=EDGE_LOOP('',(#669,#670,#671,#672));
#114=EDGE_LOOP('',(#673,#674,#675,#676));
#115=EDGE_LOOP('',(#677,#678,#679,#680));
#116=EDGE_LOOP('',(#681,#682,#683,#684));
#117=EDGE_LOOP('',(#685,#686,#687,#688));
#118=EDGE_LOOP('',(#689,#690,#691,#692));
#119=EDGE_LOOP('',(#693,#694,#695,#696));
#120=EDGE_LOOP('',(#697,#698,#699,#700));
#121=EDGE_LOOP('',(#701,#702,#703,#704));
#122=EDGE_LOOP('',(#705,#706,#707,#708));
#123=EDGE_LOOP('',(#709,#710,#711,#712));
#124=EDGE_LOOP('',(#713,#714,#715,#716));
#125=EDGE_LOOP('',(#717,#718,#719,#720));
#126=EDGE_LOOP('',(#721,#722,#723,#724));
#127=EDGE_LOOP('',(#725,#726,#727,#728,#729,#730));
#128=EDGE_LOOP('',(#731,#732,#733,#734));
#129=EDGE_LOOP('',(#735,#736,#737,#738));
#130=EDGE_LOOP('',(#739,#740,#741,#742));
#131=EDGE_LOOP('',(#743,#744,#745,#746));
#132=EDGE_LOOP('',(#747,#748,#749,#750));
#133=EDGE_LOOP('',(#751,#752,#753,#754));
#134=EDGE_LOOP('',(#755,#756,#757,#758));
#135=EDGE_LOOP('',(#759,#760,#761,#762));
#136=EDGE_LOOP('',(#763,#764,#765,#766));
#137=EDGE_LOOP('',(#767,#768,#769,#770));
#138=EDGE_LOOP('',(#771,#772,#773,#774));
#139=EDGE_LOOP('',(#775,#776,#777,#778));
#140=EDGE_LOOP('',(#779,#780,#781,#782));
#141=EDGE_LOOP('',(#783,#784,#785,#786,#787,#788,#789,#790,#791,#792,#793,
#794,#795,#796,#797,#798,#799,#800,#801,#802));
#142=EDGE_LOOP('',(#803));
#143=EDGE_LOOP('',(#804));
#144=EDGE_LOOP('',(#805));
#145=EDGE_LOOP('',(#806));
#146=EDGE_LOOP('',(#807,#808,#809,#810));
#147=EDGE_LOOP('',(#811,#812,#813,#814,#815,#816,#817,#818));
#148=EDGE_LOOP('',(#819));
#149=EDGE_LOOP('',(#820,#821,#822,#823,#824,#825,#826,#827,#828,#829,#830,
#831));
#150=EDGE_LOOP('',(#832,#833,#834,#835));
#151=EDGE_LOOP('',(#836,#837,#838,#839,#840,#841,#842,#843));
#152=EDGE_LOOP('',(#844));
#153=EDGE_LOOP('',(#845,#846,#847,#848));
#154=EDGE_LOOP('',(#849,#850,#851,#852));
#155=EDGE_LOOP('',(#853,#854,#855,#856));
#156=EDGE_LOOP('',(#857,#858,#859,#860));
#157=EDGE_LOOP('',(#861,#862,#863,#864,#865,#866,#867,#868,#869,#870,#871,
#872));
#158=EDGE_LOOP('',(#873));
#159=EDGE_LOOP('',(#874));
#160=EDGE_LOOP('',(#875,#876,#877,#878));
#161=EDGE_LOOP('',(#879,#880,#881,#882));
#162=EDGE_LOOP('',(#883,#884,#885,#886,#887,#888,#889,#890,#891,#892));
#163=EDGE_LOOP('',(#893,#894,#895,#896));
#164=EDGE_LOOP('',(#897,#898,#899,#900));
#165=EDGE_LOOP('',(#901,#902,#903,#904,#905,#906,#907));
#166=EDGE_LOOP('',(#908,#909,#910,#911,#912,#913,#914,#915,#916,#917));
#167=EDGE_LOOP('',(#918,#919,#920,#921,#922,#923,#924));
#168=EDGE_LOOP('',(#925,#926,#927,#928));
#169=EDGE_LOOP('',(#929,#930,#931,#932));
#170=EDGE_LOOP('',(#933,#934,#935,#936));
#171=EDGE_LOOP('',(#937,#938,#939,#940));
#172=EDGE_LOOP('',(#941,#942,#943,#944,#945,#946,#947,#948));
#173=EDGE_LOOP('',(#949));
#174=EDGE_LOOP('',(#950));
#175=EDGE_LOOP('',(#951));
#176=EDGE_LOOP('',(#952));
#177=EDGE_LOOP('',(#953));
#178=EDGE_LOOP('',(#954));
#179=EDGE_LOOP('',(#955));
#180=EDGE_LOOP('',(#956));
#181=LINE('',#1499,#269);
#182=LINE('',#1505,#270);
#183=LINE('',#1511,#271);
#184=LINE('',#1517,#272);
#185=LINE('',#1524,#273);
#186=LINE('',#1527,#274);
#187=LINE('',#1538,#275);
#188=LINE('',#1539,#276);
#189=LINE('',#1542,#277);
#190=LINE('',#1544,#278);
#191=LINE('',#1545,#279);
#192=LINE('',#1548,#280);
#193=LINE('',#1552,#281);
#194=LINE('',#1553,#282);
#195=LINE('',#1559,#283);
#196=LINE('',#1562,#284);
#197=LINE('',#1573,#285);
#198=LINE('',#1574,#286);
#199=LINE('',#1577,#287);
#200=LINE('',#1579,#288);
#201=LINE('',#1580,#289);
#202=LINE('',#1583,#290);
#203=LINE('',#1587,#291);
#204=LINE('',#1588,#292);
#205=LINE('',#1591,#293);
#206=LINE('',#1595,#294);
#207=LINE('',#1596,#295);
#208=LINE('',#1602,#296);
#209=LINE('',#1605,#297);
#210=LINE('',#1613,#298);
#211=LINE('',#1614,#299);
#212=LINE('',#1617,#300);
#213=LINE('',#1618,#301);
#214=LINE('',#1621,#302);
#215=LINE('',#1625,#303);
#216=LINE('',#1626,#304);
#217=LINE('',#1632,#305);
#218=LINE('',#1635,#306);
#219=LINE('',#1646,#307);
#220=LINE('',#1647,#308);
#221=LINE('',#1650,#309);
#222=LINE('',#1652,#310);
#223=LINE('',#1653,#311);
#224=LINE('',#1656,#312);
#225=LINE('',#1660,#313);
#226=LINE('',#1661,#314);
#227=LINE('',#1667,#315);
#228=LINE('',#1670,#316);
#229=LINE('',#1673,#317);
#230=LINE('',#1675,#318);
#231=LINE('',#1676,#319);
#232=LINE('',#1677,#320);
#233=LINE('',#1678,#321);
#234=LINE('',#1679,#322);
#235=LINE('',#1685,#323);
#236=LINE('',#1688,#324);
#237=LINE('',#1691,#325);
#238=LINE('',#1694,#326);
#239=LINE('',#1695,#327);
#240=LINE('',#1699,#328);
#241=LINE('',#1703,#329);
#242=LINE('',#1707,#330);
#243=LINE('',#1709,#331);
#244=LINE('',#1711,#332);
#245=LINE('',#1712,#333);
#246=LINE('',#1717,#334);
#247=LINE('',#1718,#335);
#248=LINE('',#1720,#336);
#249=LINE('',#1722,#337);
#250=LINE('',#1729,#338);
#251=LINE('',#1731,#339);
#252=LINE('',#1737,#340);
#253=LINE('',#1740,#341);
#254=LINE('',#1743,#342);
#255=LINE('',#1745,#343);
#256=LINE('',#1746,#344);
#257=LINE('',#1748,#345);
#258=LINE('',#1750,#346);
#259=LINE('',#1758,#347);
#260=LINE('',#1762,#348);
#261=LINE('',#1766,#349);
#262=LINE('',#1767,#350);
#263=LINE('',#1771,#351);
#264=LINE('',#1774,#352);
#265=LINE('',#1778,#353);
#266=LINE('',#1782,#354);
#267=LINE('',#1786,#355);
#268=LINE('',#1790,#356);
#269=VECTOR('',#1182,1.75);
#270=VECTOR('',#1189,1.75);
#271=VECTOR('',#1196,1.75);
#272=VECTOR('',#1203,1.75);
#273=VECTOR('',#1210,10.);
#274=VECTOR('',#1213,10.);
#275=VECTOR('',#1226,10.);
#276=VECTOR('',#1227,10.);
#277=VECTOR('',#1230,10.);
#278=VECTOR('',#1231,10.);
#279=VECTOR('',#1232,10.);
#280=VECTOR('',#1235,10.);
#281=VECTOR('',#1240,10.);
#282=VECTOR('',#1241,10.);
#283=VECTOR('',#1246,10.);
#284=VECTOR('',#1249,10.);
#285=VECTOR('',#1262,10.);
#286=VECTOR('',#1263,10.);
#287=VECTOR('',#1266,10.);
#288=VECTOR('',#1267,10.);
#289=VECTOR('',#1268,10.);
#290=VECTOR('',#1271,10.);
#291=VECTOR('',#1276,10.);
#292=VECTOR('',#1277,10.);
#293=VECTOR('',#1280,10.);
#294=VECTOR('',#1283,10.);
#295=VECTOR('',#1284,10.);
#296=VECTOR('',#1289,10.);
#297=VECTOR('',#1292,10.);
#298=VECTOR('',#1303,10.);
#299=VECTOR('',#1304,10.);
#300=VECTOR('',#1307,10.);
#301=VECTOR('',#1308,10.);
#302=VECTOR('',#1311,10.);
#303=VECTOR('',#1316,10.);
#304=VECTOR('',#1317,10.);
#305=VECTOR('',#1322,10.);
#306=VECTOR('',#1325,10.);
#307=VECTOR('',#1338,10.);
#308=VECTOR('',#1339,10.);
#309=VECTOR('',#1342,10.);
#310=VECTOR('',#1343,10.);
#311=VECTOR('',#1344,10.);
#312=VECTOR('',#1347,10.);
#313=VECTOR('',#1352,10.);
#314=VECTOR('',#1353,10.);
#315=VECTOR('',#1358,10.);
#316=VECTOR('',#1361,10.);
#317=VECTOR('',#1364,10.);
#318=VECTOR('',#1365,10.);
#319=VECTOR('',#1366,10.);
#320=VECTOR('',#1367,10.);
#321=VECTOR('',#1368,10.);
#322=VECTOR('',#1369,10.);
#323=VECTOR('',#1374,10.);
#324=VECTOR('',#1377,10.);
#325=VECTOR('',#1380,10.);
#326=VECTOR('',#1383,10.);
#327=VECTOR('',#1384,10.);
#328=VECTOR('',#1389,10.);
#329=VECTOR('',#1392,10.);
#330=VECTOR('',#1395,10.);
#331=VECTOR('',#1396,10.);
#332=VECTOR('',#1397,10.);
#333=VECTOR('',#1398,10.);
#334=VECTOR('',#1403,10.);
#335=VECTOR('',#1404,10.);
#336=VECTOR('',#1407,10.);
#337=VECTOR('',#1408,10.);
#338=VECTOR('',#1417,10.);
#339=VECTOR('',#1420,10.);
#340=VECTOR('',#1425,10.);
#341=VECTOR('',#1428,10.);
#342=VECTOR('',#1431,10.);
#343=VECTOR('',#1432,10.);
#344=VECTOR('',#1433,10.);
#345=VECTOR('',#1436,10.);
#346=VECTOR('',#1437,10.);
#347=VECTOR('',#1446,10.);
#348=VECTOR('',#1451,10.);
#349=VECTOR('',#1456,10.);
#350=VECTOR('',#1457,10.);
#351=VECTOR('',#1464,10.);
#352=VECTOR('',#1469,10.);
#353=VECTOR('',#1474,2.);
#354=VECTOR('',#1479,2.);
#355=VECTOR('',#1484,2.);
#356=VECTOR('',#1489,2.);
#357=CIRCLE('',#1063,1.75);
#358=CIRCLE('',#1064,1.75);
#359=CIRCLE('',#1066,1.75);
#360=CIRCLE('',#1067,1.75);
#361=CIRCLE('',#1069,1.75);
#362=CIRCLE('',#1070,1.75);
#363=CIRCLE('',#1072,1.75);
#364=CIRCLE('',#1073,1.75);
#365=CIRCLE('',#1075,1.);
#366=CIRCLE('',#1076,1.);
#367=CIRCLE('',#1078,1.);
#368=CIRCLE('',#1079,2.);
#369=CIRCLE('',#1080,1.);
#370=CIRCLE('',#1082,1.);
#371=CIRCLE('',#1085,1.);
#372=CIRCLE('',#1088,1.);
#373=CIRCLE('',#1089,1.);
#374=CIRCLE('',#1091,1.);
#375=CIRCLE('',#1092,2.);
#376=CIRCLE('',#1093,1.);
#377=CIRCLE('',#1095,1.);
#378=CIRCLE('',#1098,1.);
#379=CIRCLE('',#1101,1.);
#380=CIRCLE('',#1103,1.);
#381=CIRCLE('',#1104,1.);
#382=CIRCLE('',#1106,1.);
#383=CIRCLE('',#1107,2.);
#384=CIRCLE('',#1108,1.);
#385=CIRCLE('',#1112,1.);
#386=CIRCLE('',#1115,1.);
#387=CIRCLE('',#1116,1.);
#388=CIRCLE('',#1118,1.);
#389=CIRCLE('',#1119,2.);
#390=CIRCLE('',#1120,1.);
#391=CIRCLE('',#1122,1.);
#392=CIRCLE('',#1125,1.);
#393=CIRCLE('',#1128,1.);
#394=CIRCLE('',#1129,1.);
#395=CIRCLE('',#1132,1.);
#396=CIRCLE('',#1133,1.);
#397=CIRCLE('',#1135,1.);
#398=CIRCLE('',#1136,2.);
#399=CIRCLE('',#1138,1.);
#400=CIRCLE('',#1139,1.);
#401=CIRCLE('',#1141,1.);
#402=CIRCLE('',#1143,1.);
#403=CIRCLE('',#1144,2.);
#404=CIRCLE('',#1146,1.);
#405=CIRCLE('',#1149,1.);
#406=CIRCLE('',#1150,1.);
#407=CIRCLE('',#1153,1.);
#408=CIRCLE('',#1154,2.);
#409=CIRCLE('',#1155,2.);
#410=CIRCLE('',#1157,1.);
#411=CIRCLE('',#1159,1.);
#412=CIRCLE('',#1162,1.);
#413=CIRCLE('',#1168,2.);
#414=CIRCLE('',#1170,2.);
#415=CIRCLE('',#1172,2.);
#416=CIRCLE('',#1174,2.);
#417=VERTEX_POINT('',#1496);
#418=VERTEX_POINT('',#1498);
#419=VERTEX_POINT('',#1502);
#420=VERTEX_POINT('',#1504);
#421=VERTEX_POINT('',#1508);
#422=VERTEX_POINT('',#1510);
#423=VERTEX_POINT('',#1514);
#424=VERTEX_POINT('',#1516);
#425=VERTEX_POINT('',#1520);
#426=VERTEX_POINT('',#1521);
#427=VERTEX_POINT('',#1523);
#428=VERTEX_POINT('',#1525);
#429=VERTEX_POINT('',#1529);
#430=VERTEX_POINT('',#1530);
#431=VERTEX_POINT('',#1535);
#432=VERTEX_POINT('',#1536);
#433=VERTEX_POINT('',#1541);
#434=VERTEX_POINT('',#1543);
#435=VERTEX_POINT('',#1547);
#436=VERTEX_POINT('',#1551);
#437=VERTEX_POINT('',#1555);
#438=VERTEX_POINT('',#1556);
#439=VERTEX_POINT('',#1558);
#440=VERTEX_POINT('',#1560);
#441=VERTEX_POINT('',#1564);
#442=VERTEX_POINT('',#1565);
#443=VERTEX_POINT('',#1570);
#444=VERTEX_POINT('',#1571);
#445=VERTEX_POINT('',#1576);
#446=VERTEX_POINT('',#1578);
#447=VERTEX_POINT('',#1582);
#448=VERTEX_POINT('',#1586);
#449=VERTEX_POINT('',#1590);
#450=VERTEX_POINT('',#1592);
#451=VERTEX_POINT('',#1594);
#452=VERTEX_POINT('',#1598);
#453=VERTEX_POINT('',#1599);
#454=VERTEX_POINT('',#1601);
#455=VERTEX_POINT('',#1603);
#456=VERTEX_POINT('',#1607);
#457=VERTEX_POINT('',#1608);
#458=VERTEX_POINT('',#1616);
#459=VERTEX_POINT('',#1620);
#460=VERTEX_POINT('',#1624);
#461=VERTEX_POINT('',#1628);
#462=VERTEX_POINT('',#1629);
#463=VERTEX_POINT('',#1631);
#464=VERTEX_POINT('',#1633);
#465=VERTEX_POINT('',#1637);
#466=VERTEX_POINT('',#1638);
#467=VERTEX_POINT('',#1643);
#468=VERTEX_POINT('',#1644);
#469=VERTEX_POINT('',#1649);
#470=VERTEX_POINT('',#1651);
#471=VERTEX_POINT('',#1655);
#472=VERTEX_POINT('',#1659);
#473=VERTEX_POINT('',#1663);
#474=VERTEX_POINT('',#1664);
#475=VERTEX_POINT('',#1666);
#476=VERTEX_POINT('',#1668);
#477=VERTEX_POINT('',#1672);
#478=VERTEX_POINT('',#1674);
#479=VERTEX_POINT('',#1681);
#480=VERTEX_POINT('',#1682);
#481=VERTEX_POINT('',#1684);
#482=VERTEX_POINT('',#1686);
#483=VERTEX_POINT('',#1690);
#484=VERTEX_POINT('',#1692);
#485=VERTEX_POINT('',#1696);
#486=VERTEX_POINT('',#1700);
#487=VERTEX_POINT('',#1702);
#488=VERTEX_POINT('',#1704);
#489=VERTEX_POINT('',#1706);
#490=VERTEX_POINT('',#1708);
#491=VERTEX_POINT('',#1710);
#492=VERTEX_POINT('',#1714);
#493=VERTEX_POINT('',#1715);
#494=VERTEX_POINT('',#1721);
#495=VERTEX_POINT('',#1724);
#496=VERTEX_POINT('',#1727);
#497=VERTEX_POINT('',#1733);
#498=VERTEX_POINT('',#1734);
#499=VERTEX_POINT('',#1736);
#500=VERTEX_POINT('',#1738);
#501=VERTEX_POINT('',#1742);
#502=VERTEX_POINT('',#1744);
#503=VERTEX_POINT('',#1749);
#504=VERTEX_POINT('',#1752);
#505=VERTEX_POINT('',#1754);
#506=VERTEX_POINT('',#1757);
#507=VERTEX_POINT('',#1761);
#508=VERTEX_POINT('',#1765);
#509=VERTEX_POINT('',#1777);
#510=VERTEX_POINT('',#1781);
#511=VERTEX_POINT('',#1785);
#512=VERTEX_POINT('',#1789);
#513=EDGE_CURVE('',#417,#417,#357,.T.);
#514=EDGE_CURVE('',#417,#418,#181,.T.);
#515=EDGE_CURVE('',#418,#418,#358,.T.);
#516=EDGE_CURVE('',#419,#419,#359,.T.);
#517=EDGE_CURVE('',#419,#420,#182,.T.);
#518=EDGE_CURVE('',#420,#420,#360,.T.);
#519=EDGE_CURVE('',#421,#421,#361,.T.);
#520=EDGE_CURVE('',#421,#422,#183,.T.);
#521=EDGE_CURVE('',#422,#422,#362,.T.);
#522=EDGE_CURVE('',#423,#423,#363,.T.);
#523=EDGE_CURVE('',#423,#424,#184,.T.);
#524=EDGE_CURVE('',#424,#424,#364,.T.);
#525=EDGE_CURVE('',#425,#426,#365,.T.);
#526=EDGE_CURVE('',#426,#427,#185,.T.);
#527=EDGE_CURVE('',#427,#428,#366,.T.);
#528=EDGE_CURVE('',#428,#425,#186,.T.);
#529=EDGE_CURVE('',#429,#430,#367,.T.);
#530=EDGE_CURVE('',#430,#426,#368,.T.);
#531=EDGE_CURVE('',#425,#429,#369,.T.);
#532=EDGE_CURVE('',#431,#432,#370,.T.);
#533=EDGE_CURVE('',#431,#430,#187,.T.);
#534=EDGE_CURVE('',#429,#432,#188,.T.);
#535=EDGE_CURVE('',#433,#429,#189,.T.);
#536=EDGE_CURVE('',#434,#433,#190,.T.);
#537=EDGE_CURVE('',#432,#434,#191,.T.);
#538=EDGE_CURVE('',#425,#435,#192,.T.);
#539=EDGE_CURVE('',#435,#433,#371,.T.);
#540=EDGE_CURVE('',#436,#428,#193,.T.);
#541=EDGE_CURVE('',#435,#436,#194,.T.);
#542=EDGE_CURVE('',#437,#438,#372,.T.);
#543=EDGE_CURVE('',#437,#439,#195,.T.);
#544=EDGE_CURVE('',#439,#440,#373,.T.);
#545=EDGE_CURVE('',#440,#438,#196,.T.);
#546=EDGE_CURVE('',#441,#442,#374,.T.);
#547=EDGE_CURVE('',#442,#440,#375,.T.);
#548=EDGE_CURVE('',#439,#441,#376,.T.);
#549=EDGE_CURVE('',#443,#444,#377,.T.);
#550=EDGE_CURVE('',#444,#442,#197,.T.);
#551=EDGE_CURVE('',#441,#443,#198,.T.);
#552=EDGE_CURVE('',#445,#441,#199,.T.);
#553=EDGE_CURVE('',#446,#445,#200,.T.);
#554=EDGE_CURVE('',#443,#446,#201,.T.);
#555=EDGE_CURVE('',#439,#447,#202,.T.);
#556=EDGE_CURVE('',#447,#445,#378,.T.);
#557=EDGE_CURVE('',#437,#448,#203,.T.);
#558=EDGE_CURVE('',#447,#448,#204,.T.);
#559=EDGE_CURVE('',#449,#438,#205,.T.);
#560=EDGE_CURVE('',#449,#450,#379,.T.);
#561=EDGE_CURVE('',#450,#451,#206,.T.);
#562=EDGE_CURVE('',#448,#451,#207,.T.);
#563=EDGE_CURVE('',#452,#453,#380,.T.);
#564=EDGE_CURVE('',#453,#454,#208,.T.);
#565=EDGE_CURVE('',#454,#455,#381,.T.);
#566=EDGE_CURVE('',#455,#452,#209,.T.);
#567=EDGE_CURVE('',#456,#457,#382,.T.);
#568=EDGE_CURVE('',#457,#453,#383,.T.);
#569=EDGE_CURVE('',#452,#456,#384,.T.);
#570=EDGE_CURVE('',#449,#457,#210,.T.);
#571=EDGE_CURVE('',#456,#450,#211,.T.);
#572=EDGE_CURVE('',#458,#456,#212,.T.);
#573=EDGE_CURVE('',#451,#458,#213,.T.);
#574=EDGE_CURVE('',#452,#459,#214,.T.);
#575=EDGE_CURVE('',#459,#458,#385,.T.);
#576=EDGE_CURVE('',#460,#455,#215,.T.);
#577=EDGE_CURVE('',#459,#460,#216,.T.);
#578=EDGE_CURVE('',#461,#462,#386,.T.);
#579=EDGE_CURVE('',#461,#463,#217,.T.);
#580=EDGE_CURVE('',#463,#464,#387,.T.);
#581=EDGE_CURVE('',#464,#462,#218,.T.);
#582=EDGE_CURVE('',#465,#466,#388,.T.);
#583=EDGE_CURVE('',#466,#464,#389,.T.);
#584=EDGE_CURVE('',#463,#465,#390,.T.);
#585=EDGE_CURVE('',#467,#468,#391,.T.);
#586=EDGE_CURVE('',#468,#466,#219,.T.);
#587=EDGE_CURVE('',#465,#467,#220,.T.);
#588=EDGE_CURVE('',#469,#465,#221,.T.);
#589=EDGE_CURVE('',#470,#469,#222,.T.);
#590=EDGE_CURVE('',#467,#470,#223,.T.);
#591=EDGE_CURVE('',#463,#471,#224,.T.);
#592=EDGE_CURVE('',#471,#469,#392,.T.);
#593=EDGE_CURVE('',#461,#472,#225,.T.);
#594=EDGE_CURVE('',#471,#472,#226,.T.);
#595=EDGE_CURVE('',#473,#474,#393,.T.);
#596=EDGE_CURVE('',#474,#475,#227,.T.);
#597=EDGE_CURVE('',#475,#476,#394,.T.);
#598=EDGE_CURVE('',#476,#473,#228,.T.);
#599=EDGE_CURVE('',#431,#477,#229,.T.);
#600=EDGE_CURVE('',#478,#477,#230,.T.);
#601=EDGE_CURVE('',#475,#478,#231,.T.);
#602=EDGE_CURVE('',#474,#462,#232,.T.);
#603=EDGE_CURVE('',#454,#468,#233,.T.);
#604=EDGE_CURVE('',#427,#444,#234,.T.);
#605=EDGE_CURVE('',#479,#480,#395,.T.);
#606=EDGE_CURVE('',#480,#481,#235,.T.);
#607=EDGE_CURVE('',#481,#482,#396,.T.);
#608=EDGE_CURVE('',#482,#479,#236,.T.);
#609=EDGE_CURVE('',#480,#483,#237,.T.);
#610=EDGE_CURVE('',#484,#483,#397,.T.);
#611=EDGE_CURVE('',#484,#470,#238,.T.);
#612=EDGE_CURVE('',#472,#481,#239,.T.);
#613=EDGE_CURVE('',#485,#485,#398,.T.);
#614=EDGE_CURVE('',#479,#476,#240,.T.);
#615=EDGE_CURVE('',#486,#478,#399,.T.);
#616=EDGE_CURVE('',#486,#487,#241,.T.);
#617=EDGE_CURVE('',#488,#487,#400,.T.);
#618=EDGE_CURVE('',#489,#488,#242,.T.);
#619=EDGE_CURVE('',#490,#489,#243,.T.);
#620=EDGE_CURVE('',#490,#491,#244,.T.);
#621=EDGE_CURVE('',#483,#491,#245,.T.);
#622=EDGE_CURVE('',#492,#493,#401,.T.);
#623=EDGE_CURVE('',#493,#488,#246,.T.);
#624=EDGE_CURVE('',#487,#492,#247,.T.);
#625=EDGE_CURVE('',#493,#434,#248,.T.);
#626=EDGE_CURVE('',#436,#494,#249,.T.);
#627=EDGE_CURVE('',#489,#494,#402,.T.);
#628=EDGE_CURVE('',#495,#495,#403,.T.);
#629=EDGE_CURVE('',#477,#496,#404,.T.);
#630=EDGE_CURVE('',#496,#486,#250,.T.);
#631=EDGE_CURVE('',#492,#496,#251,.T.);
#632=EDGE_CURVE('',#497,#498,#405,.T.);
#633=EDGE_CURVE('',#498,#499,#252,.T.);
#634=EDGE_CURVE('',#499,#500,#406,.T.);
#635=EDGE_CURVE('',#500,#497,#253,.T.);
#636=EDGE_CURVE('',#501,#498,#254,.T.);
#637=EDGE_CURVE('',#502,#501,#255,.T.);
#638=EDGE_CURVE('',#502,#499,#256,.T.);
#639=EDGE_CURVE('',#497,#446,#257,.T.);
#640=EDGE_CURVE('',#460,#503,#258,.T.);
#641=EDGE_CURVE('',#501,#503,#407,.T.);
#642=EDGE_CURVE('',#504,#504,#408,.T.);
#643=EDGE_CURVE('',#505,#505,#409,.T.);
#644=EDGE_CURVE('',#494,#506,#259,.T.);
#645=EDGE_CURVE('',#506,#490,#410,.T.);
#646=EDGE_CURVE('',#503,#507,#260,.T.);
#647=EDGE_CURVE('',#507,#502,#411,.T.);
#648=EDGE_CURVE('',#508,#484,#261,.T.);
#649=EDGE_CURVE('',#508,#507,#262,.T.);
#650=EDGE_CURVE('',#491,#508,#412,.T.);
#651=EDGE_CURVE('',#473,#482,#263,.T.);
#652=EDGE_CURVE('',#500,#506,#264,.T.);
#653=EDGE_CURVE('',#495,#509,#265,.T.);
#654=EDGE_CURVE('',#509,#509,#413,.T.);
#655=EDGE_CURVE('',#504,#510,#266,.T.);
#656=EDGE_CURVE('',#510,#510,#414,.T.);
#657=EDGE_CURVE('',#505,#511,#267,.T.);
#658=EDGE_CURVE('',#511,#511,#415,.T.);
#659=EDGE_CURVE('',#485,#512,#268,.T.);
#660=EDGE_CURVE('',#512,#512,#416,.T.);
#661=ORIENTED_EDGE('',*,*,#513,.F.);
#662=ORIENTED_EDGE('',*,*,#514,.T.);
#663=ORIENTED_EDGE('',*,*,#515,.F.);
#664=ORIENTED_EDGE('',*,*,#514,.F.);
#665=ORIENTED_EDGE('',*,*,#516,.F.);
#666=ORIENTED_EDGE('',*,*,#517,.T.);
#667=ORIENTED_EDGE('',*,*,#518,.F.);
#668=ORIENTED_EDGE('',*,*,#517,.F.);
#669=ORIENTED_EDGE('',*,*,#519,.F.);
#670=ORIENTED_EDGE('',*,*,#520,.T.);
#671=ORIENTED_EDGE('',*,*,#521,.F.);
#672=ORIENTED_EDGE('',*,*,#520,.F.);
#673=ORIENTED_EDGE('',*,*,#522,.F.);
#674=ORIENTED_EDGE('',*,*,#523,.T.);
#675=ORIENTED_EDGE('',*,*,#524,.F.);
#676=ORIENTED_EDGE('',*,*,#523,.F.);
#677=ORIENTED_EDGE('',*,*,#525,.T.);
#678=ORIENTED_EDGE('',*,*,#526,.T.);
#679=ORIENTED_EDGE('',*,*,#527,.T.);
#680=ORIENTED_EDGE('',*,*,#528,.T.);
#681=ORIENTED_EDGE('',*,*,#529,.T.);
#682=ORIENTED_EDGE('',*,*,#530,.T.);
#683=ORIENTED_EDGE('',*,*,#525,.F.);
#684=ORIENTED_EDGE('',*,*,#531,.T.);
#685=ORIENTED_EDGE('',*,*,#532,.F.);
#686=ORIENTED_EDGE('',*,*,#533,.T.);
#687=ORIENTED_EDGE('',*,*,#529,.F.);
#688=ORIENTED_EDGE('',*,*,#534,.T.);
#689=ORIENTED_EDGE('',*,*,#534,.F.);
#690=ORIENTED_EDGE('',*,*,#535,.F.);
#691=ORIENTED_EDGE('',*,*,#536,.F.);
#692=ORIENTED_EDGE('',*,*,#537,.F.);
#693=ORIENTED_EDGE('',*,*,#531,.F.);
#694=ORIENTED_EDGE('',*,*,#538,.T.);
#695=ORIENTED_EDGE('',*,*,#539,.T.);
#696=ORIENTED_EDGE('',*,*,#535,.T.);
#697=ORIENTED_EDGE('',*,*,#528,.F.);
#698=ORIENTED_EDGE('',*,*,#540,.F.);
#699=ORIENTED_EDGE('',*,*,#541,.F.);
#700=ORIENTED_EDGE('',*,*,#538,.F.);
#701=ORIENTED_EDGE('',*,*,#542,.F.);
#702=ORIENTED_EDGE('',*,*,#543,.T.);
#703=ORIENTED_EDGE('',*,*,#544,.T.);
#704=ORIENTED_EDGE('',*,*,#545,.T.);
#705=ORIENTED_EDGE('',*,*,#546,.T.);
#706=ORIENTED_EDGE('',*,*,#547,.T.);
#707=ORIENTED_EDGE('',*,*,#544,.F.);
#708=ORIENTED_EDGE('',*,*,#548,.T.);
#709=ORIENTED_EDGE('',*,*,#549,.T.);
#710=ORIENTED_EDGE('',*,*,#550,.T.);
#711=ORIENTED_EDGE('',*,*,#546,.F.);
#712=ORIENTED_EDGE('',*,*,#551,.T.);
#713=ORIENTED_EDGE('',*,*,#551,.F.);
#714=ORIENTED_EDGE('',*,*,#552,.F.);
#715=ORIENTED_EDGE('',*,*,#553,.F.);
#716=ORIENTED_EDGE('',*,*,#554,.F.);
#717=ORIENTED_EDGE('',*,*,#548,.F.);
#718=ORIENTED_EDGE('',*,*,#555,.T.);
#719=ORIENTED_EDGE('',*,*,#556,.T.);
#720=ORIENTED_EDGE('',*,*,#552,.T.);
#721=ORIENTED_EDGE('',*,*,#543,.F.);
#722=ORIENTED_EDGE('',*,*,#557,.T.);
#723=ORIENTED_EDGE('',*,*,#558,.F.);
#724=ORIENTED_EDGE('',*,*,#555,.F.);
#725=ORIENTED_EDGE('',*,*,#542,.T.);
#726=ORIENTED_EDGE('',*,*,#559,.F.);
#727=ORIENTED_EDGE('',*,*,#560,.T.);
#728=ORIENTED_EDGE('',*,*,#561,.T.);
#729=ORIENTED_EDGE('',*,*,#562,.F.);
#730=ORIENTED_EDGE('',*,*,#557,.F.);
#731=ORIENTED_EDGE('',*,*,#563,.T.);
#732=ORIENTED_EDGE('',*,*,#564,.T.);
#733=ORIENTED_EDGE('',*,*,#565,.T.);
#734=ORIENTED_EDGE('',*,*,#566,.T.);
#735=ORIENTED_EDGE('',*,*,#567,.T.);
#736=ORIENTED_EDGE('',*,*,#568,.T.);
#737=ORIENTED_EDGE('',*,*,#563,.F.);
#738=ORIENTED_EDGE('',*,*,#569,.T.);
#739=ORIENTED_EDGE('',*,*,#560,.F.);
#740=ORIENTED_EDGE('',*,*,#570,.T.);
#741=ORIENTED_EDGE('',*,*,#567,.F.);
#742=ORIENTED_EDGE('',*,*,#571,.T.);
#743=ORIENTED_EDGE('',*,*,#571,.F.);
#744=ORIENTED_EDGE('',*,*,#572,.F.);
#745=ORIENTED_EDGE('',*,*,#573,.F.);
#746=ORIENTED_EDGE('',*,*,#561,.F.);
#747=ORIENTED_EDGE('',*,*,#569,.F.);
#748=ORIENTED_EDGE('',*,*,#574,.T.);
#749=ORIENTED_EDGE('',*,*,#575,.T.);
#750=ORIENTED_EDGE('',*,*,#572,.T.);
#751=ORIENTED_EDGE('',*,*,#566,.F.);
#752=ORIENTED_EDGE('',*,*,#576,.F.);
#753=ORIENTED_EDGE('',*,*,#577,.F.);
#754=ORIENTED_EDGE('',*,*,#574,.F.);
#755=ORIENTED_EDGE('',*,*,#578,.F.);
#756=ORIENTED_EDGE('',*,*,#579,.T.);
#757=ORIENTED_EDGE('',*,*,#580,.T.);
#758=ORIENTED_EDGE('',*,*,#581,.T.);
#759=ORIENTED_EDGE('',*,*,#582,.T.);
#760=ORIENTED_EDGE('',*,*,#583,.T.);
#761=ORIENTED_EDGE('',*,*,#580,.F.);
#762=ORIENTED_EDGE('',*,*,#584,.T.);
#763=ORIENTED_EDGE('',*,*,#585,.T.);
#764=ORIENTED_EDGE('',*,*,#586,.T.);
#765=ORIENTED_EDGE('',*,*,#582,.F.);
#766=ORIENTED_EDGE('',*,*,#587,.T.);
#767=ORIENTED_EDGE('',*,*,#587,.F.);
#768=ORIENTED_EDGE('',*,*,#588,.F.);
#769=ORIENTED_EDGE('',*,*,#589,.F.);
#770=ORIENTED_EDGE('',*,*,#590,.F.);
#771=ORIENTED_EDGE('',*,*,#584,.F.);
#772=ORIENTED_EDGE('',*,*,#591,.T.);
#773=ORIENTED_EDGE('',*,*,#592,.T.);
#774=ORIENTED_EDGE('',*,*,#588,.T.);
#775=ORIENTED_EDGE('',*,*,#579,.F.);
#776=ORIENTED_EDGE('',*,*,#593,.T.);
#777=ORIENTED_EDGE('',*,*,#594,.F.);
#778=ORIENTED_EDGE('',*,*,#591,.F.);
#779=ORIENTED_EDGE('',*,*,#595,.T.);
#780=ORIENTED_EDGE('',*,*,#596,.T.);
#781=ORIENTED_EDGE('',*,*,#597,.T.);
#782=ORIENTED_EDGE('',*,*,#598,.T.);
#783=ORIENTED_EDGE('',*,*,#533,.F.);
#784=ORIENTED_EDGE('',*,*,#599,.T.);
#785=ORIENTED_EDGE('',*,*,#600,.F.);
#786=ORIENTED_EDGE('',*,*,#601,.F.);
#787=ORIENTED_EDGE('',*,*,#596,.F.);
#788=ORIENTED_EDGE('',*,*,#602,.T.);
#789=ORIENTED_EDGE('',*,*,#581,.F.);
#790=ORIENTED_EDGE('',*,*,#583,.F.);
#791=ORIENTED_EDGE('',*,*,#586,.F.);
#792=ORIENTED_EDGE('',*,*,#603,.F.);
#793=ORIENTED_EDGE('',*,*,#564,.F.);
#794=ORIENTED_EDGE('',*,*,#568,.F.);
#795=ORIENTED_EDGE('',*,*,#570,.F.);
#796=ORIENTED_EDGE('',*,*,#559,.T.);
#797=ORIENTED_EDGE('',*,*,#545,.F.);
#798=ORIENTED_EDGE('',*,*,#547,.F.);
#799=ORIENTED_EDGE('',*,*,#550,.F.);
#800=ORIENTED_EDGE('',*,*,#604,.F.);
#801=ORIENTED_EDGE('',*,*,#526,.F.);
#802=ORIENTED_EDGE('',*,*,#530,.F.);
#803=ORIENTED_EDGE('',*,*,#513,.T.);
#804=ORIENTED_EDGE('',*,*,#516,.T.);
#805=ORIENTED_EDGE('',*,*,#519,.T.);
#806=ORIENTED_EDGE('',*,*,#522,.T.);
#807=ORIENTED_EDGE('',*,*,#605,.T.);
#808=ORIENTED_EDGE('',*,*,#606,.T.);
#809=ORIENTED_EDGE('',*,*,#607,.T.);
#810=ORIENTED_EDGE('',*,*,#608,.T.);
#811=ORIENTED_EDGE('',*,*,#606,.F.);
#812=ORIENTED_EDGE('',*,*,#609,.T.);
#813=ORIENTED_EDGE('',*,*,#610,.F.);
#814=ORIENTED_EDGE('',*,*,#611,.T.);
#815=ORIENTED_EDGE('',*,*,#589,.T.);
#816=ORIENTED_EDGE('',*,*,#592,.F.);
#817=ORIENTED_EDGE('',*,*,#594,.T.);
#818=ORIENTED_EDGE('',*,*,#612,.T.);
#819=ORIENTED_EDGE('',*,*,#613,.T.);
#820=ORIENTED_EDGE('',*,*,#605,.F.);
#821=ORIENTED_EDGE('',*,*,#614,.T.);
#822=ORIENTED_EDGE('',*,*,#597,.F.);
#823=ORIENTED_EDGE('',*,*,#601,.T.);
#824=ORIENTED_EDGE('',*,*,#615,.F.);
#825=ORIENTED_EDGE('',*,*,#616,.T.);
#826=ORIENTED_EDGE('',*,*,#617,.F.);
#827=ORIENTED_EDGE('',*,*,#618,.F.);
#828=ORIENTED_EDGE('',*,*,#619,.F.);
#829=ORIENTED_EDGE('',*,*,#620,.T.);
#830=ORIENTED_EDGE('',*,*,#621,.F.);
#831=ORIENTED_EDGE('',*,*,#609,.F.);
#832=ORIENTED_EDGE('',*,*,#622,.T.);
#833=ORIENTED_EDGE('',*,*,#623,.T.);
#834=ORIENTED_EDGE('',*,*,#617,.T.);
#835=ORIENTED_EDGE('',*,*,#624,.T.);
#836=ORIENTED_EDGE('',*,*,#623,.F.);
#837=ORIENTED_EDGE('',*,*,#625,.T.);
#838=ORIENTED_EDGE('',*,*,#536,.T.);
#839=ORIENTED_EDGE('',*,*,#539,.F.);
#840=ORIENTED_EDGE('',*,*,#541,.T.);
#841=ORIENTED_EDGE('',*,*,#626,.T.);
#842=ORIENTED_EDGE('',*,*,#627,.F.);
#843=ORIENTED_EDGE('',*,*,#618,.T.);
#844=ORIENTED_EDGE('',*,*,#628,.T.);
#845=ORIENTED_EDGE('',*,*,#629,.T.);
#846=ORIENTED_EDGE('',*,*,#630,.T.);
#847=ORIENTED_EDGE('',*,*,#615,.T.);
#848=ORIENTED_EDGE('',*,*,#600,.T.);
#849=ORIENTED_EDGE('',*,*,#624,.F.);
#850=ORIENTED_EDGE('',*,*,#616,.F.);
#851=ORIENTED_EDGE('',*,*,#630,.F.);
#852=ORIENTED_EDGE('',*,*,#631,.F.);
#853=ORIENTED_EDGE('',*,*,#632,.T.);
#854=ORIENTED_EDGE('',*,*,#633,.T.);
#855=ORIENTED_EDGE('',*,*,#634,.T.);
#856=ORIENTED_EDGE('',*,*,#635,.T.);
#857=ORIENTED_EDGE('',*,*,#633,.F.);
#858=ORIENTED_EDGE('',*,*,#636,.F.);
#859=ORIENTED_EDGE('',*,*,#637,.F.);
#860=ORIENTED_EDGE('',*,*,#638,.T.);
#861=ORIENTED_EDGE('',*,*,#632,.F.);
#862=ORIENTED_EDGE('',*,*,#639,.T.);
#863=ORIENTED_EDGE('',*,*,#553,.T.);
#864=ORIENTED_EDGE('',*,*,#556,.F.);
#865=ORIENTED_EDGE('',*,*,#558,.T.);
#866=ORIENTED_EDGE('',*,*,#562,.T.);
#867=ORIENTED_EDGE('',*,*,#573,.T.);
#868=ORIENTED_EDGE('',*,*,#575,.F.);
#869=ORIENTED_EDGE('',*,*,#577,.T.);
#870=ORIENTED_EDGE('',*,*,#640,.T.);
#871=ORIENTED_EDGE('',*,*,#641,.F.);
#872=ORIENTED_EDGE('',*,*,#636,.T.);
#873=ORIENTED_EDGE('',*,*,#642,.T.);
#874=ORIENTED_EDGE('',*,*,#643,.T.);
#875=ORIENTED_EDGE('',*,*,#627,.T.);
#876=ORIENTED_EDGE('',*,*,#644,.T.);
#877=ORIENTED_EDGE('',*,*,#645,.T.);
#878=ORIENTED_EDGE('',*,*,#619,.T.);
#879=ORIENTED_EDGE('',*,*,#641,.T.);
#880=ORIENTED_EDGE('',*,*,#646,.T.);
#881=ORIENTED_EDGE('',*,*,#647,.T.);
#882=ORIENTED_EDGE('',*,*,#637,.T.);
#883=ORIENTED_EDGE('',*,*,#646,.F.);
#884=ORIENTED_EDGE('',*,*,#640,.F.);
#885=ORIENTED_EDGE('',*,*,#576,.T.);
#886=ORIENTED_EDGE('',*,*,#565,.F.);
#887=ORIENTED_EDGE('',*,*,#603,.T.);
#888=ORIENTED_EDGE('',*,*,#585,.F.);
#889=ORIENTED_EDGE('',*,*,#590,.T.);
#890=ORIENTED_EDGE('',*,*,#611,.F.);
#891=ORIENTED_EDGE('',*,*,#648,.F.);
#892=ORIENTED_EDGE('',*,*,#649,.T.);
#893=ORIENTED_EDGE('',*,*,#610,.T.);
#894=ORIENTED_EDGE('',*,*,#621,.T.);
#895=ORIENTED_EDGE('',*,*,#650,.T.);
#896=ORIENTED_EDGE('',*,*,#648,.T.);
#897=ORIENTED_EDGE('',*,*,#598,.F.);
#898=ORIENTED_EDGE('',*,*,#614,.F.);
#899=ORIENTED_EDGE('',*,*,#608,.F.);
#900=ORIENTED_EDGE('',*,*,#651,.F.);
#901=ORIENTED_EDGE('',*,*,#532,.T.);
#902=ORIENTED_EDGE('',*,*,#537,.T.);
#903=ORIENTED_EDGE('',*,*,#625,.F.);
#904=ORIENTED_EDGE('',*,*,#622,.F.);
#905=ORIENTED_EDGE('',*,*,#631,.T.);
#906=ORIENTED_EDGE('',*,*,#629,.F.);
#907=ORIENTED_EDGE('',*,*,#599,.F.);
#908=ORIENTED_EDGE('',*,*,#635,.F.);
#909=ORIENTED_EDGE('',*,*,#652,.T.);
#910=ORIENTED_EDGE('',*,*,#644,.F.);
#911=ORIENTED_EDGE('',*,*,#626,.F.);
#912=ORIENTED_EDGE('',*,*,#540,.T.);
#913=ORIENTED_EDGE('',*,*,#527,.F.);
#914=ORIENTED_EDGE('',*,*,#604,.T.);
#915=ORIENTED_EDGE('',*,*,#549,.F.);
#916=ORIENTED_EDGE('',*,*,#554,.T.);
#917=ORIENTED_EDGE('',*,*,#639,.F.);
#918=ORIENTED_EDGE('',*,*,#578,.T.);
#919=ORIENTED_EDGE('',*,*,#602,.F.);
#920=ORIENTED_EDGE('',*,*,#595,.F.);
#921=ORIENTED_EDGE('',*,*,#651,.T.);
#922=ORIENTED_EDGE('',*,*,#607,.F.);
#923=ORIENTED_EDGE('',*,*,#612,.F.);
#924=ORIENTED_EDGE('',*,*,#593,.F.);
#925=ORIENTED_EDGE('',*,*,#628,.F.);
#926=ORIENTED_EDGE('',*,*,#653,.T.);
#927=ORIENTED_EDGE('',*,*,#654,.T.);
#928=ORIENTED_EDGE('',*,*,#653,.F.);
#929=ORIENTED_EDGE('',*,*,#642,.F.);
#930=ORIENTED_EDGE('',*,*,#655,.T.);
#931=ORIENTED_EDGE('',*,*,#656,.T.);
#932=ORIENTED_EDGE('',*,*,#655,.F.);
#933=ORIENTED_EDGE('',*,*,#643,.F.);
#934=ORIENTED_EDGE('',*,*,#657,.T.);
#935=ORIENTED_EDGE('',*,*,#658,.T.);
#936=ORIENTED_EDGE('',*,*,#657,.F.);
#937=ORIENTED_EDGE('',*,*,#613,.F.);
#938=ORIENTED_EDGE('',*,*,#659,.T.);
#939=ORIENTED_EDGE('',*,*,#660,.T.);
#940=ORIENTED_EDGE('',*,*,#659,.F.);
#941=ORIENTED_EDGE('',*,*,#634,.F.);
#942=ORIENTED_EDGE('',*,*,#638,.F.);
#943=ORIENTED_EDGE('',*,*,#647,.F.);
#944=ORIENTED_EDGE('',*,*,#649,.F.);
#945=ORIENTED_EDGE('',*,*,#650,.F.);
#946=ORIENTED_EDGE('',*,*,#620,.F.);
#947=ORIENTED_EDGE('',*,*,#645,.F.);
#948=ORIENTED_EDGE('',*,*,#652,.F.);
#949=ORIENTED_EDGE('',*,*,#515,.T.);
#950=ORIENTED_EDGE('',*,*,#518,.T.);
#951=ORIENTED_EDGE('',*,*,#521,.T.);
#952=ORIENTED_EDGE('',*,*,#524,.T.);
#953=ORIENTED_EDGE('',*,*,#660,.F.);
#954=ORIENTED_EDGE('',*,*,#658,.F.);
#955=ORIENTED_EDGE('',*,*,#656,.F.);
#956=ORIENTED_EDGE('',*,*,#654,.F.);
#957=CYLINDRICAL_SURFACE('',#1062,1.75);
#958=CYLINDRICAL_SURFACE('',#1065,1.75);
#959=CYLINDRICAL_SURFACE('',#1068,1.75);
#960=CYLINDRICAL_SURFACE('',#1071,1.75);
#961=CYLINDRICAL_SURFACE('',#1074,1.);
#962=CYLINDRICAL_SURFACE('',#1081,1.);
#963=CYLINDRICAL_SURFACE('',#1084,1.);
#964=CYLINDRICAL_SURFACE('',#1087,1.);
#965=CYLINDRICAL_SURFACE('',#1094,1.);
#966=CYLINDRICAL_SURFACE('',#1097,1.);
#967=CYLINDRICAL_SURFACE('',#1102,1.);
#968=CYLINDRICAL_SURFACE('',#1109,1.);
#969=CYLINDRICAL_SURFACE('',#1111,1.);
#970=CYLINDRICAL_SURFACE('',#1114,1.);
#971=CYLINDRICAL_SURFACE('',#1121,1.);
#972=CYLINDRICAL_SURFACE('',#1124,1.);
#973=CYLINDRICAL_SURFACE('',#1127,1.);
#974=CYLINDRICAL_SURFACE('',#1131,1.);
#975=CYLINDRICAL_SURFACE('',#1140,1.);
#976=CYLINDRICAL_SURFACE('',#1145,1.);
#977=CYLINDRICAL_SURFACE('',#1148,1.);
#978=CYLINDRICAL_SURFACE('',#1156,1.);
#979=CYLINDRICAL_SURFACE('',#1158,1.);
#980=CYLINDRICAL_SURFACE('',#1161,1.);
#981=CYLINDRICAL_SURFACE('',#1167,2.);
#982=CYLINDRICAL_SURFACE('',#1169,2.);
#983=CYLINDRICAL_SURFACE('',#1171,2.);
#984=CYLINDRICAL_SURFACE('',#1173,2.);
#985=ADVANCED_FACE('',(#57),#957,.F.);
#986=ADVANCED_FACE('',(#58),#958,.F.);
#987=ADVANCED_FACE('',(#59),#959,.F.);
#988=ADVANCED_FACE('',(#60),#960,.F.);
#989=ADVANCED_FACE('',(#61),#961,.F.);
#990=ADVANCED_FACE('',(#62),#53,.F.);
#991=ADVANCED_FACE('',(#63),#962,.F.);
#992=ADVANCED_FACE('',(#64),#31,.T.);
#993=ADVANCED_FACE('',(#65),#963,.T.);
#994=ADVANCED_FACE('',(#66),#32,.T.);
#995=ADVANCED_FACE('',(#67),#964,.F.);
#996=ADVANCED_FACE('',(#68),#54,.F.);
#997=ADVANCED_FACE('',(#69),#965,.F.);
#998=ADVANCED_FACE('',(#70),#33,.T.);
#999=ADVANCED_FACE('',(#71),#966,.T.);
#1000=ADVANCED_FACE('',(#72),#34,.T.);
#1001=ADVANCED_FACE('',(#73),#35,.T.);
#1002=ADVANCED_FACE('',(#74),#967,.F.);
#1003=ADVANCED_FACE('',(#75),#55,.F.);
#1004=ADVANCED_FACE('',(#76),#968,.F.);
#1005=ADVANCED_FACE('',(#77),#36,.T.);
#1006=ADVANCED_FACE('',(#78),#969,.T.);
#1007=ADVANCED_FACE('',(#79),#37,.T.);
#1008=ADVANCED_FACE('',(#80),#970,.F.);
#1009=ADVANCED_FACE('',(#81),#56,.F.);
#1010=ADVANCED_FACE('',(#82),#971,.F.);
#1011=ADVANCED_FACE('',(#83),#38,.T.);
#1012=ADVANCED_FACE('',(#84),#972,.T.);
#1013=ADVANCED_FACE('',(#85),#39,.T.);
#1014=ADVANCED_FACE('',(#86),#973,.F.);
#1015=ADVANCED_FACE('',(#87,#15,#16,#17,#18),#40,.T.);
#1016=ADVANCED_FACE('',(#88),#974,.T.);
#1017=ADVANCED_FACE('',(#89,#19),#41,.T.);
#1018=ADVANCED_FACE('',(#90),#42,.T.);
#1019=ADVANCED_FACE('',(#91),#975,.T.);
#1020=ADVANCED_FACE('',(#92,#20),#43,.T.);
#1021=ADVANCED_FACE('',(#93),#976,.F.);
#1022=ADVANCED_FACE('',(#94),#44,.F.);
#1023=ADVANCED_FACE('',(#95),#977,.T.);
#1024=ADVANCED_FACE('',(#96),#45,.T.);
#1025=ADVANCED_FACE('',(#97,#21,#22),#46,.T.);
#1026=ADVANCED_FACE('',(#98),#978,.T.);
#1027=ADVANCED_FACE('',(#99),#979,.T.);
#1028=ADVANCED_FACE('',(#100),#47,.T.);
#1029=ADVANCED_FACE('',(#101),#980,.T.);
#1030=ADVANCED_FACE('',(#102),#48,.F.);
#1031=ADVANCED_FACE('',(#103),#49,.T.);
#1032=ADVANCED_FACE('',(#104),#50,.T.);
#1033=ADVANCED_FACE('',(#105),#51,.T.);
#1034=ADVANCED_FACE('',(#106),#981,.F.);
#1035=ADVANCED_FACE('',(#107),#982,.F.);
#1036=ADVANCED_FACE('',(#108),#983,.F.);
#1037=ADVANCED_FACE('',(#109),#984,.F.);
#1038=ADVANCED_FACE('',(#110,#23,#24,#25,#26,#27,#28,#29,#30),#52,.F.);
#1039=CLOSED_SHELL('',(#985,#986,#987,#988,#989,#990,#991,#992,#993,#994,
#995,#996,#997,#998,#999,#1000,#1001,#1002,#1003,#1004,#1005,#1006,#1007,
#1008,#1009,#1010,#1011,#1012,#1013,#1014,#1015,#1016,#1017,#1018,#1019,
#1020,#1021,#1022,#1023,#1024,#1025,#1026,#1027,#1028,#1029,#1030,#1031,
#1032,#1033,#1034,#1035,#1036,#1037,#1038));
#1040=DERIVED_UNIT_ELEMENT(#1043,1.);
#1041=DERIVED_UNIT_ELEMENT(#1798,-3.);
#1042=DIMENSIONAL_EXPONENTS(1.,0.,0.,0.,0.,0.,0.);
#1043=(
CONVERSION_BASED_UNIT('gram',#1045)
MASS_UNIT()
NAMED_UNIT(#1042)
);
#1044=(
MASS_UNIT()
NAMED_UNIT(*)
SI_UNIT(.KILO.,.GRAM.)
);
#1045=MASS_MEASURE_WITH_UNIT(MASS_MEASURE(0.001),#1044);
#1046=DERIVED_UNIT((#1040,#1041));
#1047=MEASURE_REPRESENTATION_ITEM('density measure',
POSITIVE_RATIO_MEASURE(1.),#1046);
#1048=PROPERTY_DEFINITION_REPRESENTATION(#1053,#1050);
#1049=PROPERTY_DEFINITION_REPRESENTATION(#1054,#1051);
#1050=REPRESENTATION('material name',(#1052),#1795);
#1051=REPRESENTATION('density',(#1047),#1795);
#1052=DESCRIPTIVE_REPRESENTATION_ITEM('\X2\04220438043F043E0432044B0435\X0\',
'\X2\04220438043F043E0432044B0435\X0\');
#1053=PROPERTY_DEFINITION('material property','material name',#1805);
#1054=PROPERTY_DEFINITION('material property','density of part',#1805);
#1055=DATE_TIME_ROLE('creation_date');
#1056=APPLIED_DATE_AND_TIME_ASSIGNMENT(#1057,#1055,(#1805));
#1057=DATE_AND_TIME(#1058,#1059);
#1058=CALENDAR_DATE(2026,29,5);
#1059=LOCAL_TIME(0,0,0.,#1060);
#1060=COORDINATED_UNIVERSAL_TIME_OFFSET(0,0,.BEHIND.);
#1061=AXIS2_PLACEMENT_3D('placement',#1494,#1176,#1177);
#1062=AXIS2_PLACEMENT_3D('',#1495,#1178,#1179);
#1063=AXIS2_PLACEMENT_3D('',#1497,#1180,#1181);
#1064=AXIS2_PLACEMENT_3D('',#1500,#1183,#1184);
#1065=AXIS2_PLACEMENT_3D('',#1501,#1185,#1186);
#1066=AXIS2_PLACEMENT_3D('',#1503,#1187,#1188);
#1067=AXIS2_PLACEMENT_3D('',#1506,#1190,#1191);
#1068=AXIS2_PLACEMENT_3D('',#1507,#1192,#1193);
#1069=AXIS2_PLACEMENT_3D('',#1509,#1194,#1195);
#1070=AXIS2_PLACEMENT_3D('',#1512,#1197,#1198);
#1071=AXIS2_PLACEMENT_3D('',#1513,#1199,#1200);
#1072=AXIS2_PLACEMENT_3D('',#1515,#1201,#1202);
#1073=AXIS2_PLACEMENT_3D('',#1518,#1204,#1205);
#1074=AXIS2_PLACEMENT_3D('',#1519,#1206,#1207);
#1075=AXIS2_PLACEMENT_3D('',#1522,#1208,#1209);
#1076=AXIS2_PLACEMENT_3D('',#1526,#1211,#1212);
#1077=AXIS2_PLACEMENT_3D('',#1528,#1214,#1215);
#1078=AXIS2_PLACEMENT_3D('',#1531,#1216,#1217);
#1079=AXIS2_PLACEMENT_3D('',#1532,#1218,#1219);
#1080=AXIS2_PLACEMENT_3D('',#1533,#1220,#1221);
#1081=AXIS2_PLACEMENT_3D('',#1534,#1222,#1223);
#1082=AXIS2_PLACEMENT_3D('',#1537,#1224,#1225);
#1083=AXIS2_PLACEMENT_3D('',#1540,#1228,#1229);
#1084=AXIS2_PLACEMENT_3D('',#1546,#1233,#1234);
#1085=AXIS2_PLACEMENT_3D('',#1549,#1236,#1237);
#1086=AXIS2_PLACEMENT_3D('',#1550,#1238,#1239);
#1087=AXIS2_PLACEMENT_3D('',#1554,#1242,#1243);
#1088=AXIS2_PLACEMENT_3D('',#1557,#1244,#1245);
#1089=AXIS2_PLACEMENT_3D('',#1561,#1247,#1248);
#1090=AXIS2_PLACEMENT_3D('',#1563,#1250,#1251);
#1091=AXIS2_PLACEMENT_3D('',#1566,#1252,#1253);
#1092=AXIS2_PLACEMENT_3D('',#1567,#1254,#1255);
#1093=AXIS2_PLACEMENT_3D('',#1568,#1256,#1257);
#1094=AXIS2_PLACEMENT_3D('',#1569,#1258,#1259);
#1095=AXIS2_PLACEMENT_3D('',#1572,#1260,#1261);
#1096=AXIS2_PLACEMENT_3D('',#1575,#1264,#1265);
#1097=AXIS2_PLACEMENT_3D('',#1581,#1269,#1270);
#1098=AXIS2_PLACEMENT_3D('',#1584,#1272,#1273);
#1099=AXIS2_PLACEMENT_3D('',#1585,#1274,#1275);
#1100=AXIS2_PLACEMENT_3D('',#1589,#1278,#1279);
#1101=AXIS2_PLACEMENT_3D('',#1593,#1281,#1282);
#1102=AXIS2_PLACEMENT_3D('',#1597,#1285,#1286);
#1103=AXIS2_PLACEMENT_3D('',#1600,#1287,#1288);
#1104=AXIS2_PLACEMENT_3D('',#1604,#1290,#1291);
#1105=AXIS2_PLACEMENT_3D('',#1606,#1293,#1294);
#1106=AXIS2_PLACEMENT_3D('',#1609,#1295,#1296);
#1107=AXIS2_PLACEMENT_3D('',#1610,#1297,#1298);
#1108=AXIS2_PLACEMENT_3D('',#1611,#1299,#1300);
#1109=AXIS2_PLACEMENT_3D('',#1612,#1301,#1302);
#1110=AXIS2_PLACEMENT_3D('',#1615,#1305,#1306);
#1111=AXIS2_PLACEMENT_3D('',#1619,#1309,#1310);
#1112=AXIS2_PLACEMENT_3D('',#1622,#1312,#1313);
#1113=AXIS2_PLACEMENT_3D('',#1623,#1314,#1315);
#1114=AXIS2_PLACEMENT_3D('',#1627,#1318,#1319);
#1115=AXIS2_PLACEMENT_3D('',#1630,#1320,#1321);
#1116=AXIS2_PLACEMENT_3D('',#1634,#1323,#1324);
#1117=AXIS2_PLACEMENT_3D('',#1636,#1326,#1327);
#1118=AXIS2_PLACEMENT_3D('',#1639,#1328,#1329);
#1119=AXIS2_PLACEMENT_3D('',#1640,#1330,#1331);
#1120=AXIS2_PLACEMENT_3D('',#1641,#1332,#1333);
#1121=AXIS2_PLACEMENT_3D('',#1642,#1334,#1335);
#1122=AXIS2_PLACEMENT_3D('',#1645,#1336,#1337);
#1123=AXIS2_PLACEMENT_3D('',#1648,#1340,#1341);
#1124=AXIS2_PLACEMENT_3D('',#1654,#1345,#1346);
#1125=AXIS2_PLACEMENT_3D('',#1657,#1348,#1349);
#1126=AXIS2_PLACEMENT_3D('',#1658,#1350,#1351);
#1127=AXIS2_PLACEMENT_3D('',#1662,#1354,#1355);
#1128=AXIS2_PLACEMENT_3D('',#1665,#1356,#1357);
#1129=AXIS2_PLACEMENT_3D('',#1669,#1359,#1360);
#1130=AXIS2_PLACEMENT_3D('',#1671,#1362,#1363);
#1131=AXIS2_PLACEMENT_3D('',#1680,#1370,#1371);
#1132=AXIS2_PLACEMENT_3D('',#1683,#1372,#1373);
#1133=AXIS2_PLACEMENT_3D('',#1687,#1375,#1376);
#1134=AXIS2_PLACEMENT_3D('',#1689,#1378,#1379);
#1135=AXIS2_PLACEMENT_3D('',#1693,#1381,#1382);
#1136=AXIS2_PLACEMENT_3D('',#1697,#1385,#1386);
#1137=AXIS2_PLACEMENT_3D('',#1698,#1387,#1388);
#1138=AXIS2_PLACEMENT_3D('',#1701,#1390,#1391);
#1139=AXIS2_PLACEMENT_3D('',#1705,#1393,#1394);
#1140=AXIS2_PLACEMENT_3D('',#1713,#1399,#1400);
#1141=AXIS2_PLACEMENT_3D('',#1716,#1401,#1402);
#1142=AXIS2_PLACEMENT_3D('',#1719,#1405,#1406);
#1143=AXIS2_PLACEMENT_3D('',#1723,#1409,#1410);
#1144=AXIS2_PLACEMENT_3D('',#1725,#1411,#1412);
#1145=AXIS2_PLACEMENT_3D('',#1726,#1413,#1414);
#1146=AXIS2_PLACEMENT_3D('',#1728,#1415,#1416);
#1147=AXIS2_PLACEMENT_3D('',#1730,#1418,#1419);
#1148=AXIS2_PLACEMENT_3D('',#1732,#1421,#1422);
#1149=AXIS2_PLACEMENT_3D('',#1735,#1423,#1424);
#1150=AXIS2_PLACEMENT_3D('',#1739,#1426,#1427);
#1151=AXIS2_PLACEMENT_3D('',#1741,#1429,#1430);
#1152=AXIS2_PLACEMENT_3D('',#1747,#1434,#1435);
#1153=AXIS2_PLACEMENT_3D('',#1751,#1438,#1439);
#1154=AXIS2_PLACEMENT_3D('',#1753,#1440,#1441);
#1155=AXIS2_PLACEMENT_3D('',#1755,#1442,#1443);
#1156=AXIS2_PLACEMENT_3D('',#1756,#1444,#1445);
#1157=AXIS2_PLACEMENT_3D('',#1759,#1447,#1448);
#1158=AXIS2_PLACEMENT_3D('',#1760,#1449,#1450);
#1159=AXIS2_PLACEMENT_3D('',#1763,#1452,#1453);
#1160=AXIS2_PLACEMENT_3D('',#1764,#1454,#1455);
#1161=AXIS2_PLACEMENT_3D('',#1768,#1458,#1459);
#1162=AXIS2_PLACEMENT_3D('',#1769,#1460,#1461);
#1163=AXIS2_PLACEMENT_3D('',#1770,#1462,#1463);
#1164=AXIS2_PLACEMENT_3D('',#1772,#1465,#1466);
#1165=AXIS2_PLACEMENT_3D('',#1773,#1467,#1468);
#1166=AXIS2_PLACEMENT_3D('',#1775,#1470,#1471);
#1167=AXIS2_PLACEMENT_3D('',#1776,#1472,#1473);
#1168=AXIS2_PLACEMENT_3D('',#1779,#1475,#1476);
#1169=AXIS2_PLACEMENT_3D('',#1780,#1477,#1478);
#1170=AXIS2_PLACEMENT_3D('',#1783,#1480,#1481);
#1171=AXIS2_PLACEMENT_3D('',#1784,#1482,#1483);
#1172=AXIS2_PLACEMENT_3D('',#1787,#1485,#1486);
#1173=AXIS2_PLACEMENT_3D('',#1788,#1487,#1488);
#1174=AXIS2_PLACEMENT_3D('',#1791,#1490,#1491);
#1175=AXIS2_PLACEMENT_3D('',#1792,#1492,#1493);
#1176=DIRECTION('axis',(0.,0.,1.));
#1177=DIRECTION('refdir',(1.,0.,0.));
#1178=DIRECTION('center_axis',(0.,0.,-1.));
#1179=DIRECTION('ref_axis',(1.,0.,0.));
#1180=DIRECTION('center_axis',(0.,0.,-1.));
#1181=DIRECTION('ref_axis',(1.,0.,0.));
#1182=DIRECTION('',(0.,0.,-1.));
#1183=DIRECTION('center_axis',(0.,0.,1.));
#1184=DIRECTION('ref_axis',(1.,0.,0.));
#1185=DIRECTION('center_axis',(0.,0.,-1.));
#1186=DIRECTION('ref_axis',(1.,0.,0.));
#1187=DIRECTION('center_axis',(0.,0.,-1.));
#1188=DIRECTION('ref_axis',(1.,0.,0.));
#1189=DIRECTION('',(0.,0.,-1.));
#1190=DIRECTION('center_axis',(0.,0.,1.));
#1191=DIRECTION('ref_axis',(1.,0.,0.));
#1192=DIRECTION('center_axis',(0.,0.,-1.));
#1193=DIRECTION('ref_axis',(1.,0.,0.));
#1194=DIRECTION('center_axis',(0.,0.,-1.));
#1195=DIRECTION('ref_axis',(1.,0.,0.));
#1196=DIRECTION('',(0.,0.,-1.));
#1197=DIRECTION('center_axis',(0.,0.,1.));
#1198=DIRECTION('ref_axis',(1.,0.,0.));
#1199=DIRECTION('center_axis',(0.,0.,-1.));
#1200=DIRECTION('ref_axis',(1.,0.,0.));
#1201=DIRECTION('center_axis',(0.,0.,-1.));
#1202=DIRECTION('ref_axis',(1.,0.,0.));
#1203=DIRECTION('',(0.,0.,-1.));
#1204=DIRECTION('center_axis',(0.,0.,1.));
#1205=DIRECTION('ref_axis',(1.,0.,0.));
#1206=DIRECTION('center_axis',(1.,0.,0.));
#1207=DIRECTION('ref_axis',(0.,-0.707106781186548,-0.707106781186548));
#1208=DIRECTION('center_axis',(1.,0.,0.));
#1209=DIRECTION('ref_axis',(0.,-1.,0.));
#1210=DIRECTION('',(-1.,0.,0.));
#1211=DIRECTION('center_axis',(-1.,0.,0.));
#1212=DIRECTION('ref_axis',(0.,-0.707106781186548,-0.707106781186548));
#1213=DIRECTION('',(1.,0.,0.));
#1214=DIRECTION('center_axis',(0.,0.,1.));
#1215=DIRECTION('ref_axis',(1.,0.,0.));
#1216=DIRECTION('center_axis',(0.,-1.,0.));
#1217=DIRECTION('ref_axis',(-1.,0.,0.));
#1218=DIRECTION('center_axis',(0.,0.,1.));
#1219=DIRECTION('ref_axis',(0.707106781186548,0.707106781186548,0.));
#1220=DIRECTION('center_axis',(0.,0.,-1.));
#1221=DIRECTION('ref_axis',(0.707106781186548,0.707106781186548,0.));
#1222=DIRECTION('center_axis',(0.,-1.,0.));
#1223=DIRECTION('ref_axis',(-0.707106781186546,0.,-0.707106781186549));
#1224=DIRECTION('center_axis',(0.,1.,0.));
#1225=DIRECTION('ref_axis',(-0.707106781186546,0.,-0.707106781186549));
#1226=DIRECTION('',(0.,1.,0.));
#1227=DIRECTION('',(0.,-1.,0.));
#1228=DIRECTION('center_axis',(1.,0.,0.));
#1229=DIRECTION('ref_axis',(0.,1.,0.));
#1230=DIRECTION('',(0.,0.,-1.));
#1231=DIRECTION('',(0.,1.,0.));
#1232=DIRECTION('',(0.,0.,1.));
#1233=DIRECTION('center_axis',(0.,0.,1.));
#1234=DIRECTION('ref_axis',(0.707106781186546,0.707106781186549,0.));
#1235=DIRECTION('',(0.,0.,1.));
#1236=DIRECTION('center_axis',(0.,0.,-1.));
#1237=DIRECTION('ref_axis',(0.707106781186546,0.707106781186549,0.));
#1238=DIRECTION('center_axis',(0.,1.,0.));
#1239=DIRECTION('ref_axis',(-1.,0.,0.));
#1240=DIRECTION('',(0.,0.,-1.));
#1241=DIRECTION('',(-1.,0.,0.));
#1242=DIRECTION('center_axis',(0.,-1.,0.));
#1243=DIRECTION('ref_axis',(-0.707106781186546,0.,-0.707106781186549));
#1244=DIRECTION('center_axis',(0.,-1.,0.));
#1245=DIRECTION('ref_axis',(-0.707106781186546,0.,-0.707106781186549));
#1246=DIRECTION('',(0.,-1.,0.));
#1247=DIRECTION('center_axis',(0.,-1.,0.));
#1248=DIRECTION('ref_axis',(-1.,0.,0.));
#1249=DIRECTION('',(0.,1.,0.));
#1250=DIRECTION('center_axis',(0.,0.,1.));
#1251=DIRECTION('ref_axis',(1.,0.,0.));
#1252=DIRECTION('center_axis',(-1.,0.,0.));
#1253=DIRECTION('ref_axis',(0.,1.,0.));
#1254=DIRECTION('center_axis',(0.,0.,1.));
#1255=DIRECTION('ref_axis',(0.707106781186548,-0.707106781186548,0.));
#1256=DIRECTION('center_axis',(0.,0.,-1.));
#1257=DIRECTION('ref_axis',(0.707106781186548,-0.707106781186548,0.));
#1258=DIRECTION('center_axis',(-1.,0.,0.));
#1259=DIRECTION('ref_axis',(0.,0.707106781186548,-0.707106781186548));
#1260=DIRECTION('center_axis',(-1.,0.,0.));
#1261=DIRECTION('ref_axis',(0.,0.707106781186548,-0.707106781186548));
#1262=DIRECTION('',(1.,0.,0.));
#1263=DIRECTION('',(-1.,0.,0.));
#1264=DIRECTION('center_axis',(0.,-1.,0.));
#1265=DIRECTION('ref_axis',(1.,0.,0.));
#1266=DIRECTION('',(0.,0.,-1.));
#1267=DIRECTION('',(1.,0.,0.));
#1268=DIRECTION('',(0.,0.,1.));
#1269=DIRECTION('center_axis',(0.,0.,1.));
#1270=DIRECTION('ref_axis',(0.707106781186546,-0.707106781186549,0.));
#1271=DIRECTION('',(0.,0.,1.));
#1272=DIRECTION('center_axis',(0.,0.,-1.));
#1273=DIRECTION('ref_axis',(0.707106781186546,-0.707106781186549,0.));
#1274=DIRECTION('center_axis',(1.,0.,0.));
#1275=DIRECTION('ref_axis',(0.,1.,0.));
#1276=DIRECTION('',(0.,0.,1.));
#1277=DIRECTION('',(0.,1.,0.));
#1278=DIRECTION('center_axis',(0.,-1.,0.));
#1279=DIRECTION('ref_axis',(1.,0.,0.));
#1280=DIRECTION('',(-1.,0.,0.));
#1281=DIRECTION('center_axis',(0.,-1.,0.));
#1282=DIRECTION('ref_axis',(0.707106781186546,0.,-0.707106781186549));
#1283=DIRECTION('',(0.,0.,1.));
#1284=DIRECTION('',(1.,0.,0.));
#1285=DIRECTION('center_axis',(-1.,0.,0.));
#1286=DIRECTION('ref_axis',(0.,0.707106781186548,-0.707106781186548));
#1287=DIRECTION('center_axis',(-1.,0.,0.));
#1288=DIRECTION('ref_axis',(0.,1.,0.));
#1289=DIRECTION('',(1.,0.,0.));
#1290=DIRECTION('center_axis',(1.,0.,0.));
#1291=DIRECTION('ref_axis',(0.,0.707106781186548,-0.707106781186548));
#1292=DIRECTION('',(-1.,0.,0.));
#1293=DIRECTION('center_axis',(0.,0.,1.));
#1294=DIRECTION('ref_axis',(1.,0.,0.));
#1295=DIRECTION('center_axis',(0.,1.,0.));
#1296=DIRECTION('ref_axis',(1.,0.,0.));
#1297=DIRECTION('center_axis',(0.,0.,1.));
#1298=DIRECTION('ref_axis',(-0.707106781186548,-0.707106781186548,0.));
#1299=DIRECTION('center_axis',(0.,0.,-1.));
#1300=DIRECTION('ref_axis',(-0.707106781186548,-0.707106781186548,0.));
#1301=DIRECTION('center_axis',(0.,1.,0.));
#1302=DIRECTION('ref_axis',(0.707106781186546,0.,-0.707106781186549));
#1303=DIRECTION('',(0.,-1.,0.));
#1304=DIRECTION('',(0.,1.,0.));
#1305=DIRECTION('center_axis',(-1.,0.,0.));
#1306=DIRECTION('ref_axis',(0.,-1.,0.));
#1307=DIRECTION('',(0.,0.,-1.));
#1308=DIRECTION('',(0.,-1.,0.));
#1309=DIRECTION('center_axis',(0.,0.,1.));
#1310=DIRECTION('ref_axis',(-0.707106781186546,-0.707106781186549,0.));
#1311=DIRECTION('',(0.,0.,1.));
#1312=DIRECTION('center_axis',(0.,0.,-1.));
#1313=DIRECTION('ref_axis',(-0.707106781186546,-0.707106781186549,0.));
#1314=DIRECTION('center_axis',(0.,-1.,0.));
#1315=DIRECTION('ref_axis',(1.,0.,0.));
#1316=DIRECTION('',(0.,0.,-1.));
#1317=DIRECTION('',(1.,0.,0.));
#1318=DIRECTION('center_axis',(0.,1.,0.));
#1319=DIRECTION('ref_axis',(0.707106781186546,0.,-0.707106781186549));
#1320=DIRECTION('center_axis',(0.,1.,0.));
#1321=DIRECTION('ref_axis',(0.707106781186546,0.,-0.707106781186549));
#1322=DIRECTION('',(0.,1.,0.));
#1323=DIRECTION('center_axis',(0.,1.,0.));
#1324=DIRECTION('ref_axis',(1.,0.,0.));
#1325=DIRECTION('',(0.,-1.,0.));
#1326=DIRECTION('center_axis',(0.,0.,1.));
#1327=DIRECTION('ref_axis',(1.,0.,0.));
#1328=DIRECTION('center_axis',(1.,0.,0.));
#1329=DIRECTION('ref_axis',(0.,-1.,0.));
#1330=DIRECTION('center_axis',(0.,0.,1.));
#1331=DIRECTION('ref_axis',(-0.707106781186548,0.707106781186548,0.));
#1332=DIRECTION('center_axis',(0.,0.,-1.));
#1333=DIRECTION('ref_axis',(-0.707106781186548,0.707106781186548,0.));
#1334=DIRECTION('center_axis',(1.,0.,0.));
#1335=DIRECTION('ref_axis',(0.,-0.707106781186548,-0.707106781186548));
#1336=DIRECTION('center_axis',(1.,0.,0.));
#1337=DIRECTION('ref_axis',(0.,-0.707106781186548,-0.707106781186548));
#1338=DIRECTION('',(-1.,0.,0.));
#1339=DIRECTION('',(1.,0.,0.));
#1340=DIRECTION('center_axis',(0.,1.,0.));
#1341=DIRECTION('ref_axis',(-1.,0.,0.));
#1342=DIRECTION('',(0.,0.,-1.));
#1343=DIRECTION('',(-1.,0.,0.));
#1344=DIRECTION('',(0.,0.,1.));
#1345=DIRECTION('center_axis',(0.,0.,1.));
#1346=DIRECTION('ref_axis',(-0.707106781186546,0.707106781186549,0.));
#1347=DIRECTION('',(0.,0.,1.));
#1348=DIRECTION('center_axis',(0.,0.,-1.));
#1349=DIRECTION('ref_axis',(-0.707106781186546,0.707106781186549,0.));
#1350=DIRECTION('center_axis',(-1.,0.,0.));
#1351=DIRECTION('ref_axis',(0.,-1.,0.));
#1352=DIRECTION('',(0.,0.,1.));
#1353=DIRECTION('',(0.,-1.,0.));
#1354=DIRECTION('center_axis',(0.,1.,0.));
#1355=DIRECTION('ref_axis',(0.707106781186547,0.,-0.707106781186548));
#1356=DIRECTION('center_axis',(0.,1.,0.));
#1357=DIRECTION('ref_axis',(0.707106781186547,0.,-0.707106781186548));
#1358=DIRECTION('',(0.,-1.,0.));
#1359=DIRECTION('center_axis',(0.,-1.,0.));
#1360=DIRECTION('ref_axis',(0.707106781186547,0.,-0.707106781186548));
#1361=DIRECTION('',(0.,1.,0.));
#1362=DIRECTION('center_axis',(0.,0.,1.));
#1363=DIRECTION('ref_axis',(1.,0.,0.));
#1364=DIRECTION('',(1.,0.,0.));
#1365=DIRECTION('',(0.,1.,0.));
#1366=DIRECTION('',(-1.,0.,0.));
#1367=DIRECTION('',(1.,0.,0.));
#1368=DIRECTION('',(0.,-1.,0.));
#1369=DIRECTION('',(0.,1.,0.));
#1370=DIRECTION('center_axis',(0.,-1.,0.));
#1371=DIRECTION('ref_axis',(-0.707106781186549,0.,0.707106781186546));
#1372=DIRECTION('center_axis',(0.,1.,0.));
#1373=DIRECTION('ref_axis',(-0.707106781186549,0.,0.707106781186546));
#1374=DIRECTION('',(0.,1.,0.));
#1375=DIRECTION('center_axis',(0.,-1.,0.));
#1376=DIRECTION('ref_axis',(-0.707106781186549,0.,0.707106781186546));
#1377=DIRECTION('',(0.,-1.,0.));
#1378=DIRECTION('center_axis',(0.,0.,1.));
#1379=DIRECTION('ref_axis',(1.,0.,0.));
#1380=DIRECTION('',(1.,0.,0.));
#1381=DIRECTION('center_axis',(0.,0.,-1.));
#1382=DIRECTION('ref_axis',(0.707106781186546,-0.707106781186549,0.));
#1383=DIRECTION('',(0.,1.,0.));
#1384=DIRECTION('',(-1.,0.,0.));
#1385=DIRECTION('center_axis',(0.,0.,-1.));
#1386=DIRECTION('ref_axis',(-1.,0.,0.));
#1387=DIRECTION('center_axis',(0.,-1.,0.));
#1388=DIRECTION('ref_axis',(1.,0.,0.));
#1389=DIRECTION('',(0.,0.,-1.));
#1390=DIRECTION('center_axis',(0.,-1.,0.));
#1391=DIRECTION('ref_axis',(-0.707106781186547,0.,-0.707106781186548));
#1392=DIRECTION('',(0.,0.,1.));
#1393=DIRECTION('center_axis',(0.,1.,0.));
#1394=DIRECTION('ref_axis',(0.707106781186546,0.,0.707106781186549));
#1395=DIRECTION('',(1.,0.,0.));
#1396=DIRECTION('',(0.,0.,1.));
#1397=DIRECTION('',(1.,0.,0.));
#1398=DIRECTION('',(0.,0.,-1.));
#1399=DIRECTION('center_axis',(0.,1.,0.));
#1400=DIRECTION('ref_axis',(0.707106781186546,0.,0.707106781186549));
#1401=DIRECTION('center_axis',(0.,-1.,0.));
#1402=DIRECTION('ref_axis',(0.707106781186546,0.,0.707106781186549));
#1403=DIRECTION('',(0.,-1.,0.));
#1404=DIRECTION('',(0.,1.,0.));
#1405=DIRECTION('center_axis',(0.,0.,1.));
#1406=DIRECTION('ref_axis',(1.,0.,0.));
#1407=DIRECTION('',(-1.,0.,0.));
#1408=DIRECTION('',(8.88178419700125E-16,-1.,0.));
#1409=DIRECTION('center_axis',(0.,0.,-1.));
#1410=DIRECTION('ref_axis',(-0.707106781186546,-0.707106781186549,0.));
#1411=DIRECTION('center_axis',(0.,0.,-1.));
#1412=DIRECTION('ref_axis',(-1.,0.,0.));
#1413=DIRECTION('center_axis',(0.,1.,0.));
#1414=DIRECTION('ref_axis',(-0.707106781186547,0.,-0.707106781186548));
#1415=DIRECTION('center_axis',(0.,1.,0.));
#1416=DIRECTION('ref_axis',(-0.707106781186547,0.,-0.707106781186548));
#1417=DIRECTION('',(0.,-1.,0.));
#1418=DIRECTION('center_axis',(-1.,0.,0.));
#1419=DIRECTION('ref_axis',(0.,0.,1.));
#1420=DIRECTION('',(0.,0.,-1.));
#1421=DIRECTION('center_axis',(0.,0.,1.));
#1422=DIRECTION('ref_axis',(-0.707106781186546,0.707106781186549,0.));
#1423=DIRECTION('center_axis',(0.,0.,-1.));
#1424=DIRECTION('ref_axis',(-0.707106781186546,0.707106781186549,0.));
#1425=DIRECTION('',(0.,0.,-1.));
#1426=DIRECTION('center_axis',(0.,0.,1.));
#1427=DIRECTION('ref_axis',(-0.707106781186546,0.707106781186549,0.));
#1428=DIRECTION('',(0.,0.,1.));
#1429=DIRECTION('center_axis',(0.,1.,0.));
#1430=DIRECTION('ref_axis',(-1.,0.,0.));
#1431=DIRECTION('',(-1.,0.,0.));
#1432=DIRECTION('',(0.,0.,1.));
#1433=DIRECTION('',(-1.,0.,0.));
#1434=DIRECTION('center_axis',(0.,0.,1.));
#1435=DIRECTION('ref_axis',(1.,0.,0.));
#1436=DIRECTION('',(8.88178419700125E-16,-1.,0.));
#1437=DIRECTION('',(0.,1.,0.));
#1438=DIRECTION('center_axis',(0.,0.,-1.));
#1439=DIRECTION('ref_axis',(0.707106781186546,0.707106781186549,0.));
#1440=DIRECTION('center_axis',(0.,0.,-1.));
#1441=DIRECTION('ref_axis',(-1.,0.,0.));
#1442=DIRECTION('center_axis',(0.,0.,-1.));
#1443=DIRECTION('ref_axis',(-1.,0.,0.));
#1444=DIRECTION('center_axis',(0.,0.,1.));
#1445=DIRECTION('ref_axis',(-0.707106781186546,-0.707106781186549,0.));
#1446=DIRECTION('',(0.,0.,-1.));
#1447=DIRECTION('center_axis',(0.,0.,1.));
#1448=DIRECTION('ref_axis',(-0.707106781186546,-0.707106781186549,0.));
#1449=DIRECTION('center_axis',(0.,0.,1.));
#1450=DIRECTION('ref_axis',(0.707106781186546,0.707106781186549,0.));
#1451=DIRECTION('',(0.,0.,-1.));
#1452=DIRECTION('center_axis',(0.,0.,1.));
#1453=DIRECTION('ref_axis',(0.707106781186546,0.707106781186549,0.));
#1454=DIRECTION('center_axis',(1.,0.,0.));
#1455=DIRECTION('ref_axis',(0.,1.,0.));
#1456=DIRECTION('',(0.,0.,1.));
#1457=DIRECTION('',(0.,1.,0.));
#1458=DIRECTION('center_axis',(0.,0.,1.));
#1459=DIRECTION('ref_axis',(0.707106781186546,-0.707106781186549,0.));
#1460=DIRECTION('center_axis',(0.,0.,1.));
#1461=DIRECTION('ref_axis',(0.707106781186546,-0.707106781186549,0.));
#1462=DIRECTION('center_axis',(1.,0.,0.));
#1463=DIRECTION('ref_axis',(0.,0.,-1.));
#1464=DIRECTION('',(0.,0.,1.));
#1465=DIRECTION('center_axis',(0.,1.,0.));
#1466=DIRECTION('ref_axis',(-1.,0.,0.));
#1467=DIRECTION('center_axis',(-1.,0.,0.));
#1468=DIRECTION('ref_axis',(0.,-1.,0.));
#1469=DIRECTION('',(0.,-1.,0.));
#1470=DIRECTION('center_axis',(0.,1.,0.));
#1471=DIRECTION('ref_axis',(-1.,0.,0.));
#1472=DIRECTION('center_axis',(0.,0.,1.));
#1473=DIRECTION('ref_axis',(-1.,0.,0.));
#1474=DIRECTION('',(0.,0.,-1.));
#1475=DIRECTION('center_axis',(0.,0.,-1.));
#1476=DIRECTION('ref_axis',(-1.,0.,0.));
#1477=DIRECTION('center_axis',(0.,0.,1.));
#1478=DIRECTION('ref_axis',(-1.,0.,0.));
#1479=DIRECTION('',(0.,0.,-1.));
#1480=DIRECTION('center_axis',(0.,0.,-1.));
#1481=DIRECTION('ref_axis',(-1.,0.,0.));
#1482=DIRECTION('center_axis',(0.,0.,1.));
#1483=DIRECTION('ref_axis',(-1.,0.,0.));
#1484=DIRECTION('',(0.,0.,-1.));
#1485=DIRECTION('center_axis',(0.,0.,-1.));
#1486=DIRECTION('ref_axis',(-1.,0.,0.));
#1487=DIRECTION('center_axis',(0.,0.,1.));
#1488=DIRECTION('ref_axis',(-1.,0.,0.));
#1489=DIRECTION('',(0.,0.,-1.));
#1490=DIRECTION('center_axis',(0.,0.,-1.));
#1491=DIRECTION('ref_axis',(-1.,0.,0.));
#1492=DIRECTION('center_axis',(0.,0.,1.));
#1493=DIRECTION('ref_axis',(1.,0.,0.));
#1494=CARTESIAN_POINT('',(0.,0.,0.));
#1495=CARTESIAN_POINT('Origin',(27.85,-9.35,2.));
#1496=CARTESIAN_POINT('',(26.1,-9.35,2.));
#1497=CARTESIAN_POINT('Origin',(27.85,-9.35,2.));
#1498=CARTESIAN_POINT('',(26.1,-9.35,0.));
#1499=CARTESIAN_POINT('',(26.1,-9.35,2.));
#1500=CARTESIAN_POINT('Origin',(27.85,-9.35,0.));
#1501=CARTESIAN_POINT('Origin',(27.85,9.35,2.));
#1502=CARTESIAN_POINT('',(26.1,9.35,2.));
#1503=CARTESIAN_POINT('Origin',(27.85,9.35,2.));
#1504=CARTESIAN_POINT('',(26.1,9.35,0.));
#1505=CARTESIAN_POINT('',(26.1,9.35,2.));
#1506=CARTESIAN_POINT('Origin',(27.85,9.35,0.));
#1507=CARTESIAN_POINT('Origin',(-27.85,-9.35,2.));
#1508=CARTESIAN_POINT('',(-29.6,-9.35,2.));
#1509=CARTESIAN_POINT('Origin',(-27.85,-9.35,2.));
#1510=CARTESIAN_POINT('',(-29.6,-9.35,0.));
#1511=CARTESIAN_POINT('',(-29.6,-9.35,2.));
#1512=CARTESIAN_POINT('Origin',(-27.85,-9.35,0.));
#1513=CARTESIAN_POINT('Origin',(-27.85,9.35,2.));
#1514=CARTESIAN_POINT('',(-29.6,9.35,2.));
#1515=CARTESIAN_POINT('Origin',(-27.85,9.35,2.));
#1516=CARTESIAN_POINT('',(-29.6,9.35,0.));
#1517=CARTESIAN_POINT('',(-29.6,9.35,2.));
#1518=CARTESIAN_POINT('Origin',(-27.85,9.35,0.));
#1519=CARTESIAN_POINT('Origin',(-17.5,-11.5,3.));
#1520=CARTESIAN_POINT('',(-36.,-12.5,3.));
#1521=CARTESIAN_POINT('',(-36.,-11.5,2.));
#1522=CARTESIAN_POINT('Origin',(-36.,-11.5,3.));
#1523=CARTESIAN_POINT('',(-40.,-11.5,2.));
#1524=CARTESIAN_POINT('',(-17.5,-11.5,2.));
#1525=CARTESIAN_POINT('',(-40.,-12.5,3.));
#1526=CARTESIAN_POINT('Origin',(-40.,-11.5,3.));
#1527=CARTESIAN_POINT('',(-17.5,-12.5,3.));
#1528=CARTESIAN_POINT('Origin',(-36.,-13.5,3.));
#1529=CARTESIAN_POINT('',(-35.,-13.5,3.));
#1530=CARTESIAN_POINT('',(-34.,-13.5,2.));
#1531=CARTESIAN_POINT('Origin',(-34.,-13.5,3.));
#1532=CARTESIAN_POINT('Origin',(-36.,-13.5,2.));
#1533=CARTESIAN_POINT('Origin',(-36.,-13.5,3.));
#1534=CARTESIAN_POINT('Origin',(-34.,-7.75,3.));
#1535=CARTESIAN_POINT('',(-34.,-15.5,2.));
#1536=CARTESIAN_POINT('',(-35.,-15.5,3.));
#1537=CARTESIAN_POINT('Origin',(-34.,-15.5,3.));
#1538=CARTESIAN_POINT('',(-34.,-7.75,2.));
#1539=CARTESIAN_POINT('',(-35.,-7.75,3.));
#1540=CARTESIAN_POINT('Origin',(-35.,-15.5,2.));
#1541=CARTESIAN_POINT('',(-35.,-13.5,22.));
#1542=CARTESIAN_POINT('',(-35.,-13.5,2.));
#1543=CARTESIAN_POINT('',(-35.,-15.5,22.));
#1544=CARTESIAN_POINT('',(-35.,-17.5,22.));
#1545=CARTESIAN_POINT('',(-35.,-15.5,2.));
#1546=CARTESIAN_POINT('Origin',(-36.,-13.5,2.));
#1547=CARTESIAN_POINT('',(-36.,-12.5,22.));
#1548=CARTESIAN_POINT('',(-36.,-12.5,2.));
#1549=CARTESIAN_POINT('Origin',(-36.,-13.5,22.));
#1550=CARTESIAN_POINT('Origin',(-35.,-12.5,2.));
#1551=CARTESIAN_POINT('',(-40.,-12.5,22.));
#1552=CARTESIAN_POINT('',(-40.,-12.5,1.));
#1553=CARTESIAN_POINT('',(-35.,-12.5,22.));
#1554=CARTESIAN_POINT('Origin',(-34.,6.25,3.));
#1555=CARTESIAN_POINT('',(-35.,15.5,3.));
#1556=CARTESIAN_POINT('',(-34.,15.5,2.));
#1557=CARTESIAN_POINT('Origin',(-34.,15.5,3.));
#1558=CARTESIAN_POINT('',(-35.,13.5,3.));
#1559=CARTESIAN_POINT('',(-35.,6.25,3.));
#1560=CARTESIAN_POINT('',(-34.,13.5,2.));
#1561=CARTESIAN_POINT('Origin',(-34.,13.5,3.));
#1562=CARTESIAN_POINT('',(-34.,6.25,2.));
#1563=CARTESIAN_POINT('Origin',(-36.,13.5,3.));
#1564=CARTESIAN_POINT('',(-36.,12.5,3.));
#1565=CARTESIAN_POINT('',(-36.,11.5,2.));
#1566=CARTESIAN_POINT('Origin',(-36.,11.5,3.));
#1567=CARTESIAN_POINT('Origin',(-36.,13.5,2.));
#1568=CARTESIAN_POINT('Origin',(-36.,13.5,3.));
#1569=CARTESIAN_POINT('Origin',(-19.,11.5,3.));
#1570=CARTESIAN_POINT('',(-40.,12.5,3.));
#1571=CARTESIAN_POINT('',(-40.,11.5,2.));
#1572=CARTESIAN_POINT('Origin',(-40.,11.5,3.));
#1573=CARTESIAN_POINT('',(-19.,11.5,2.));
#1574=CARTESIAN_POINT('',(-19.,12.5,3.));
#1575=CARTESIAN_POINT('Origin',(-38.,12.5,2.));
#1576=CARTESIAN_POINT('',(-36.,12.5,22.));
#1577=CARTESIAN_POINT('',(-36.,12.5,2.));
#1578=CARTESIAN_POINT('',(-40.,12.5,22.));
#1579=CARTESIAN_POINT('',(20.,12.5,22.));
#1580=CARTESIAN_POINT('',(-40.,12.5,11.));
#1581=CARTESIAN_POINT('Origin',(-36.,13.5,2.));
#1582=CARTESIAN_POINT('',(-35.,13.5,22.));
#1583=CARTESIAN_POINT('',(-35.,13.5,2.));
#1584=CARTESIAN_POINT('Origin',(-36.,13.5,22.));
#1585=CARTESIAN_POINT('Origin',(-35.,12.5,2.));
#1586=CARTESIAN_POINT('',(-35.,15.5,22.));
#1587=CARTESIAN_POINT('',(-35.,15.5,2.));
#1588=CARTESIAN_POINT('',(-35.,12.5,22.));
#1589=CARTESIAN_POINT('Origin',(-35.,15.5,2.));
#1590=CARTESIAN_POINT('',(34.,15.5,2.));
#1591=CARTESIAN_POINT('',(-17.5,15.5,2.));
#1592=CARTESIAN_POINT('',(35.,15.5,3.));
#1593=CARTESIAN_POINT('Origin',(34.,15.5,3.));
#1594=CARTESIAN_POINT('',(35.,15.5,22.));
#1595=CARTESIAN_POINT('',(35.,15.5,2.));
#1596=CARTESIAN_POINT('',(-35.,15.5,22.));
#1597=CARTESIAN_POINT('Origin',(17.5,11.5,3.));
#1598=CARTESIAN_POINT('',(36.,12.5,3.));
#1599=CARTESIAN_POINT('',(36.,11.5,2.));
#1600=CARTESIAN_POINT('Origin',(36.,11.5,3.));
#1601=CARTESIAN_POINT('',(40.,11.5,2.));
#1602=CARTESIAN_POINT('',(17.5,11.5,2.));
#1603=CARTESIAN_POINT('',(40.,12.5,3.));
#1604=CARTESIAN_POINT('Origin',(40.,11.5,3.));
#1605=CARTESIAN_POINT('',(17.5,12.5,3.));
#1606=CARTESIAN_POINT('Origin',(36.,13.5,3.));
#1607=CARTESIAN_POINT('',(35.,13.5,3.));
#1608=CARTESIAN_POINT('',(34.,13.5,2.));
#1609=CARTESIAN_POINT('Origin',(34.,13.5,3.));
#1610=CARTESIAN_POINT('Origin',(36.,13.5,2.));
#1611=CARTESIAN_POINT('Origin',(36.,13.5,3.));
#1612=CARTESIAN_POINT('Origin',(34.,7.75,3.));
#1613=CARTESIAN_POINT('',(34.,7.75,2.));
#1614=CARTESIAN_POINT('',(35.,7.75,3.));
#1615=CARTESIAN_POINT('Origin',(35.,15.5,2.));
#1616=CARTESIAN_POINT('',(35.,13.5,22.));
#1617=CARTESIAN_POINT('',(35.,13.5,2.));
#1618=CARTESIAN_POINT('',(35.,17.5,22.));
#1619=CARTESIAN_POINT('Origin',(36.,13.5,2.));
#1620=CARTESIAN_POINT('',(36.,12.5,22.));
#1621=CARTESIAN_POINT('',(36.,12.5,2.));
#1622=CARTESIAN_POINT('Origin',(36.,13.5,22.));
#1623=CARTESIAN_POINT('Origin',(35.,12.5,2.));
#1624=CARTESIAN_POINT('',(40.,12.5,22.));
#1625=CARTESIAN_POINT('',(40.,12.5,11.));
#1626=CARTESIAN_POINT('',(35.,12.5,22.));
#1627=CARTESIAN_POINT('Origin',(34.,-6.25,3.));
#1628=CARTESIAN_POINT('',(35.,-15.5,3.));
#1629=CARTESIAN_POINT('',(34.,-15.5,2.));
#1630=CARTESIAN_POINT('Origin',(34.,-15.5,3.));
#1631=CARTESIAN_POINT('',(35.,-13.5,3.));
#1632=CARTESIAN_POINT('',(35.,-6.25,3.));
#1633=CARTESIAN_POINT('',(34.,-13.5,2.));
#1634=CARTESIAN_POINT('Origin',(34.,-13.5,3.));
#1635=CARTESIAN_POINT('',(34.,-6.25,2.));
#1636=CARTESIAN_POINT('Origin',(36.,-13.5,3.));
#1637=CARTESIAN_POINT('',(36.,-12.5,3.));
#1638=CARTESIAN_POINT('',(36.,-11.5,2.));
#1639=CARTESIAN_POINT('Origin',(36.,-11.5,3.));
#1640=CARTESIAN_POINT('Origin',(36.,-13.5,2.));
#1641=CARTESIAN_POINT('Origin',(36.,-13.5,3.));
#1642=CARTESIAN_POINT('Origin',(19.,-11.5,3.));
#1643=CARTESIAN_POINT('',(40.,-12.5,3.));
#1644=CARTESIAN_POINT('',(40.,-11.5,2.));
#1645=CARTESIAN_POINT('Origin',(40.,-11.5,3.));
#1646=CARTESIAN_POINT('',(19.,-11.5,2.));
#1647=CARTESIAN_POINT('',(19.,-12.5,3.));
#1648=CARTESIAN_POINT('Origin',(38.,-12.5,2.));
#1649=CARTESIAN_POINT('',(36.,-12.5,22.));
#1650=CARTESIAN_POINT('',(36.,-12.5,2.));
#1651=CARTESIAN_POINT('',(40.,-12.5,22.));
#1652=CARTESIAN_POINT('',(20.,-12.5,22.));
#1653=CARTESIAN_POINT('',(40.,-12.5,1.));
#1654=CARTESIAN_POINT('Origin',(36.,-13.5,2.));
#1655=CARTESIAN_POINT('',(35.,-13.5,22.));
#1656=CARTESIAN_POINT('',(35.,-13.5,2.));
#1657=CARTESIAN_POINT('Origin',(36.,-13.5,22.));
#1658=CARTESIAN_POINT('Origin',(35.,-12.5,2.));
#1659=CARTESIAN_POINT('',(35.,-15.5,22.));
#1660=CARTESIAN_POINT('',(35.,-15.5,2.));
#1661=CARTESIAN_POINT('',(35.,-12.5,22.));
#1662=CARTESIAN_POINT('Origin',(9.,-8.75,3.));
#1663=CARTESIAN_POINT('',(10.,-15.5,3.));
#1664=CARTESIAN_POINT('',(9.,-15.5,2.));
#1665=CARTESIAN_POINT('Origin',(9.,-15.5,3.));
#1666=CARTESIAN_POINT('',(9.,-17.5,2.));
#1667=CARTESIAN_POINT('',(9.,-8.75,2.));
#1668=CARTESIAN_POINT('',(10.,-17.5,3.));
#1669=CARTESIAN_POINT('Origin',(9.,-17.5,3.));
#1670=CARTESIAN_POINT('',(10.,-8.75,3.));
#1671=CARTESIAN_POINT('Origin',(0.,0.,2.));
#1672=CARTESIAN_POINT('',(-9.,-15.5,2.));
#1673=CARTESIAN_POINT('',(17.5,-15.5,2.));
#1674=CARTESIAN_POINT('',(-9.,-17.5,2.));
#1675=CARTESIAN_POINT('',(-9.,-8.75,2.));
#1676=CARTESIAN_POINT('',(-15.,-17.5,2.));
#1677=CARTESIAN_POINT('',(17.5,-15.5,2.));
#1678=CARTESIAN_POINT('',(40.,-2.5,2.));
#1679=CARTESIAN_POINT('',(-40.,15.,2.));
#1680=CARTESIAN_POINT('Origin',(11.,-8.75,21.));
#1681=CARTESIAN_POINT('',(10.,-17.5,21.));
#1682=CARTESIAN_POINT('',(11.,-17.5,22.));
#1683=CARTESIAN_POINT('Origin',(11.,-17.5,21.));
#1684=CARTESIAN_POINT('',(11.,-15.5,22.));
#1685=CARTESIAN_POINT('',(11.,-8.75,22.));
#1686=CARTESIAN_POINT('',(10.,-15.5,21.));
#1687=CARTESIAN_POINT('Origin',(11.,-15.5,21.));
#1688=CARTESIAN_POINT('',(10.,-8.75,21.));
#1689=CARTESIAN_POINT('Origin',(0.,0.,22.));
#1690=CARTESIAN_POINT('',(39.,-17.5,22.));
#1691=CARTESIAN_POINT('',(-40.,-17.5,22.));
#1692=CARTESIAN_POINT('',(40.,-16.5,22.));
#1693=CARTESIAN_POINT('Origin',(39.,-16.5,22.));
#1694=CARTESIAN_POINT('',(40.,-17.5,22.));
#1695=CARTESIAN_POINT('',(35.,-15.5,22.));
#1696=CARTESIAN_POINT('',(39.5,-15.,22.));
#1697=CARTESIAN_POINT('Origin',(37.5,-15.,22.));
#1698=CARTESIAN_POINT('Origin',(-40.,-17.5,0.));
#1699=CARTESIAN_POINT('',(10.,-17.5,11.));
#1700=CARTESIAN_POINT('',(-10.,-17.5,3.));
#1701=CARTESIAN_POINT('Origin',(-9.,-17.5,3.));
#1702=CARTESIAN_POINT('',(-10.,-17.5,21.));
#1703=CARTESIAN_POINT('',(-10.,-17.5,0.999999999999999));
#1704=CARTESIAN_POINT('',(-11.,-17.5,22.));
#1705=CARTESIAN_POINT('Origin',(-11.,-17.5,21.));
#1706=CARTESIAN_POINT('',(-39.,-17.5,22.));
#1707=CARTESIAN_POINT('',(-40.,-17.5,22.));
#1708=CARTESIAN_POINT('',(-39.,-17.5,0.));
#1709=CARTESIAN_POINT('',(-39.,-17.5,0.));
#1710=CARTESIAN_POINT('',(39.,-17.5,0.));
#1711=CARTESIAN_POINT('',(-40.,-17.5,0.));
#1712=CARTESIAN_POINT('',(39.,-17.5,0.));
#1713=CARTESIAN_POINT('Origin',(-11.,-8.75,21.));
#1714=CARTESIAN_POINT('',(-10.,-15.5,21.));
#1715=CARTESIAN_POINT('',(-11.,-15.5,22.));
#1716=CARTESIAN_POINT('Origin',(-11.,-15.5,21.));
#1717=CARTESIAN_POINT('',(-11.,-8.75,22.));
#1718=CARTESIAN_POINT('',(-10.,-8.75,21.));
#1719=CARTESIAN_POINT('Origin',(0.,0.,22.));
#1720=CARTESIAN_POINT('',(35.,-15.5,22.));
#1721=CARTESIAN_POINT('',(-40.,-16.5,22.));
#1722=CARTESIAN_POINT('',(-40.,17.5,22.));
#1723=CARTESIAN_POINT('Origin',(-39.,-16.5,22.));
#1724=CARTESIAN_POINT('',(-35.5,-15.,22.));
#1725=CARTESIAN_POINT('Origin',(-37.5,-15.,22.));
#1726=CARTESIAN_POINT('Origin',(-9.,-8.75,3.));
#1727=CARTESIAN_POINT('',(-10.,-15.5,3.));
#1728=CARTESIAN_POINT('Origin',(-9.,-15.5,3.));
#1729=CARTESIAN_POINT('',(-10.,-8.75,3.));
#1730=CARTESIAN_POINT('Origin',(-10.,-17.5,2.));
#1731=CARTESIAN_POINT('',(-10.,-15.5,2.));
#1732=CARTESIAN_POINT('Origin',(-39.,16.5,0.));
#1733=CARTESIAN_POINT('',(-40.,16.5,22.));
#1734=CARTESIAN_POINT('',(-39.,17.5,22.));
#1735=CARTESIAN_POINT('Origin',(-39.,16.5,22.));
#1736=CARTESIAN_POINT('',(-39.,17.5,0.));
#1737=CARTESIAN_POINT('',(-39.,17.5,0.));
#1738=CARTESIAN_POINT('',(-40.,16.5,0.));
#1739=CARTESIAN_POINT('Origin',(-39.,16.5,0.));
#1740=CARTESIAN_POINT('',(-40.,16.5,0.));
#1741=CARTESIAN_POINT('Origin',(40.,17.5,0.));
#1742=CARTESIAN_POINT('',(39.,17.5,22.));
#1743=CARTESIAN_POINT('',(40.,17.5,22.));
#1744=CARTESIAN_POINT('',(39.,17.5,0.));
#1745=CARTESIAN_POINT('',(39.,17.5,0.));
#1746=CARTESIAN_POINT('',(40.,17.5,0.));
#1747=CARTESIAN_POINT('Origin',(0.,0.,22.));
#1748=CARTESIAN_POINT('',(-40.,17.5,22.));
#1749=CARTESIAN_POINT('',(40.,16.5,22.));
#1750=CARTESIAN_POINT('',(40.,-17.5,22.));
#1751=CARTESIAN_POINT('Origin',(39.,16.5,22.));
#1752=CARTESIAN_POINT('',(-35.5,15.,22.));
#1753=CARTESIAN_POINT('Origin',(-37.5,15.,22.));
#1754=CARTESIAN_POINT('',(39.5,15.,22.));
#1755=CARTESIAN_POINT('Origin',(37.5,15.,22.));
#1756=CARTESIAN_POINT('Origin',(-39.,-16.5,0.));
#1757=CARTESIAN_POINT('',(-40.,-16.5,0.));
#1758=CARTESIAN_POINT('',(-40.,-16.5,0.));
#1759=CARTESIAN_POINT('Origin',(-39.,-16.5,0.));
#1760=CARTESIAN_POINT('Origin',(39.,16.5,0.));
#1761=CARTESIAN_POINT('',(40.,16.5,0.));
#1762=CARTESIAN_POINT('',(40.,16.5,0.));
#1763=CARTESIAN_POINT('Origin',(39.,16.5,0.));
#1764=CARTESIAN_POINT('Origin',(40.,-17.5,0.));
#1765=CARTESIAN_POINT('',(40.,-16.5,0.));
#1766=CARTESIAN_POINT('',(40.,-16.5,0.));
#1767=CARTESIAN_POINT('',(40.,-17.5,0.));
#1768=CARTESIAN_POINT('Origin',(39.,-16.5,0.));
#1769=CARTESIAN_POINT('Origin',(39.,-16.5,0.));
#1770=CARTESIAN_POINT('Origin',(10.,-17.5,22.));
#1771=CARTESIAN_POINT('',(10.,-15.5,12.));
#1772=CARTESIAN_POINT('Origin',(35.,-15.5,2.));
#1773=CARTESIAN_POINT('Origin',(-40.,17.5,0.));
#1774=CARTESIAN_POINT('',(-40.,17.5,0.));
#1775=CARTESIAN_POINT('Origin',(35.,-15.5,2.));
#1776=CARTESIAN_POINT('Origin',(-37.5,-15.,0.));
#1777=CARTESIAN_POINT('',(-35.5,-15.,0.));
#1778=CARTESIAN_POINT('',(-35.5,-15.,0.));
#1779=CARTESIAN_POINT('Origin',(-37.5,-15.,0.));
#1780=CARTESIAN_POINT('Origin',(-37.5,15.,0.));
#1781=CARTESIAN_POINT('',(-35.5,15.,0.));
#1782=CARTESIAN_POINT('',(-35.5,15.,0.));
#1783=CARTESIAN_POINT('Origin',(-37.5,15.,0.));
#1784=CARTESIAN_POINT('Origin',(37.5,15.,0.));
#1785=CARTESIAN_POINT('',(39.5,15.,0.));
#1786=CARTESIAN_POINT('',(39.5,15.,0.));
#1787=CARTESIAN_POINT('Origin',(37.5,15.,0.));
#1788=CARTESIAN_POINT('Origin',(37.5,-15.,0.));
#1789=CARTESIAN_POINT('',(39.5,-15.,0.));
#1790=CARTESIAN_POINT('',(39.5,-15.,0.));
#1791=CARTESIAN_POINT('Origin',(37.5,-15.,0.));
#1792=CARTESIAN_POINT('Origin',(0.,0.,0.));
#1793=UNCERTAINTY_MEASURE_WITH_UNIT(LENGTH_MEASURE(0.01),#1797,
'DISTANCE_ACCURACY_VALUE',
'Maximum model space distance between geometric entities at asserted c
onnectivities');
#1794=UNCERTAINTY_MEASURE_WITH_UNIT(LENGTH_MEASURE(0.01),#1797,
'DISTANCE_ACCURACY_VALUE',
'Maximum model space distance between geometric entities at asserted c
onnectivities');
#1795=(
GEOMETRIC_REPRESENTATION_CONTEXT(3)
GLOBAL_UNCERTAINTY_ASSIGNED_CONTEXT((#1793))
GLOBAL_UNIT_ASSIGNED_CONTEXT((#1797,#1799,#1800))
REPRESENTATION_CONTEXT('','3D')
);
#1796=(
GEOMETRIC_REPRESENTATION_CONTEXT(3)
GLOBAL_UNCERTAINTY_ASSIGNED_CONTEXT((#1794))
GLOBAL_UNIT_ASSIGNED_CONTEXT((#1797,#1799,#1800))
REPRESENTATION_CONTEXT('','3D')
);
#1797=(
LENGTH_UNIT()
NAMED_UNIT(*)
SI_UNIT(.MILLI.,.METRE.)
);
#1798=(
LENGTH_UNIT()
NAMED_UNIT(*)
SI_UNIT(.CENTI.,.METRE.)
);
#1799=(
NAMED_UNIT(*)
PLANE_ANGLE_UNIT()
SI_UNIT($,.RADIAN.)
);
#1800=(
NAMED_UNIT(*)
SI_UNIT($,.STERADIAN.)
SOLID_ANGLE_UNIT()
);
#1801=SHAPE_DEFINITION_REPRESENTATION(#1802,#1803);
#1802=PRODUCT_DEFINITION_SHAPE('',$,#1805);
#1803=SHAPE_REPRESENTATION('',(#1061),#1795);
#1804=PRODUCT_DEFINITION_CONTEXT('part definition',#1809,'design');
#1805=PRODUCT_DEFINITION('box_driver','box_driver',#1806,#1804);
#1806=PRODUCT_DEFINITION_FORMATION('',$,#1811);
#1807=PRODUCT_RELATED_PRODUCT_CATEGORY('box_driver','box_driver',(#1811));
#1808=APPLICATION_PROTOCOL_DEFINITION('international standard',
'automotive_design',2009,#1809);
#1809=APPLICATION_CONTEXT(
'Core Data for Automotive Mechanical Design Process');
#1810=PRODUCT_CONTEXT('part definition',#1809,'mechanical');
#1811=PRODUCT('box_driver','box_driver',$,(#1810));
#1812=PRESENTATION_STYLE_ASSIGNMENT((#1813));
#1813=SURFACE_STYLE_USAGE(.BOTH.,#1816);
#1814=SURFACE_STYLE_RENDERING_WITH_PROPERTIES($,#1820,(#1815));
#1815=SURFACE_STYLE_TRANSPARENT(0.);
#1816=SURFACE_SIDE_STYLE('',(#1817,#1814));
#1817=SURFACE_STYLE_FILL_AREA(#1818);
#1818=FILL_AREA_STYLE('',(#1819));
#1819=FILL_AREA_STYLE_COLOUR('',#1820);
#1820=COLOUR_RGB('',0.749019607843137,0.749019607843137,0.749019607843137);
ENDSEC;
END-ISO-10303-21;
