ISO-10303-21;
HEADER;
/* Generated by software containing ST-Developer
 * from STEP Tools, Inc. (www.steptools.com) 
 */

FILE_DESCRIPTION(
/* description */ (''),
/* implementation_level */ '2;1');

FILE_NAME(
/* name */ 'C:\\Users\\Artem\\Downloads\\box_vb_dc_ver2.stp',
/* time_stamp */ '2026-05-30T12:52:42+03:00',
/* author */ ('\X2\0410044004420451043C\X0\'),
/* organization */ (''),
/* preprocessor_version */ 'ST-DEVELOPER v18.1',
/* originating_system */ 'Autodesk Inventor 2022',
/* authorisation */ '');

FILE_SCHEMA (('AUTOMOTIVE_DESIGN { 1 0 10303 214 3 1 1 }'));
ENDSEC;

DATA;
#10=MECHANICAL_DESIGN_GEOMETRIC_PRESENTATION_REPRESENTATION('',(#16),#1402);
#11=GEOMETRICALLY_BOUNDED_WIREFRAME_SHAPE_REPRESENTATION('',(#12),#1401);
#12=GEOMETRIC_CURVE_SET('\X2\042D0441043A04380437\X0\3',(#1398));
#13=SHAPE_REPRESENTATION_RELATIONSHIP('SRR','None',#1409,#15);
#14=SHAPE_REPRESENTATION_RELATIONSHIP('SRR','None',#1409,#11);
#15=ADVANCED_BREP_SHAPE_REPRESENTATION('',(#17),#1401);
#16=STYLED_ITEM('',(#1418),#17);
#17=MANIFOLD_SOLID_BREP('\X2\04220432043504400434043E0435\X0\ \X2\04420435043B043E\X0\1',
#836);
#18=FACE_BOUND('',#108,.T.);
#19=FACE_BOUND('',#109,.T.);
#20=FACE_BOUND('',#110,.T.);
#21=FACE_BOUND('',#111,.T.);
#22=FACE_BOUND('',#112,.T.);
#23=FACE_BOUND('',#113,.T.);
#24=FACE_BOUND('',#114,.T.);
#25=FACE_BOUND('',#115,.T.);
#26=FACE_BOUND('',#119,.T.);
#27=FACE_BOUND('',#120,.T.);
#28=FACE_BOUND('',#121,.T.);
#29=FACE_BOUND('',#124,.T.);
#30=FACE_BOUND('',#156,.T.);
#31=FACE_BOUND('',#157,.T.);
#32=FACE_BOUND('',#158,.T.);
#33=FACE_BOUND('',#159,.T.);
#34=FACE_BOUND('',#160,.T.);
#35=FACE_BOUND('',#161,.T.);
#36=FACE_BOUND('',#162,.T.);
#37=FACE_BOUND('',#163,.T.);
#38=FACE_BOUND('',#164,.T.);
#39=FACE_BOUND('',#165,.T.);
#40=FACE_BOUND('',#166,.T.);
#41=FACE_BOUND('',#167,.T.);
#42=PLANE('',#862);
#43=PLANE('',#866);
#44=PLANE('',#879);
#45=PLANE('',#880);
#46=PLANE('',#881);
#47=PLANE('',#888);
#48=PLANE('',#889);
#49=PLANE('',#909);
#50=PLANE('',#911);
#51=PLANE('',#913);
#52=PLANE('',#915);
#53=PLANE('',#916);
#54=PLANE('',#917);
#55=PLANE('',#918);
#56=PLANE('',#925);
#57=PLANE('',#926);
#58=PLANE('',#927);
#59=PLANE('',#928);
#60=PLANE('',#931);
#61=PLANE('',#932);
#62=PLANE('',#933);
#63=PLANE('',#934);
#64=FACE_OUTER_BOUND('',#104,.T.);
#65=FACE_OUTER_BOUND('',#105,.T.);
#66=FACE_OUTER_BOUND('',#106,.T.);
#67=FACE_OUTER_BOUND('',#107,.T.);
#68=FACE_OUTER_BOUND('',#116,.T.);
#69=FACE_OUTER_BOUND('',#117,.T.);
#70=FACE_OUTER_BOUND('',#118,.T.);
#71=FACE_OUTER_BOUND('',#122,.T.);
#72=FACE_OUTER_BOUND('',#123,.T.);
#73=FACE_OUTER_BOUND('',#125,.T.);
#74=FACE_OUTER_BOUND('',#126,.T.);
#75=FACE_OUTER_BOUND('',#127,.T.);
#76=FACE_OUTER_BOUND('',#128,.T.);
#77=FACE_OUTER_BOUND('',#129,.T.);
#78=FACE_OUTER_BOUND('',#130,.T.);
#79=FACE_OUTER_BOUND('',#131,.T.);
#80=FACE_OUTER_BOUND('',#132,.T.);
#81=FACE_OUTER_BOUND('',#133,.T.);
#82=FACE_OUTER_BOUND('',#134,.T.);
#83=FACE_OUTER_BOUND('',#135,.T.);
#84=FACE_OUTER_BOUND('',#136,.T.);
#85=FACE_OUTER_BOUND('',#137,.T.);
#86=FACE_OUTER_BOUND('',#138,.T.);
#87=FACE_OUTER_BOUND('',#139,.T.);
#88=FACE_OUTER_BOUND('',#140,.T.);
#89=FACE_OUTER_BOUND('',#141,.T.);
#90=FACE_OUTER_BOUND('',#142,.T.);
#91=FACE_OUTER_BOUND('',#143,.T.);
#92=FACE_OUTER_BOUND('',#144,.T.);
#93=FACE_OUTER_BOUND('',#145,.T.);
#94=FACE_OUTER_BOUND('',#146,.T.);
#95=FACE_OUTER_BOUND('',#147,.T.);
#96=FACE_OUTER_BOUND('',#148,.T.);
#97=FACE_OUTER_BOUND('',#149,.T.);
#98=FACE_OUTER_BOUND('',#150,.T.);
#99=FACE_OUTER_BOUND('',#151,.T.);
#100=FACE_OUTER_BOUND('',#152,.T.);
#101=FACE_OUTER_BOUND('',#153,.T.);
#102=FACE_OUTER_BOUND('',#154,.T.);
#103=FACE_OUTER_BOUND('',#155,.T.);
#104=EDGE_LOOP('',(#550,#551,#552,#553));
#105=EDGE_LOOP('',(#554,#555,#556,#557));
#106=EDGE_LOOP('',(#558,#559,#560,#561));
#107=EDGE_LOOP('',(#562,#563,#564,#565,#566,#567,#568,#569,#570,#571,#572,
#573,#574,#575,#576,#577,#578,#579,#580,#581));
#108=EDGE_LOOP('',(#582));
#109=EDGE_LOOP('',(#583));
#110=EDGE_LOOP('',(#584));
#111=EDGE_LOOP('',(#585));
#112=EDGE_LOOP('',(#586));
#113=EDGE_LOOP('',(#587));
#114=EDGE_LOOP('',(#588));
#115=EDGE_LOOP('',(#589));
#116=EDGE_LOOP('',(#590,#591,#592,#593));
#117=EDGE_LOOP('',(#594,#595,#596,#597,#598,#599,#600,#601,#602,#603));
#118=EDGE_LOOP('',(#604,#605,#606,#607,#608,#609,#610,#611,#612,#613,#614,
#615,#616,#617,#618,#619,#620));
#119=EDGE_LOOP('',(#621));
#120=EDGE_LOOP('',(#622));
#121=EDGE_LOOP('',(#623));
#122=EDGE_LOOP('',(#624,#625,#626,#627,#628));
#123=EDGE_LOOP('',(#629,#630,#631,#632,#633,#634,#635));
#124=EDGE_LOOP('',(#636));
#125=EDGE_LOOP('',(#637,#638,#639,#640));
#126=EDGE_LOOP('',(#641,#642,#643,#644));
#127=EDGE_LOOP('',(#645,#646,#647,#648));
#128=EDGE_LOOP('',(#649,#650,#651,#652));
#129=EDGE_LOOP('',(#653,#654,#655,#656));
#130=EDGE_LOOP('',(#657,#658,#659,#660));
#131=EDGE_LOOP('',(#661,#662,#663,#664));
#132=EDGE_LOOP('',(#665,#666,#667,#668));
#133=EDGE_LOOP('',(#669,#670,#671,#672));
#134=EDGE_LOOP('',(#673,#674,#675,#676));
#135=EDGE_LOOP('',(#677,#678,#679,#680));
#136=EDGE_LOOP('',(#681,#682,#683,#684));
#137=EDGE_LOOP('',(#685,#686,#687,#688));
#138=EDGE_LOOP('',(#689,#690,#691,#692));
#139=EDGE_LOOP('',(#693,#694,#695,#696));
#140=EDGE_LOOP('',(#697,#698,#699,#700));
#141=EDGE_LOOP('',(#701,#702,#703,#704));
#142=EDGE_LOOP('',(#705,#706,#707,#708));
#143=EDGE_LOOP('',(#709,#710,#711,#712));
#144=EDGE_LOOP('',(#713,#714,#715,#716));
#145=EDGE_LOOP('',(#717,#718,#719,#720));
#146=EDGE_LOOP('',(#721,#722,#723,#724));
#147=EDGE_LOOP('',(#725,#726,#727,#728));
#148=EDGE_LOOP('',(#729,#730,#731,#732));
#149=EDGE_LOOP('',(#733,#734,#735,#736,#737));
#150=EDGE_LOOP('',(#738,#739,#740,#741));
#151=EDGE_LOOP('',(#742,#743,#744,#745));
#152=EDGE_LOOP('',(#746,#747,#748,#749));
#153=EDGE_LOOP('',(#750,#751,#752,#753));
#154=EDGE_LOOP('',(#754,#755,#756,#757,#758,#759,#760,#761));
#155=EDGE_LOOP('',(#762,#763,#764,#765));
#156=EDGE_LOOP('',(#766));
#157=EDGE_LOOP('',(#767));
#158=EDGE_LOOP('',(#768));
#159=EDGE_LOOP('',(#769));
#160=EDGE_LOOP('',(#770));
#161=EDGE_LOOP('',(#771));
#162=EDGE_LOOP('',(#772));
#163=EDGE_LOOP('',(#773));
#164=EDGE_LOOP('',(#774));
#165=EDGE_LOOP('',(#775));
#166=EDGE_LOOP('',(#776));
#167=EDGE_LOOP('',(#777));
#168=LINE('',#1173,#246);
#169=LINE('',#1176,#247);
#170=LINE('',#1179,#248);
#171=LINE('',#1181,#249);
#172=LINE('',#1182,#250);
#173=LINE('',#1188,#251);
#174=LINE('',#1191,#252);
#175=LINE('',#1193,#253);
#176=LINE('',#1195,#254);
#177=LINE('',#1197,#255);
#178=LINE('',#1201,#256);
#179=LINE('',#1203,#257);
#180=LINE('',#1205,#258);
#181=LINE('',#1209,#259);
#182=LINE('',#1211,#260);
#183=LINE('',#1213,#261);
#184=LINE('',#1217,#262);
#185=LINE('',#1219,#263);
#186=LINE('',#1221,#264);
#187=LINE('',#1225,#265);
#188=LINE('',#1226,#266);
#189=LINE('',#1245,#267);
#190=LINE('',#1247,#268);
#191=LINE('',#1248,#269);
#192=LINE('',#1251,#270);
#193=LINE('',#1253,#271);
#194=LINE('',#1255,#272);
#195=LINE('',#1257,#273);
#196=LINE('',#1258,#274);
#197=LINE('',#1261,#275);
#198=LINE('',#1263,#276);
#199=LINE('',#1267,#277);
#200=LINE('',#1269,#278);
#201=LINE('',#1271,#279);
#202=LINE('',#1275,#280);
#203=LINE('',#1277,#281);
#204=LINE('',#1279,#282);
#205=LINE('',#1283,#283);
#206=LINE('',#1285,#284);
#207=LINE('',#1287,#285);
#208=LINE('',#1288,#286);
#209=LINE('',#1296,#287);
#210=LINE('',#1299,#288);
#211=LINE('',#1301,#289);
#212=LINE('',#1305,#290);
#213=LINE('',#1306,#291);
#214=LINE('',#1311,#292);
#215=LINE('',#1315,#293);
#216=LINE('',#1319,#294);
#217=LINE('',#1323,#295);
#218=LINE('',#1327,#296);
#219=LINE('',#1331,#297);
#220=LINE('',#1335,#298);
#221=LINE('',#1339,#299);
#222=LINE('',#1342,#300);
#223=LINE('',#1343,#301);
#224=LINE('',#1345,#302);
#225=LINE('',#1347,#303);
#226=LINE('',#1348,#304);
#227=LINE('',#1350,#305);
#228=LINE('',#1352,#306);
#229=LINE('',#1353,#307);
#230=LINE('',#1355,#308);
#231=LINE('',#1357,#309);
#232=LINE('',#1358,#310);
#233=LINE('',#1360,#311);
#234=LINE('',#1362,#312);
#235=LINE('',#1364,#313);
#236=LINE('',#1366,#314);
#237=LINE('',#1369,#315);
#238=LINE('',#1373,#316);
#239=LINE('',#1377,#317);
#240=LINE('',#1385,#318);
#241=LINE('',#1389,#319);
#242=LINE('',#1390,#320);
#243=LINE('',#1393,#321);
#244=LINE('',#1394,#322);
#245=LINE('',#1396,#323);
#246=VECTOR('',#941,10.);
#247=VECTOR('',#944,10.);
#248=VECTOR('',#947,10.);
#249=VECTOR('',#948,10.);
#250=VECTOR('',#949,10.);
#251=VECTOR('',#954,10.);
#252=VECTOR('',#957,10.);
#253=VECTOR('',#960,10.);
#254=VECTOR('',#961,10.);
#255=VECTOR('',#962,10.);
#256=VECTOR('',#965,10.);
#257=VECTOR('',#966,10.);
#258=VECTOR('',#967,10.);
#259=VECTOR('',#970,10.);
#260=VECTOR('',#971,10.);
#261=VECTOR('',#972,10.);
#262=VECTOR('',#975,10.);
#263=VECTOR('',#976,10.);
#264=VECTOR('',#977,10.);
#265=VECTOR('',#980,10.);
#266=VECTOR('',#981,10.);
#267=VECTOR('',#1000,10.);
#268=VECTOR('',#1001,10.);
#269=VECTOR('',#1002,10.);
#270=VECTOR('',#1005,10.);
#271=VECTOR('',#1006,10.);
#272=VECTOR('',#1007,10.);
#273=VECTOR('',#1008,10.);
#274=VECTOR('',#1009,10.);
#275=VECTOR('',#1012,10.);
#276=VECTOR('',#1013,10.);
#277=VECTOR('',#1016,10.);
#278=VECTOR('',#1017,10.);
#279=VECTOR('',#1018,10.);
#280=VECTOR('',#1021,10.);
#281=VECTOR('',#1022,10.);
#282=VECTOR('',#1023,10.);
#283=VECTOR('',#1026,10.);
#284=VECTOR('',#1027,10.);
#285=VECTOR('',#1028,10.);
#286=VECTOR('',#1029,10.);
#287=VECTOR('',#1038,10.);
#288=VECTOR('',#1041,10.);
#289=VECTOR('',#1042,10.);
#290=VECTOR('',#1045,10.);
#291=VECTOR('',#1046,10.);
#292=VECTOR('',#1051,1.75);
#293=VECTOR('',#1056,1.75);
#294=VECTOR('',#1061,1.75000000000001);
#295=VECTOR('',#1066,1.75);
#296=VECTOR('',#1071,1.75);
#297=VECTOR('',#1076,1.75);
#298=VECTOR('',#1081,1.75);
#299=VECTOR('',#1086,1.74999999999998);
#300=VECTOR('',#1091,10.);
#301=VECTOR('',#1092,10.);
#302=VECTOR('',#1095,10.);
#303=VECTOR('',#1098,10.);
#304=VECTOR('',#1099,10.);
#305=VECTOR('',#1102,10.);
#306=VECTOR('',#1105,10.);
#307=VECTOR('',#1106,10.);
#308=VECTOR('',#1109,10.);
#309=VECTOR('',#1112,10.);
#310=VECTOR('',#1113,10.);
#311=VECTOR('',#1116,10.);
#312=VECTOR('',#1119,10.);
#313=VECTOR('',#1122,10.);
#314=VECTOR('',#1125,10.);
#315=VECTOR('',#1128,2.);
#316=VECTOR('',#1133,2.);
#317=VECTOR('',#1138,2.);
#318=VECTOR('',#1151,2.);
#319=VECTOR('',#1156,10.);
#320=VECTOR('',#1157,10.);
#321=VECTOR('',#1160,10.);
#322=VECTOR('',#1161,10.);
#323=VECTOR('',#1164,10.);
#324=CIRCLE('',#860,2.);
#325=CIRCLE('',#861,2.);
#326=CIRCLE('',#864,2.);
#327=CIRCLE('',#865,2.);
#328=CIRCLE('',#867,2.);
#329=CIRCLE('',#868,2.);
#330=CIRCLE('',#869,2.);
#331=CIRCLE('',#870,2.);
#332=CIRCLE('',#871,1.75);
#333=CIRCLE('',#872,1.75);
#334=CIRCLE('',#873,1.75);
#335=CIRCLE('',#874,1.75);
#336=CIRCLE('',#875,1.75);
#337=CIRCLE('',#876,1.75000000000001);
#338=CIRCLE('',#877,1.75);
#339=CIRCLE('',#878,1.74999999999998);
#340=CIRCLE('',#882,2.);
#341=CIRCLE('',#883,2.);
#342=CIRCLE('',#884,2.);
#343=CIRCLE('',#885,2.);
#344=CIRCLE('',#886,2.);
#345=CIRCLE('',#887,2.);
#346=CIRCLE('',#890,2.);
#347=CIRCLE('',#891,2.);
#348=CIRCLE('',#893,1.75);
#349=CIRCLE('',#895,1.75);
#350=CIRCLE('',#897,1.75000000000001);
#351=CIRCLE('',#899,1.75);
#352=CIRCLE('',#901,1.75);
#353=CIRCLE('',#903,1.75);
#354=CIRCLE('',#905,1.75);
#355=CIRCLE('',#907,1.74999999999998);
#356=CIRCLE('',#920,2.);
#357=CIRCLE('',#922,2.);
#358=CIRCLE('',#924,2.);
#359=CIRCLE('',#930,2.);
#360=VERTEX_POINT('',#1169);
#361=VERTEX_POINT('',#1170);
#362=VERTEX_POINT('',#1172);
#363=VERTEX_POINT('',#1174);
#364=VERTEX_POINT('',#1178);
#365=VERTEX_POINT('',#1180);
#366=VERTEX_POINT('',#1184);
#367=VERTEX_POINT('',#1185);
#368=VERTEX_POINT('',#1187);
#369=VERTEX_POINT('',#1189);
#370=VERTEX_POINT('',#1194);
#371=VERTEX_POINT('',#1196);
#372=VERTEX_POINT('',#1198);
#373=VERTEX_POINT('',#1200);
#374=VERTEX_POINT('',#1202);
#375=VERTEX_POINT('',#1204);
#376=VERTEX_POINT('',#1206);
#377=VERTEX_POINT('',#1208);
#378=VERTEX_POINT('',#1210);
#379=VERTEX_POINT('',#1212);
#380=VERTEX_POINT('',#1214);
#381=VERTEX_POINT('',#1216);
#382=VERTEX_POINT('',#1218);
#383=VERTEX_POINT('',#1220);
#384=VERTEX_POINT('',#1222);
#385=VERTEX_POINT('',#1224);
#386=VERTEX_POINT('',#1227);
#387=VERTEX_POINT('',#1229);
#388=VERTEX_POINT('',#1231);
#389=VERTEX_POINT('',#1233);
#390=VERTEX_POINT('',#1235);
#391=VERTEX_POINT('',#1237);
#392=VERTEX_POINT('',#1239);
#393=VERTEX_POINT('',#1241);
#394=VERTEX_POINT('',#1244);
#395=VERTEX_POINT('',#1246);
#396=VERTEX_POINT('',#1250);
#397=VERTEX_POINT('',#1252);
#398=VERTEX_POINT('',#1254);
#399=VERTEX_POINT('',#1256);
#400=VERTEX_POINT('',#1260);
#401=VERTEX_POINT('',#1262);
#402=VERTEX_POINT('',#1264);
#403=VERTEX_POINT('',#1266);
#404=VERTEX_POINT('',#1268);
#405=VERTEX_POINT('',#1270);
#406=VERTEX_POINT('',#1272);
#407=VERTEX_POINT('',#1274);
#408=VERTEX_POINT('',#1276);
#409=VERTEX_POINT('',#1278);
#410=VERTEX_POINT('',#1280);
#411=VERTEX_POINT('',#1282);
#412=VERTEX_POINT('',#1284);
#413=VERTEX_POINT('',#1286);
#414=VERTEX_POINT('',#1289);
#415=VERTEX_POINT('',#1291);
#416=VERTEX_POINT('',#1293);
#417=VERTEX_POINT('',#1298);
#418=VERTEX_POINT('',#1300);
#419=VERTEX_POINT('',#1302);
#420=VERTEX_POINT('',#1304);
#421=VERTEX_POINT('',#1307);
#422=VERTEX_POINT('',#1310);
#423=VERTEX_POINT('',#1314);
#424=VERTEX_POINT('',#1318);
#425=VERTEX_POINT('',#1322);
#426=VERTEX_POINT('',#1326);
#427=VERTEX_POINT('',#1330);
#428=VERTEX_POINT('',#1334);
#429=VERTEX_POINT('',#1338);
#430=VERTEX_POINT('',#1368);
#431=VERTEX_POINT('',#1372);
#432=VERTEX_POINT('',#1376);
#433=VERTEX_POINT('',#1384);
#434=VERTEX_POINT('',#1388);
#435=VERTEX_POINT('',#1392);
#436=EDGE_CURVE('',#360,#361,#324,.T.);
#437=EDGE_CURVE('',#361,#362,#168,.T.);
#438=EDGE_CURVE('',#362,#363,#325,.T.);
#439=EDGE_CURVE('',#363,#360,#169,.T.);
#440=EDGE_CURVE('',#364,#361,#170,.T.);
#441=EDGE_CURVE('',#365,#364,#171,.T.);
#442=EDGE_CURVE('',#362,#365,#172,.T.);
#443=EDGE_CURVE('',#366,#367,#326,.T.);
#444=EDGE_CURVE('',#367,#368,#173,.T.);
#445=EDGE_CURVE('',#368,#369,#327,.T.);
#446=EDGE_CURVE('',#369,#366,#174,.T.);
#447=EDGE_CURVE('',#368,#363,#175,.T.);
#448=EDGE_CURVE('',#370,#367,#176,.T.);
#449=EDGE_CURVE('',#371,#370,#177,.T.);
#450=EDGE_CURVE('',#372,#371,#328,.F.);
#451=EDGE_CURVE('',#373,#372,#178,.T.);
#452=EDGE_CURVE('',#374,#373,#179,.T.);
#453=EDGE_CURVE('',#374,#375,#180,.T.);
#454=EDGE_CURVE('',#376,#375,#329,.F.);
#455=EDGE_CURVE('',#377,#376,#181,.T.);
#456=EDGE_CURVE('',#378,#377,#182,.T.);
#457=EDGE_CURVE('',#379,#378,#183,.T.);
#458=EDGE_CURVE('',#380,#379,#330,.F.);
#459=EDGE_CURVE('',#381,#380,#184,.T.);
#460=EDGE_CURVE('',#382,#381,#185,.T.);
#461=EDGE_CURVE('',#383,#382,#186,.T.);
#462=EDGE_CURVE('',#384,#383,#331,.F.);
#463=EDGE_CURVE('',#385,#384,#187,.T.);
#464=EDGE_CURVE('',#360,#385,#188,.T.);
#465=EDGE_CURVE('',#386,#386,#332,.T.);
#466=EDGE_CURVE('',#387,#387,#333,.T.);
#467=EDGE_CURVE('',#388,#388,#334,.T.);
#468=EDGE_CURVE('',#389,#389,#335,.T.);
#469=EDGE_CURVE('',#390,#390,#336,.T.);
#470=EDGE_CURVE('',#391,#391,#337,.T.);
#471=EDGE_CURVE('',#392,#392,#338,.T.);
#472=EDGE_CURVE('',#393,#393,#339,.T.);
#473=EDGE_CURVE('',#394,#369,#189,.T.);
#474=EDGE_CURVE('',#395,#394,#190,.T.);
#475=EDGE_CURVE('',#366,#395,#191,.T.);
#476=EDGE_CURVE('',#396,#365,#192,.T.);
#477=EDGE_CURVE('',#397,#396,#193,.T.);
#478=EDGE_CURVE('',#397,#398,#194,.T.);
#479=EDGE_CURVE('',#398,#399,#195,.T.);
#480=EDGE_CURVE('',#394,#399,#196,.T.);
#481=EDGE_CURVE('',#364,#400,#197,.T.);
#482=EDGE_CURVE('',#400,#401,#198,.T.);
#483=EDGE_CURVE('',#402,#401,#340,.T.);
#484=EDGE_CURVE('',#402,#403,#199,.T.);
#485=EDGE_CURVE('',#403,#404,#200,.T.);
#486=EDGE_CURVE('',#404,#405,#201,.T.);
#487=EDGE_CURVE('',#406,#405,#341,.T.);
#488=EDGE_CURVE('',#406,#407,#202,.T.);
#489=EDGE_CURVE('',#407,#408,#203,.T.);
#490=EDGE_CURVE('',#408,#409,#204,.T.);
#491=EDGE_CURVE('',#410,#409,#342,.T.);
#492=EDGE_CURVE('',#410,#411,#205,.T.);
#493=EDGE_CURVE('',#411,#412,#206,.T.);
#494=EDGE_CURVE('',#412,#413,#207,.T.);
#495=EDGE_CURVE('',#413,#396,#208,.T.);
#496=EDGE_CURVE('',#414,#414,#343,.T.);
#497=EDGE_CURVE('',#415,#415,#344,.T.);
#498=EDGE_CURVE('',#416,#416,#345,.T.);
#499=EDGE_CURVE('',#385,#400,#209,.T.);
#500=EDGE_CURVE('',#399,#417,#210,.T.);
#501=EDGE_CURVE('',#417,#418,#211,.T.);
#502=EDGE_CURVE('',#419,#418,#346,.T.);
#503=EDGE_CURVE('',#419,#420,#212,.T.);
#504=EDGE_CURVE('',#420,#395,#213,.T.);
#505=EDGE_CURVE('',#421,#421,#347,.T.);
#506=EDGE_CURVE('',#390,#422,#214,.T.);
#507=EDGE_CURVE('',#422,#422,#348,.T.);
#508=EDGE_CURVE('',#386,#423,#215,.T.);
#509=EDGE_CURVE('',#423,#423,#349,.T.);
#510=EDGE_CURVE('',#391,#424,#216,.T.);
#511=EDGE_CURVE('',#424,#424,#350,.T.);
#512=EDGE_CURVE('',#392,#425,#217,.T.);
#513=EDGE_CURVE('',#425,#425,#351,.T.);
#514=EDGE_CURVE('',#387,#426,#218,.T.);
#515=EDGE_CURVE('',#426,#426,#352,.T.);
#516=EDGE_CURVE('',#388,#427,#219,.T.);
#517=EDGE_CURVE('',#427,#427,#353,.T.);
#518=EDGE_CURVE('',#389,#428,#220,.T.);
#519=EDGE_CURVE('',#428,#428,#354,.T.);
#520=EDGE_CURVE('',#393,#429,#221,.T.);
#521=EDGE_CURVE('',#429,#429,#355,.T.);
#522=EDGE_CURVE('',#409,#376,#222,.T.);
#523=EDGE_CURVE('',#375,#410,#223,.T.);
#524=EDGE_CURVE('',#377,#408,#224,.T.);
#525=EDGE_CURVE('',#418,#372,#225,.T.);
#526=EDGE_CURVE('',#371,#419,#226,.T.);
#527=EDGE_CURVE('',#373,#417,#227,.T.);
#528=EDGE_CURVE('',#405,#380,#228,.T.);
#529=EDGE_CURVE('',#379,#406,#229,.T.);
#530=EDGE_CURVE('',#381,#404,#230,.T.);
#531=EDGE_CURVE('',#401,#384,#231,.T.);
#532=EDGE_CURVE('',#383,#402,#232,.T.);
#533=EDGE_CURVE('',#382,#403,#233,.T.);
#534=EDGE_CURVE('',#378,#407,#234,.T.);
#535=EDGE_CURVE('',#411,#374,#235,.T.);
#536=EDGE_CURVE('',#370,#420,#236,.T.);
#537=EDGE_CURVE('',#421,#430,#237,.T.);
#538=EDGE_CURVE('',#430,#430,#356,.T.);
#539=EDGE_CURVE('',#414,#431,#238,.T.);
#540=EDGE_CURVE('',#431,#431,#357,.T.);
#541=EDGE_CURVE('',#415,#432,#239,.T.);
#542=EDGE_CURVE('',#432,#432,#358,.T.);
#543=EDGE_CURVE('',#416,#433,#240,.T.);
#544=EDGE_CURVE('',#433,#433,#359,.T.);
#545=EDGE_CURVE('',#434,#397,#241,.T.);
#546=EDGE_CURVE('',#434,#413,#242,.T.);
#547=EDGE_CURVE('',#435,#434,#243,.T.);
#548=EDGE_CURVE('',#435,#412,#244,.T.);
#549=EDGE_CURVE('',#398,#435,#245,.T.);
#550=ORIENTED_EDGE('',*,*,#436,.T.);
#551=ORIENTED_EDGE('',*,*,#437,.T.);
#552=ORIENTED_EDGE('',*,*,#438,.T.);
#553=ORIENTED_EDGE('',*,*,#439,.T.);
#554=ORIENTED_EDGE('',*,*,#437,.F.);
#555=ORIENTED_EDGE('',*,*,#440,.F.);
#556=ORIENTED_EDGE('',*,*,#441,.F.);
#557=ORIENTED_EDGE('',*,*,#442,.F.);
#558=ORIENTED_EDGE('',*,*,#443,.T.);
#559=ORIENTED_EDGE('',*,*,#444,.T.);
#560=ORIENTED_EDGE('',*,*,#445,.T.);
#561=ORIENTED_EDGE('',*,*,#446,.T.);
#562=ORIENTED_EDGE('',*,*,#439,.F.);
#563=ORIENTED_EDGE('',*,*,#447,.F.);
#564=ORIENTED_EDGE('',*,*,#444,.F.);
#565=ORIENTED_EDGE('',*,*,#448,.F.);
#566=ORIENTED_EDGE('',*,*,#449,.F.);
#567=ORIENTED_EDGE('',*,*,#450,.F.);
#568=ORIENTED_EDGE('',*,*,#451,.F.);
#569=ORIENTED_EDGE('',*,*,#452,.F.);
#570=ORIENTED_EDGE('',*,*,#453,.T.);
#571=ORIENTED_EDGE('',*,*,#454,.F.);
#572=ORIENTED_EDGE('',*,*,#455,.F.);
#573=ORIENTED_EDGE('',*,*,#456,.F.);
#574=ORIENTED_EDGE('',*,*,#457,.F.);
#575=ORIENTED_EDGE('',*,*,#458,.F.);
#576=ORIENTED_EDGE('',*,*,#459,.F.);
#577=ORIENTED_EDGE('',*,*,#460,.F.);
#578=ORIENTED_EDGE('',*,*,#461,.F.);
#579=ORIENTED_EDGE('',*,*,#462,.F.);
#580=ORIENTED_EDGE('',*,*,#463,.F.);
#581=ORIENTED_EDGE('',*,*,#464,.F.);
#582=ORIENTED_EDGE('',*,*,#465,.T.);
#583=ORIENTED_EDGE('',*,*,#466,.T.);
#584=ORIENTED_EDGE('',*,*,#467,.T.);
#585=ORIENTED_EDGE('',*,*,#468,.T.);
#586=ORIENTED_EDGE('',*,*,#469,.T.);
#587=ORIENTED_EDGE('',*,*,#470,.T.);
#588=ORIENTED_EDGE('',*,*,#471,.T.);
#589=ORIENTED_EDGE('',*,*,#472,.T.);
#590=ORIENTED_EDGE('',*,*,#446,.F.);
#591=ORIENTED_EDGE('',*,*,#473,.F.);
#592=ORIENTED_EDGE('',*,*,#474,.F.);
#593=ORIENTED_EDGE('',*,*,#475,.F.);
#594=ORIENTED_EDGE('',*,*,#473,.T.);
#595=ORIENTED_EDGE('',*,*,#445,.F.);
#596=ORIENTED_EDGE('',*,*,#447,.T.);
#597=ORIENTED_EDGE('',*,*,#438,.F.);
#598=ORIENTED_EDGE('',*,*,#442,.T.);
#599=ORIENTED_EDGE('',*,*,#476,.F.);
#600=ORIENTED_EDGE('',*,*,#477,.F.);
#601=ORIENTED_EDGE('',*,*,#478,.T.);
#602=ORIENTED_EDGE('',*,*,#479,.T.);
#603=ORIENTED_EDGE('',*,*,#480,.F.);
#604=ORIENTED_EDGE('',*,*,#441,.T.);
#605=ORIENTED_EDGE('',*,*,#481,.T.);
#606=ORIENTED_EDGE('',*,*,#482,.T.);
#607=ORIENTED_EDGE('',*,*,#483,.F.);
#608=ORIENTED_EDGE('',*,*,#484,.T.);
#609=ORIENTED_EDGE('',*,*,#485,.T.);
#610=ORIENTED_EDGE('',*,*,#486,.T.);
#611=ORIENTED_EDGE('',*,*,#487,.F.);
#612=ORIENTED_EDGE('',*,*,#488,.T.);
#613=ORIENTED_EDGE('',*,*,#489,.T.);
#614=ORIENTED_EDGE('',*,*,#490,.T.);
#615=ORIENTED_EDGE('',*,*,#491,.F.);
#616=ORIENTED_EDGE('',*,*,#492,.T.);
#617=ORIENTED_EDGE('',*,*,#493,.T.);
#618=ORIENTED_EDGE('',*,*,#494,.T.);
#619=ORIENTED_EDGE('',*,*,#495,.T.);
#620=ORIENTED_EDGE('',*,*,#476,.T.);
#621=ORIENTED_EDGE('',*,*,#496,.T.);
#622=ORIENTED_EDGE('',*,*,#497,.T.);
#623=ORIENTED_EDGE('',*,*,#498,.T.);
#624=ORIENTED_EDGE('',*,*,#440,.T.);
#625=ORIENTED_EDGE('',*,*,#436,.F.);
#626=ORIENTED_EDGE('',*,*,#464,.T.);
#627=ORIENTED_EDGE('',*,*,#499,.T.);
#628=ORIENTED_EDGE('',*,*,#481,.F.);
#629=ORIENTED_EDGE('',*,*,#474,.T.);
#630=ORIENTED_EDGE('',*,*,#480,.T.);
#631=ORIENTED_EDGE('',*,*,#500,.T.);
#632=ORIENTED_EDGE('',*,*,#501,.T.);
#633=ORIENTED_EDGE('',*,*,#502,.F.);
#634=ORIENTED_EDGE('',*,*,#503,.T.);
#635=ORIENTED_EDGE('',*,*,#504,.T.);
#636=ORIENTED_EDGE('',*,*,#505,.T.);
#637=ORIENTED_EDGE('',*,*,#469,.F.);
#638=ORIENTED_EDGE('',*,*,#506,.T.);
#639=ORIENTED_EDGE('',*,*,#507,.F.);
#640=ORIENTED_EDGE('',*,*,#506,.F.);
#641=ORIENTED_EDGE('',*,*,#465,.F.);
#642=ORIENTED_EDGE('',*,*,#508,.T.);
#643=ORIENTED_EDGE('',*,*,#509,.F.);
#644=ORIENTED_EDGE('',*,*,#508,.F.);
#645=ORIENTED_EDGE('',*,*,#470,.F.);
#646=ORIENTED_EDGE('',*,*,#510,.T.);
#647=ORIENTED_EDGE('',*,*,#511,.F.);
#648=ORIENTED_EDGE('',*,*,#510,.F.);
#649=ORIENTED_EDGE('',*,*,#471,.F.);
#650=ORIENTED_EDGE('',*,*,#512,.T.);
#651=ORIENTED_EDGE('',*,*,#513,.F.);
#652=ORIENTED_EDGE('',*,*,#512,.F.);
#653=ORIENTED_EDGE('',*,*,#466,.F.);
#654=ORIENTED_EDGE('',*,*,#514,.T.);
#655=ORIENTED_EDGE('',*,*,#515,.F.);
#656=ORIENTED_EDGE('',*,*,#514,.F.);
#657=ORIENTED_EDGE('',*,*,#467,.F.);
#658=ORIENTED_EDGE('',*,*,#516,.T.);
#659=ORIENTED_EDGE('',*,*,#517,.F.);
#660=ORIENTED_EDGE('',*,*,#516,.F.);
#661=ORIENTED_EDGE('',*,*,#468,.F.);
#662=ORIENTED_EDGE('',*,*,#518,.T.);
#663=ORIENTED_EDGE('',*,*,#519,.F.);
#664=ORIENTED_EDGE('',*,*,#518,.F.);
#665=ORIENTED_EDGE('',*,*,#472,.F.);
#666=ORIENTED_EDGE('',*,*,#520,.T.);
#667=ORIENTED_EDGE('',*,*,#521,.F.);
#668=ORIENTED_EDGE('',*,*,#520,.F.);
#669=ORIENTED_EDGE('',*,*,#491,.T.);
#670=ORIENTED_EDGE('',*,*,#522,.T.);
#671=ORIENTED_EDGE('',*,*,#454,.T.);
#672=ORIENTED_EDGE('',*,*,#523,.T.);
#673=ORIENTED_EDGE('',*,*,#522,.F.);
#674=ORIENTED_EDGE('',*,*,#490,.F.);
#675=ORIENTED_EDGE('',*,*,#524,.F.);
#676=ORIENTED_EDGE('',*,*,#455,.T.);
#677=ORIENTED_EDGE('',*,*,#502,.T.);
#678=ORIENTED_EDGE('',*,*,#525,.T.);
#679=ORIENTED_EDGE('',*,*,#450,.T.);
#680=ORIENTED_EDGE('',*,*,#526,.T.);
#681=ORIENTED_EDGE('',*,*,#525,.F.);
#682=ORIENTED_EDGE('',*,*,#501,.F.);
#683=ORIENTED_EDGE('',*,*,#527,.F.);
#684=ORIENTED_EDGE('',*,*,#451,.T.);
#685=ORIENTED_EDGE('',*,*,#487,.T.);
#686=ORIENTED_EDGE('',*,*,#528,.T.);
#687=ORIENTED_EDGE('',*,*,#458,.T.);
#688=ORIENTED_EDGE('',*,*,#529,.T.);
#689=ORIENTED_EDGE('',*,*,#528,.F.);
#690=ORIENTED_EDGE('',*,*,#486,.F.);
#691=ORIENTED_EDGE('',*,*,#530,.F.);
#692=ORIENTED_EDGE('',*,*,#459,.T.);
#693=ORIENTED_EDGE('',*,*,#483,.T.);
#694=ORIENTED_EDGE('',*,*,#531,.T.);
#695=ORIENTED_EDGE('',*,*,#462,.T.);
#696=ORIENTED_EDGE('',*,*,#532,.T.);
#697=ORIENTED_EDGE('',*,*,#532,.F.);
#698=ORIENTED_EDGE('',*,*,#461,.T.);
#699=ORIENTED_EDGE('',*,*,#533,.T.);
#700=ORIENTED_EDGE('',*,*,#484,.F.);
#701=ORIENTED_EDGE('',*,*,#456,.T.);
#702=ORIENTED_EDGE('',*,*,#524,.T.);
#703=ORIENTED_EDGE('',*,*,#489,.F.);
#704=ORIENTED_EDGE('',*,*,#534,.F.);
#705=ORIENTED_EDGE('',*,*,#523,.F.);
#706=ORIENTED_EDGE('',*,*,#453,.F.);
#707=ORIENTED_EDGE('',*,*,#535,.F.);
#708=ORIENTED_EDGE('',*,*,#492,.F.);
#709=ORIENTED_EDGE('',*,*,#526,.F.);
#710=ORIENTED_EDGE('',*,*,#449,.T.);
#711=ORIENTED_EDGE('',*,*,#536,.T.);
#712=ORIENTED_EDGE('',*,*,#503,.F.);
#713=ORIENTED_EDGE('',*,*,#505,.F.);
#714=ORIENTED_EDGE('',*,*,#537,.T.);
#715=ORIENTED_EDGE('',*,*,#538,.T.);
#716=ORIENTED_EDGE('',*,*,#537,.F.);
#717=ORIENTED_EDGE('',*,*,#496,.F.);
#718=ORIENTED_EDGE('',*,*,#539,.T.);
#719=ORIENTED_EDGE('',*,*,#540,.T.);
#720=ORIENTED_EDGE('',*,*,#539,.F.);
#721=ORIENTED_EDGE('',*,*,#497,.F.);
#722=ORIENTED_EDGE('',*,*,#541,.T.);
#723=ORIENTED_EDGE('',*,*,#542,.T.);
#724=ORIENTED_EDGE('',*,*,#541,.F.);
#725=ORIENTED_EDGE('',*,*,#460,.T.);
#726=ORIENTED_EDGE('',*,*,#530,.T.);
#727=ORIENTED_EDGE('',*,*,#485,.F.);
#728=ORIENTED_EDGE('',*,*,#533,.F.);
#729=ORIENTED_EDGE('',*,*,#531,.F.);
#730=ORIENTED_EDGE('',*,*,#482,.F.);
#731=ORIENTED_EDGE('',*,*,#499,.F.);
#732=ORIENTED_EDGE('',*,*,#463,.T.);
#733=ORIENTED_EDGE('',*,*,#475,.T.);
#734=ORIENTED_EDGE('',*,*,#504,.F.);
#735=ORIENTED_EDGE('',*,*,#536,.F.);
#736=ORIENTED_EDGE('',*,*,#448,.T.);
#737=ORIENTED_EDGE('',*,*,#443,.F.);
#738=ORIENTED_EDGE('',*,*,#529,.F.);
#739=ORIENTED_EDGE('',*,*,#457,.T.);
#740=ORIENTED_EDGE('',*,*,#534,.T.);
#741=ORIENTED_EDGE('',*,*,#488,.F.);
#742=ORIENTED_EDGE('',*,*,#498,.F.);
#743=ORIENTED_EDGE('',*,*,#543,.T.);
#744=ORIENTED_EDGE('',*,*,#544,.T.);
#745=ORIENTED_EDGE('',*,*,#543,.F.);
#746=ORIENTED_EDGE('',*,*,#545,.T.);
#747=ORIENTED_EDGE('',*,*,#477,.T.);
#748=ORIENTED_EDGE('',*,*,#495,.F.);
#749=ORIENTED_EDGE('',*,*,#546,.F.);
#750=ORIENTED_EDGE('',*,*,#547,.T.);
#751=ORIENTED_EDGE('',*,*,#546,.T.);
#752=ORIENTED_EDGE('',*,*,#494,.F.);
#753=ORIENTED_EDGE('',*,*,#548,.F.);
#754=ORIENTED_EDGE('',*,*,#527,.T.);
#755=ORIENTED_EDGE('',*,*,#500,.F.);
#756=ORIENTED_EDGE('',*,*,#479,.F.);
#757=ORIENTED_EDGE('',*,*,#549,.T.);
#758=ORIENTED_EDGE('',*,*,#548,.T.);
#759=ORIENTED_EDGE('',*,*,#493,.F.);
#760=ORIENTED_EDGE('',*,*,#535,.T.);
#761=ORIENTED_EDGE('',*,*,#452,.T.);
#762=ORIENTED_EDGE('',*,*,#478,.F.);
#763=ORIENTED_EDGE('',*,*,#545,.F.);
#764=ORIENTED_EDGE('',*,*,#547,.F.);
#765=ORIENTED_EDGE('',*,*,#549,.F.);
#766=ORIENTED_EDGE('',*,*,#507,.T.);
#767=ORIENTED_EDGE('',*,*,#509,.T.);
#768=ORIENTED_EDGE('',*,*,#511,.T.);
#769=ORIENTED_EDGE('',*,*,#513,.T.);
#770=ORIENTED_EDGE('',*,*,#515,.T.);
#771=ORIENTED_EDGE('',*,*,#517,.T.);
#772=ORIENTED_EDGE('',*,*,#519,.T.);
#773=ORIENTED_EDGE('',*,*,#521,.T.);
#774=ORIENTED_EDGE('',*,*,#544,.F.);
#775=ORIENTED_EDGE('',*,*,#542,.F.);
#776=ORIENTED_EDGE('',*,*,#540,.F.);
#777=ORIENTED_EDGE('',*,*,#538,.F.);
#778=CYLINDRICAL_SURFACE('',#859,2.);
#779=CYLINDRICAL_SURFACE('',#863,2.);
#780=CYLINDRICAL_SURFACE('',#892,1.75);
#781=CYLINDRICAL_SURFACE('',#894,1.75);
#782=CYLINDRICAL_SURFACE('',#896,1.75000000000001);
#783=CYLINDRICAL_SURFACE('',#898,1.75);
#784=CYLINDRICAL_SURFACE('',#900,1.75);
#785=CYLINDRICAL_SURFACE('',#902,1.75);
#786=CYLINDRICAL_SURFACE('',#904,1.75);
#787=CYLINDRICAL_SURFACE('',#906,1.74999999999998);
#788=CYLINDRICAL_SURFACE('',#908,2.);
#789=CYLINDRICAL_SURFACE('',#910,2.);
#790=CYLINDRICAL_SURFACE('',#912,2.);
#791=CYLINDRICAL_SURFACE('',#914,2.);
#792=CYLINDRICAL_SURFACE('',#919,2.);
#793=CYLINDRICAL_SURFACE('',#921,2.);
#794=CYLINDRICAL_SURFACE('',#923,2.);
#795=CYLINDRICAL_SURFACE('',#929,2.);
#796=ADVANCED_FACE('',(#64),#778,.F.);
#797=ADVANCED_FACE('',(#65),#42,.F.);
#798=ADVANCED_FACE('',(#66),#779,.F.);
#799=ADVANCED_FACE('',(#67,#18,#19,#20,#21,#22,#23,#24,#25),#43,.T.);
#800=ADVANCED_FACE('',(#68),#44,.F.);
#801=ADVANCED_FACE('',(#69),#45,.T.);
#802=ADVANCED_FACE('',(#70,#26,#27,#28),#46,.T.);
#803=ADVANCED_FACE('',(#71),#47,.T.);
#804=ADVANCED_FACE('',(#72,#29),#48,.T.);
#805=ADVANCED_FACE('',(#73),#780,.F.);
#806=ADVANCED_FACE('',(#74),#781,.F.);
#807=ADVANCED_FACE('',(#75),#782,.F.);
#808=ADVANCED_FACE('',(#76),#783,.F.);
#809=ADVANCED_FACE('',(#77),#784,.F.);
#810=ADVANCED_FACE('',(#78),#785,.F.);
#811=ADVANCED_FACE('',(#79),#786,.F.);
#812=ADVANCED_FACE('',(#80),#787,.F.);
#813=ADVANCED_FACE('',(#81),#788,.T.);
#814=ADVANCED_FACE('',(#82),#49,.T.);
#815=ADVANCED_FACE('',(#83),#789,.T.);
#816=ADVANCED_FACE('',(#84),#50,.T.);
#817=ADVANCED_FACE('',(#85),#790,.T.);
#818=ADVANCED_FACE('',(#86),#51,.T.);
#819=ADVANCED_FACE('',(#87),#791,.T.);
#820=ADVANCED_FACE('',(#88),#52,.T.);
#821=ADVANCED_FACE('',(#89),#53,.T.);
#822=ADVANCED_FACE('',(#90),#54,.T.);
#823=ADVANCED_FACE('',(#91),#55,.T.);
#824=ADVANCED_FACE('',(#92),#792,.F.);
#825=ADVANCED_FACE('',(#93),#793,.F.);
#826=ADVANCED_FACE('',(#94),#794,.F.);
#827=ADVANCED_FACE('',(#95),#56,.T.);
#828=ADVANCED_FACE('',(#96),#57,.T.);
#829=ADVANCED_FACE('',(#97),#58,.T.);
#830=ADVANCED_FACE('',(#98),#59,.T.);
#831=ADVANCED_FACE('',(#99),#795,.F.);
#832=ADVANCED_FACE('',(#100),#60,.T.);
#833=ADVANCED_FACE('',(#101),#61,.T.);
#834=ADVANCED_FACE('',(#102),#62,.T.);
#835=ADVANCED_FACE('',(#103,#30,#31,#32,#33,#34,#35,#36,#37,#38,#39,#40,
#41),#63,.F.);
#836=CLOSED_SHELL('',(#796,#797,#798,#799,#800,#801,#802,#803,#804,#805,
#806,#807,#808,#809,#810,#811,#812,#813,#814,#815,#816,#817,#818,#819,#820,
#821,#822,#823,#824,#825,#826,#827,#828,#829,#830,#831,#832,#833,#834,#835));
#837=DERIVED_UNIT_ELEMENT(#840,1.);
#838=DERIVED_UNIT_ELEMENT(#1404,-3.);
#839=DIMENSIONAL_EXPONENTS(1.,0.,0.,0.,0.,0.,0.);
#840=(
CONVERSION_BASED_UNIT('gram',#842)
MASS_UNIT()
NAMED_UNIT(#839)
);
#841=(
MASS_UNIT()
NAMED_UNIT(*)
SI_UNIT(.KILO.,.GRAM.)
);
#842=MASS_MEASURE_WITH_UNIT(MASS_MEASURE(0.001),#841);
#843=DERIVED_UNIT((#837,#838));
#844=MEASURE_REPRESENTATION_ITEM('density measure',
POSITIVE_RATIO_MEASURE(1.),#843);
#845=PROPERTY_DEFINITION_REPRESENTATION(#850,#847);
#846=PROPERTY_DEFINITION_REPRESENTATION(#851,#848);
#847=REPRESENTATION('material name',(#849),#1401);
#848=REPRESENTATION('density',(#844),#1401);
#849=DESCRIPTIVE_REPRESENTATION_ITEM('\X2\04220438043F043E0432044B0435\X0\',
'\X2\04220438043F043E0432044B0435\X0\');
#850=PROPERTY_DEFINITION('material property','material name',#1411);
#851=PROPERTY_DEFINITION('material property','density of part',#1411);
#852=DATE_TIME_ROLE('creation_date');
#853=APPLIED_DATE_AND_TIME_ASSIGNMENT(#854,#852,(#1411));
#854=DATE_AND_TIME(#855,#856);
#855=CALENDAR_DATE(2026,27,5);
#856=LOCAL_TIME(0,0,0.,#857);
#857=COORDINATED_UNIVERSAL_TIME_OFFSET(0,0,.BEHIND.);
#858=AXIS2_PLACEMENT_3D('placement',#1167,#935,#936);
#859=AXIS2_PLACEMENT_3D('',#1168,#937,#938);
#860=AXIS2_PLACEMENT_3D('',#1171,#939,#940);
#861=AXIS2_PLACEMENT_3D('',#1175,#942,#943);
#862=AXIS2_PLACEMENT_3D('',#1177,#945,#946);
#863=AXIS2_PLACEMENT_3D('',#1183,#950,#951);
#864=AXIS2_PLACEMENT_3D('',#1186,#952,#953);
#865=AXIS2_PLACEMENT_3D('',#1190,#955,#956);
#866=AXIS2_PLACEMENT_3D('',#1192,#958,#959);
#867=AXIS2_PLACEMENT_3D('',#1199,#963,#964);
#868=AXIS2_PLACEMENT_3D('',#1207,#968,#969);
#869=AXIS2_PLACEMENT_3D('',#1215,#973,#974);
#870=AXIS2_PLACEMENT_3D('',#1223,#978,#979);
#871=AXIS2_PLACEMENT_3D('',#1228,#982,#983);
#872=AXIS2_PLACEMENT_3D('',#1230,#984,#985);
#873=AXIS2_PLACEMENT_3D('',#1232,#986,#987);
#874=AXIS2_PLACEMENT_3D('',#1234,#988,#989);
#875=AXIS2_PLACEMENT_3D('',#1236,#990,#991);
#876=AXIS2_PLACEMENT_3D('',#1238,#992,#993);
#877=AXIS2_PLACEMENT_3D('',#1240,#994,#995);
#878=AXIS2_PLACEMENT_3D('',#1242,#996,#997);
#879=AXIS2_PLACEMENT_3D('',#1243,#998,#999);
#880=AXIS2_PLACEMENT_3D('',#1249,#1003,#1004);
#881=AXIS2_PLACEMENT_3D('',#1259,#1010,#1011);
#882=AXIS2_PLACEMENT_3D('',#1265,#1014,#1015);
#883=AXIS2_PLACEMENT_3D('',#1273,#1019,#1020);
#884=AXIS2_PLACEMENT_3D('',#1281,#1024,#1025);
#885=AXIS2_PLACEMENT_3D('',#1290,#1030,#1031);
#886=AXIS2_PLACEMENT_3D('',#1292,#1032,#1033);
#887=AXIS2_PLACEMENT_3D('',#1294,#1034,#1035);
#888=AXIS2_PLACEMENT_3D('',#1295,#1036,#1037);
#889=AXIS2_PLACEMENT_3D('',#1297,#1039,#1040);
#890=AXIS2_PLACEMENT_3D('',#1303,#1043,#1044);
#891=AXIS2_PLACEMENT_3D('',#1308,#1047,#1048);
#892=AXIS2_PLACEMENT_3D('',#1309,#1049,#1050);
#893=AXIS2_PLACEMENT_3D('',#1312,#1052,#1053);
#894=AXIS2_PLACEMENT_3D('',#1313,#1054,#1055);
#895=AXIS2_PLACEMENT_3D('',#1316,#1057,#1058);
#896=AXIS2_PLACEMENT_3D('',#1317,#1059,#1060);
#897=AXIS2_PLACEMENT_3D('',#1320,#1062,#1063);
#898=AXIS2_PLACEMENT_3D('',#1321,#1064,#1065);
#899=AXIS2_PLACEMENT_3D('',#1324,#1067,#1068);
#900=AXIS2_PLACEMENT_3D('',#1325,#1069,#1070);
#901=AXIS2_PLACEMENT_3D('',#1328,#1072,#1073);
#902=AXIS2_PLACEMENT_3D('',#1329,#1074,#1075);
#903=AXIS2_PLACEMENT_3D('',#1332,#1077,#1078);
#904=AXIS2_PLACEMENT_3D('',#1333,#1079,#1080);
#905=AXIS2_PLACEMENT_3D('',#1336,#1082,#1083);
#906=AXIS2_PLACEMENT_3D('',#1337,#1084,#1085);
#907=AXIS2_PLACEMENT_3D('',#1340,#1087,#1088);
#908=AXIS2_PLACEMENT_3D('',#1341,#1089,#1090);
#909=AXIS2_PLACEMENT_3D('',#1344,#1093,#1094);
#910=AXIS2_PLACEMENT_3D('',#1346,#1096,#1097);
#911=AXIS2_PLACEMENT_3D('',#1349,#1100,#1101);
#912=AXIS2_PLACEMENT_3D('',#1351,#1103,#1104);
#913=AXIS2_PLACEMENT_3D('',#1354,#1107,#1108);
#914=AXIS2_PLACEMENT_3D('',#1356,#1110,#1111);
#915=AXIS2_PLACEMENT_3D('',#1359,#1114,#1115);
#916=AXIS2_PLACEMENT_3D('',#1361,#1117,#1118);
#917=AXIS2_PLACEMENT_3D('',#1363,#1120,#1121);
#918=AXIS2_PLACEMENT_3D('',#1365,#1123,#1124);
#919=AXIS2_PLACEMENT_3D('',#1367,#1126,#1127);
#920=AXIS2_PLACEMENT_3D('',#1370,#1129,#1130);
#921=AXIS2_PLACEMENT_3D('',#1371,#1131,#1132);
#922=AXIS2_PLACEMENT_3D('',#1374,#1134,#1135);
#923=AXIS2_PLACEMENT_3D('',#1375,#1136,#1137);
#924=AXIS2_PLACEMENT_3D('',#1378,#1139,#1140);
#925=AXIS2_PLACEMENT_3D('',#1379,#1141,#1142);
#926=AXIS2_PLACEMENT_3D('',#1380,#1143,#1144);
#927=AXIS2_PLACEMENT_3D('',#1381,#1145,#1146);
#928=AXIS2_PLACEMENT_3D('',#1382,#1147,#1148);
#929=AXIS2_PLACEMENT_3D('',#1383,#1149,#1150);
#930=AXIS2_PLACEMENT_3D('',#1386,#1152,#1153);
#931=AXIS2_PLACEMENT_3D('',#1387,#1154,#1155);
#932=AXIS2_PLACEMENT_3D('',#1391,#1158,#1159);
#933=AXIS2_PLACEMENT_3D('',#1395,#1162,#1163);
#934=AXIS2_PLACEMENT_3D('',#1397,#1165,#1166);
#935=DIRECTION('axis',(0.,0.,1.));
#936=DIRECTION('refdir',(1.,0.,0.));
#937=DIRECTION('center_axis',(1.,3.77948263702181E-16,0.));
#938=DIRECTION('ref_axis',(0.,0.707106781186546,-0.707106781186549));
#939=DIRECTION('center_axis',(1.,3.0626842058625E-16,0.));
#940=DIRECTION('ref_axis',(0.,0.707106781186546,-0.707106781186549));
#941=DIRECTION('',(-1.,-3.77948263702181E-16,0.));
#942=DIRECTION('center_axis',(-1.,-3.25665420556713E-16,0.));
#943=DIRECTION('ref_axis',(0.,0.707106781186546,-0.707106781186549));
#944=DIRECTION('',(1.,3.77948263702181E-16,0.));
#945=DIRECTION('center_axis',(-3.77948263702181E-16,1.,0.));
#946=DIRECTION('ref_axis',(0.,0.,1.));
#947=DIRECTION('',(0.,0.,-1.));
#948=DIRECTION('',(1.,3.77948263702181E-16,0.));
#949=DIRECTION('',(0.,0.,1.));
#950=DIRECTION('center_axis',(1.,3.77948263702181E-16,0.));
#951=DIRECTION('ref_axis',(0.,-0.707106781186546,-0.707106781186549));
#952=DIRECTION('center_axis',(1.,3.0626842058625E-16,0.));
#953=DIRECTION('ref_axis',(0.,-0.707106781186546,-0.707106781186549));
#954=DIRECTION('',(-1.,-3.77948263702181E-16,0.));
#955=DIRECTION('center_axis',(-1.,-3.25665420556713E-16,0.));
#956=DIRECTION('ref_axis',(0.,-0.707106781186546,-0.707106781186549));
#957=DIRECTION('',(1.,3.77948263702181E-16,0.));
#958=DIRECTION('center_axis',(0.,0.,1.));
#959=DIRECTION('ref_axis',(1.,0.,0.));
#960=DIRECTION('',(-3.25665420556713E-16,1.,0.));
#961=DIRECTION('',(-3.0626842058625E-16,1.,0.));
#962=DIRECTION('',(-1.,0.,0.));
#963=DIRECTION('center_axis',(0.,0.,-1.));
#964=DIRECTION('ref_axis',(0.707106781186546,0.707106781186549,0.));
#965=DIRECTION('',(0.,1.,0.));
#966=DIRECTION('',(-1.,0.,0.));
#967=DIRECTION('',(0.,1.,0.));
#968=DIRECTION('center_axis',(0.,0.,-1.));
#969=DIRECTION('ref_axis',(-0.707106781186546,0.707106781186549,0.));
#970=DIRECTION('',(-1.,1.48029736616688E-15,0.));
#971=DIRECTION('',(1.53134210293125E-16,-1.,0.));
#972=DIRECTION('',(1.,0.,0.));
#973=DIRECTION('center_axis',(0.,0.,-1.));
#974=DIRECTION('ref_axis',(-0.707106781186546,-0.707106781186549,0.));
#975=DIRECTION('',(7.40148683083437E-16,-1.,0.));
#976=DIRECTION('',(1.,0.,0.));
#977=DIRECTION('',(0.,1.,0.));
#978=DIRECTION('center_axis',(0.,0.,-1.));
#979=DIRECTION('ref_axis',(0.707106781186549,-0.707106781186546,0.));
#980=DIRECTION('',(1.,0.,0.));
#981=DIRECTION('',(-3.0626842058625E-16,1.,0.));
#982=DIRECTION('center_axis',(0.,0.,-1.));
#983=DIRECTION('ref_axis',(1.,0.,0.));
#984=DIRECTION('center_axis',(0.,0.,-1.));
#985=DIRECTION('ref_axis',(1.,0.,0.));
#986=DIRECTION('center_axis',(0.,0.,-1.));
#987=DIRECTION('ref_axis',(1.,0.,0.));
#988=DIRECTION('center_axis',(0.,0.,-1.));
#989=DIRECTION('ref_axis',(1.,0.,0.));
#990=DIRECTION('center_axis',(0.,0.,-1.));
#991=DIRECTION('ref_axis',(1.,0.,0.));
#992=DIRECTION('center_axis',(0.,0.,-1.));
#993=DIRECTION('ref_axis',(1.,0.,0.));
#994=DIRECTION('center_axis',(0.,0.,-1.));
#995=DIRECTION('ref_axis',(1.,0.,0.));
#996=DIRECTION('center_axis',(0.,0.,-1.));
#997=DIRECTION('ref_axis',(1.,0.,0.));
#998=DIRECTION('center_axis',(3.77948263702181E-16,-1.,0.));
#999=DIRECTION('ref_axis',(0.,0.,-1.));
#1000=DIRECTION('',(0.,0.,-1.));
#1001=DIRECTION('',(-1.,-3.77948263702181E-16,0.));
#1002=DIRECTION('',(0.,0.,1.));
#1003=DIRECTION('center_axis',(-1.,-3.25665420556713E-16,0.));
#1004=DIRECTION('ref_axis',(3.25665420556713E-16,-1.,0.));
#1005=DIRECTION('',(3.25665420556713E-16,-1.,0.));
#1006=DIRECTION('',(0.,0.,1.));
#1007=DIRECTION('',(3.25665420556713E-16,-1.,0.));
#1008=DIRECTION('',(0.,0.,1.));
#1009=DIRECTION('',(3.25665420556713E-16,-1.,0.));
#1010=DIRECTION('center_axis',(0.,0.,1.));
#1011=DIRECTION('ref_axis',(1.,0.,0.));
#1012=DIRECTION('',(-3.0626842058625E-16,1.,0.));
#1013=DIRECTION('',(1.,0.,0.));
#1014=DIRECTION('center_axis',(0.,0.,-1.));
#1015=DIRECTION('ref_axis',(0.707106781186549,-0.707106781186546,0.));
#1016=DIRECTION('',(0.,1.,0.));
#1017=DIRECTION('',(1.,0.,0.));
#1018=DIRECTION('',(7.40148683083437E-16,-1.,0.));
#1019=DIRECTION('center_axis',(0.,0.,-1.));
#1020=DIRECTION('ref_axis',(-0.707106781186546,-0.707106781186549,0.));
#1021=DIRECTION('',(1.,0.,0.));
#1022=DIRECTION('',(1.53134210293125E-16,-1.,0.));
#1023=DIRECTION('',(-1.,1.48029736616688E-15,0.));
#1024=DIRECTION('center_axis',(0.,0.,-1.));
#1025=DIRECTION('ref_axis',(-0.707106781186546,0.707106781186549,0.));
#1026=DIRECTION('',(0.,-1.,0.));
#1027=DIRECTION('',(1.,0.,0.));
#1028=DIRECTION('',(-1.77635683940025E-16,1.,0.));
#1029=DIRECTION('',(-1.,-1.36642833800019E-16,0.));
#1030=DIRECTION('center_axis',(0.,0.,-1.));
#1031=DIRECTION('ref_axis',(-1.,0.,0.));
#1032=DIRECTION('center_axis',(0.,0.,-1.));
#1033=DIRECTION('ref_axis',(-1.,0.,0.));
#1034=DIRECTION('center_axis',(0.,0.,-1.));
#1035=DIRECTION('ref_axis',(-1.,0.,0.));
#1036=DIRECTION('center_axis',(1.,3.0626842058625E-16,0.));
#1037=DIRECTION('ref_axis',(-3.0626842058625E-16,1.,0.));
#1038=DIRECTION('',(0.,0.,1.));
#1039=DIRECTION('center_axis',(0.,0.,1.));
#1040=DIRECTION('ref_axis',(1.,0.,0.));
#1041=DIRECTION('',(1.,0.,0.));
#1042=DIRECTION('',(0.,1.,0.));
#1043=DIRECTION('center_axis',(0.,0.,-1.));
#1044=DIRECTION('ref_axis',(0.707106781186546,0.707106781186549,0.));
#1045=DIRECTION('',(-1.,0.,0.));
#1046=DIRECTION('',(-3.0626842058625E-16,1.,0.));
#1047=DIRECTION('center_axis',(0.,0.,-1.));
#1048=DIRECTION('ref_axis',(-1.,0.,0.));
#1049=DIRECTION('center_axis',(0.,0.,-1.));
#1050=DIRECTION('ref_axis',(1.,0.,0.));
#1051=DIRECTION('',(0.,0.,-1.));
#1052=DIRECTION('center_axis',(0.,0.,1.));
#1053=DIRECTION('ref_axis',(1.,0.,0.));
#1054=DIRECTION('center_axis',(0.,0.,-1.));
#1055=DIRECTION('ref_axis',(1.,0.,0.));
#1056=DIRECTION('',(0.,0.,-1.));
#1057=DIRECTION('center_axis',(0.,0.,1.));
#1058=DIRECTION('ref_axis',(1.,0.,0.));
#1059=DIRECTION('center_axis',(0.,0.,-1.));
#1060=DIRECTION('ref_axis',(1.,0.,0.));
#1061=DIRECTION('',(0.,0.,-1.));
#1062=DIRECTION('center_axis',(0.,0.,1.));
#1063=DIRECTION('ref_axis',(1.,0.,0.));
#1064=DIRECTION('center_axis',(0.,0.,-1.));
#1065=DIRECTION('ref_axis',(1.,0.,0.));
#1066=DIRECTION('',(0.,0.,-1.));
#1067=DIRECTION('center_axis',(0.,0.,1.));
#1068=DIRECTION('ref_axis',(1.,0.,0.));
#1069=DIRECTION('center_axis',(0.,0.,-1.));
#1070=DIRECTION('ref_axis',(1.,0.,0.));
#1071=DIRECTION('',(0.,0.,-1.));
#1072=DIRECTION('center_axis',(0.,0.,1.));
#1073=DIRECTION('ref_axis',(1.,0.,0.));
#1074=DIRECTION('center_axis',(0.,0.,-1.));
#1075=DIRECTION('ref_axis',(1.,0.,0.));
#1076=DIRECTION('',(0.,0.,-1.));
#1077=DIRECTION('center_axis',(0.,0.,1.));
#1078=DIRECTION('ref_axis',(1.,0.,0.));
#1079=DIRECTION('center_axis',(0.,0.,-1.));
#1080=DIRECTION('ref_axis',(1.,0.,0.));
#1081=DIRECTION('',(0.,0.,-1.));
#1082=DIRECTION('center_axis',(0.,0.,1.));
#1083=DIRECTION('ref_axis',(1.,0.,0.));
#1084=DIRECTION('center_axis',(0.,0.,-1.));
#1085=DIRECTION('ref_axis',(1.,0.,0.));
#1086=DIRECTION('',(0.,0.,-1.));
#1087=DIRECTION('center_axis',(0.,0.,1.));
#1088=DIRECTION('ref_axis',(1.,0.,0.));
#1089=DIRECTION('center_axis',(0.,0.,1.));
#1090=DIRECTION('ref_axis',(-0.707106781186546,0.707106781186549,0.));
#1091=DIRECTION('',(0.,0.,-1.));
#1092=DIRECTION('',(0.,0.,1.));
#1093=DIRECTION('center_axis',(1.48029736616688E-15,1.,0.));
#1094=DIRECTION('ref_axis',(-1.,1.48029736616688E-15,0.));
#1095=DIRECTION('',(0.,0.,1.));
#1096=DIRECTION('center_axis',(0.,0.,1.));
#1097=DIRECTION('ref_axis',(0.707106781186546,0.707106781186549,0.));
#1098=DIRECTION('',(0.,0.,-1.));
#1099=DIRECTION('',(0.,0.,1.));
#1100=DIRECTION('center_axis',(1.,0.,0.));
#1101=DIRECTION('ref_axis',(0.,1.,0.));
#1102=DIRECTION('',(-9.86864910777917E-16,0.,1.));
#1103=DIRECTION('center_axis',(0.,0.,1.));
#1104=DIRECTION('ref_axis',(-0.707106781186546,-0.707106781186549,0.));
#1105=DIRECTION('',(0.,0.,-1.));
#1106=DIRECTION('',(0.,0.,1.));
#1107=DIRECTION('center_axis',(-1.,-7.40148683083437E-16,0.));
#1108=DIRECTION('ref_axis',(7.40148683083437E-16,-1.,0.));
#1109=DIRECTION('',(0.,0.,1.));
#1110=DIRECTION('center_axis',(0.,0.,1.));
#1111=DIRECTION('ref_axis',(0.707106781186549,-0.707106781186546,0.));
#1112=DIRECTION('',(0.,0.,-1.));
#1113=DIRECTION('',(0.,0.,1.));
#1114=DIRECTION('center_axis',(1.,0.,0.));
#1115=DIRECTION('ref_axis',(0.,1.,0.));
#1116=DIRECTION('',(0.,0.,1.));
#1117=DIRECTION('center_axis',(-1.,-1.53134210293125E-16,0.));
#1118=DIRECTION('ref_axis',(1.53134210293125E-16,-1.,0.));
#1119=DIRECTION('',(0.,0.,1.));
#1120=DIRECTION('center_axis',(-1.,0.,0.));
#1121=DIRECTION('ref_axis',(0.,-1.,0.));
#1122=DIRECTION('',(0.,0.,-1.));
#1123=DIRECTION('center_axis',(0.,1.,0.));
#1124=DIRECTION('ref_axis',(-1.,0.,0.));
#1125=DIRECTION('',(0.,0.,1.));
#1126=DIRECTION('center_axis',(0.,0.,1.));
#1127=DIRECTION('ref_axis',(-1.,0.,0.));
#1128=DIRECTION('',(0.,0.,-1.));
#1129=DIRECTION('center_axis',(0.,0.,-1.));
#1130=DIRECTION('ref_axis',(-1.,0.,0.));
#1131=DIRECTION('center_axis',(0.,0.,1.));
#1132=DIRECTION('ref_axis',(-1.,0.,0.));
#1133=DIRECTION('',(0.,0.,-1.));
#1134=DIRECTION('center_axis',(0.,0.,-1.));
#1135=DIRECTION('ref_axis',(-1.,0.,0.));
#1136=DIRECTION('center_axis',(0.,0.,1.));
#1137=DIRECTION('ref_axis',(-1.,0.,0.));
#1138=DIRECTION('',(0.,0.,-1.));
#1139=DIRECTION('center_axis',(0.,0.,-1.));
#1140=DIRECTION('ref_axis',(-1.,0.,0.));
#1141=DIRECTION('center_axis',(0.,-1.,0.));
#1142=DIRECTION('ref_axis',(1.,0.,0.));
#1143=DIRECTION('center_axis',(0.,-1.,0.));
#1144=DIRECTION('ref_axis',(1.,0.,0.));
#1145=DIRECTION('center_axis',(1.,3.0626842058625E-16,0.));
#1146=DIRECTION('ref_axis',(-3.0626842058625E-16,1.,0.));
#1147=DIRECTION('center_axis',(0.,-1.,0.));
#1148=DIRECTION('ref_axis',(1.,0.,0.));
#1149=DIRECTION('center_axis',(0.,0.,1.));
#1150=DIRECTION('ref_axis',(-1.,0.,0.));
#1151=DIRECTION('',(0.,0.,-1.));
#1152=DIRECTION('center_axis',(0.,0.,-1.));
#1153=DIRECTION('ref_axis',(-1.,0.,0.));
#1154=DIRECTION('center_axis',(-1.36642833800019E-16,1.,0.));
#1155=DIRECTION('ref_axis',(-1.,-1.36642833800019E-16,0.));
#1156=DIRECTION('',(-1.,-1.36642833800019E-16,0.));
#1157=DIRECTION('',(0.,0.,1.));
#1158=DIRECTION('center_axis',(1.,1.77635683940025E-16,0.));
#1159=DIRECTION('ref_axis',(-1.77635683940025E-16,1.,0.));
#1160=DIRECTION('',(-1.77635683940025E-16,1.,0.));
#1161=DIRECTION('',(0.,0.,1.));
#1162=DIRECTION('center_axis',(0.,-1.,0.));
#1163=DIRECTION('ref_axis',(1.,0.,0.));
#1164=DIRECTION('',(1.,0.,0.));
#1165=DIRECTION('center_axis',(0.,0.,1.));
#1166=DIRECTION('ref_axis',(1.,0.,0.));
#1167=CARTESIAN_POINT('',(0.,0.,0.));
#1168=CARTESIAN_POINT('Origin',(-16.25,43.,4.));
#1169=CARTESIAN_POINT('',(-30.,43.,2.));
#1170=CARTESIAN_POINT('',(-30.,45.,4.));
#1171=CARTESIAN_POINT('Origin',(-30.,43.,4.));
#1172=CARTESIAN_POINT('',(-32.5,45.,4.));
#1173=CARTESIAN_POINT('',(-16.25,45.,4.));
#1174=CARTESIAN_POINT('',(-32.5,43.,2.));
#1175=CARTESIAN_POINT('Origin',(-32.5,43.,4.));
#1176=CARTESIAN_POINT('',(-16.25,43.,2.));
#1177=CARTESIAN_POINT('Origin',(-32.5,45.,2.));
#1178=CARTESIAN_POINT('',(-30.,45.,20.));
#1179=CARTESIAN_POINT('',(-30.,45.,1.));
#1180=CARTESIAN_POINT('',(-32.5,45.,20.));
#1181=CARTESIAN_POINT('',(-16.25,45.,20.));
#1182=CARTESIAN_POINT('',(-32.5,45.,1.));
#1183=CARTESIAN_POINT('Origin',(-16.25,-43.,4.));
#1184=CARTESIAN_POINT('',(-30.,-45.,4.));
#1185=CARTESIAN_POINT('',(-30.,-43.,2.));
#1186=CARTESIAN_POINT('Origin',(-30.,-43.,4.));
#1187=CARTESIAN_POINT('',(-32.5,-43.,2.));
#1188=CARTESIAN_POINT('',(-16.25,-43.,2.));
#1189=CARTESIAN_POINT('',(-32.5,-45.,4.));
#1190=CARTESIAN_POINT('Origin',(-32.5,-43.,4.));
#1191=CARTESIAN_POINT('',(-16.25,-45.,4.));
#1192=CARTESIAN_POINT('Origin',(-8.88178419700125E-15,1.77635683940025E-14,
2.));
#1193=CARTESIAN_POINT('',(-32.5,15.,2.));
#1194=CARTESIAN_POINT('',(-30.,-69.,2.));
#1195=CARTESIAN_POINT('',(-30.,-34.5,2.));
#1196=CARTESIAN_POINT('',(-28.5,-69.,2.));
#1197=CARTESIAN_POINT('',(-13.25,-69.,2.));
#1198=CARTESIAN_POINT('',(-26.5,-71.,2.));
#1199=CARTESIAN_POINT('Origin',(-28.5,-71.,2.));
#1200=CARTESIAN_POINT('',(-26.5,-75.,2.));
#1201=CARTESIAN_POINT('',(-26.5,-36.25,2.));
#1202=CARTESIAN_POINT('',(26.5000000000001,-75.,2.));
#1203=CARTESIAN_POINT('',(-2.99999999999996,-75.,2.));
#1204=CARTESIAN_POINT('',(26.5,-71.,2.));
#1205=CARTESIAN_POINT('',(26.5000000000001,-75.,2.));
#1206=CARTESIAN_POINT('',(28.5,-69.,2.));
#1207=CARTESIAN_POINT('Origin',(28.5,-71.,2.));
#1208=CARTESIAN_POINT('',(30.,-69.,2.));
#1209=CARTESIAN_POINT('',(14.9999999999999,-68.9999999999999,2.));
#1210=CARTESIAN_POINT('',(30.,69.,2.));
#1211=CARTESIAN_POINT('',(30.,34.5,2.));
#1212=CARTESIAN_POINT('',(28.5000000000001,69.,2.));
#1213=CARTESIAN_POINT('',(13.25,69.,2.));
#1214=CARTESIAN_POINT('',(26.5000000000001,71.,2.));
#1215=CARTESIAN_POINT('Origin',(28.5000000000001,71.,2.));
#1216=CARTESIAN_POINT('',(26.5000000000001,72.5,2.));
#1217=CARTESIAN_POINT('',(26.5000000000001,36.25,2.));
#1218=CARTESIAN_POINT('',(-26.5000000000001,72.5,2.));
#1219=CARTESIAN_POINT('',(-13.25,72.5,2.));
#1220=CARTESIAN_POINT('',(-26.5,71.,2.));
#1221=CARTESIAN_POINT('',(-26.5,34.5,2.));
#1222=CARTESIAN_POINT('',(-28.5,69.,2.));
#1223=CARTESIAN_POINT('Origin',(-28.5,71.,2.));
#1224=CARTESIAN_POINT('',(-30.,69.,2.));
#1225=CARTESIAN_POINT('',(-15.,69.,2.));
#1226=CARTESIAN_POINT('',(-30.,-34.5,2.));
#1227=CARTESIAN_POINT('',(13.95,-7.34999999999999,2.));
#1228=CARTESIAN_POINT('Origin',(15.7,-7.34999999999999,2.));
#1229=CARTESIAN_POINT('',(20.75,59.5,2.));
#1230=CARTESIAN_POINT('Origin',(22.5,59.5,2.));
#1231=CARTESIAN_POINT('',(-24.25,59.5,2.));
#1232=CARTESIAN_POINT('Origin',(-22.5,59.5,2.));
#1233=CARTESIAN_POINT('',(20.75,9.50000000000003,2.));
#1234=CARTESIAN_POINT('Origin',(22.5,9.50000000000003,2.));
#1235=CARTESIAN_POINT('',(13.95,-65.15,2.));
#1236=CARTESIAN_POINT('Origin',(15.7,-65.15,2.));
#1237=CARTESIAN_POINT('',(-17.45,-65.15,2.));
#1238=CARTESIAN_POINT('Origin',(-15.7,-65.15,2.));
#1239=CARTESIAN_POINT('',(-17.45,-7.34999999999999,2.));
#1240=CARTESIAN_POINT('Origin',(-15.7,-7.34999999999999,2.));
#1241=CARTESIAN_POINT('',(-24.25,9.50000000000003,2.));
#1242=CARTESIAN_POINT('Origin',(-22.5,9.50000000000003,2.));
#1243=CARTESIAN_POINT('Origin',(-32.5,-45.,20.));
#1244=CARTESIAN_POINT('',(-32.5,-45.,20.));
#1245=CARTESIAN_POINT('',(-32.5,-45.,10.));
#1246=CARTESIAN_POINT('',(-30.,-45.,20.));
#1247=CARTESIAN_POINT('',(-16.25,-45.,20.));
#1248=CARTESIAN_POINT('',(-30.,-45.,10.));
#1249=CARTESIAN_POINT('Origin',(-32.5,75.,0.));
#1250=CARTESIAN_POINT('',(-32.5,75.,20.));
#1251=CARTESIAN_POINT('',(-32.5,75.,20.));
#1252=CARTESIAN_POINT('',(-32.5,75.,0.));
#1253=CARTESIAN_POINT('',(-32.5,75.,0.));
#1254=CARTESIAN_POINT('',(-32.5,-75.,0.));
#1255=CARTESIAN_POINT('',(-32.5,75.,0.));
#1256=CARTESIAN_POINT('',(-32.5,-75.,20.));
#1257=CARTESIAN_POINT('',(-32.5,-75.,0.));
#1258=CARTESIAN_POINT('',(-32.5,75.,20.));
#1259=CARTESIAN_POINT('Origin',(-2.22044604925031E-15,2.22044604925031E-14,
20.));
#1260=CARTESIAN_POINT('',(-30.,69.,20.));
#1261=CARTESIAN_POINT('',(-30.,-72.5,20.));
#1262=CARTESIAN_POINT('',(-28.5,69.,20.));
#1263=CARTESIAN_POINT('',(-32.5,69.,20.));
#1264=CARTESIAN_POINT('',(-26.5,71.,20.));
#1265=CARTESIAN_POINT('Origin',(-28.5,71.,20.));
#1266=CARTESIAN_POINT('',(-26.5,72.5,20.));
#1267=CARTESIAN_POINT('',(-26.5,69.,20.));
#1268=CARTESIAN_POINT('',(26.5000000000001,72.5,20.));
#1269=CARTESIAN_POINT('',(-30.,72.5,20.));
#1270=CARTESIAN_POINT('',(26.5000000000001,71.,20.));
#1271=CARTESIAN_POINT('',(26.5000000000001,75.,20.));
#1272=CARTESIAN_POINT('',(28.5000000000001,69.,20.));
#1273=CARTESIAN_POINT('Origin',(28.5000000000001,71.,20.));
#1274=CARTESIAN_POINT('',(30.,69.,20.));
#1275=CARTESIAN_POINT('',(26.5000000000001,69.,20.));
#1276=CARTESIAN_POINT('',(30.,-69.,20.));
#1277=CARTESIAN_POINT('',(30.,72.5,20.));
#1278=CARTESIAN_POINT('',(28.5,-69.,20.));
#1279=CARTESIAN_POINT('',(32.5,-69.,20.));
#1280=CARTESIAN_POINT('',(26.5,-71.,20.));
#1281=CARTESIAN_POINT('Origin',(28.5,-71.,20.));
#1282=CARTESIAN_POINT('',(26.5000000000001,-75.,20.));
#1283=CARTESIAN_POINT('',(26.5,-69.,20.));
#1284=CARTESIAN_POINT('',(32.5,-75.,20.));
#1285=CARTESIAN_POINT('',(-32.5,-75.,20.));
#1286=CARTESIAN_POINT('',(32.5,75.,20.));
#1287=CARTESIAN_POINT('',(32.5,-75.,20.));
#1288=CARTESIAN_POINT('',(32.5,75.,20.));
#1289=CARTESIAN_POINT('',(32.,-72.5,20.));
#1290=CARTESIAN_POINT('Origin',(30.,-72.5,20.));
#1291=CARTESIAN_POINT('',(-28.,72.5,20.));
#1292=CARTESIAN_POINT('Origin',(-30.,72.5,20.));
#1293=CARTESIAN_POINT('',(32.,72.5,20.));
#1294=CARTESIAN_POINT('Origin',(30.,72.5,20.));
#1295=CARTESIAN_POINT('Origin',(-30.,-69.,0.));
#1296=CARTESIAN_POINT('',(-30.,69.,0.));
#1297=CARTESIAN_POINT('Origin',(-2.22044604925031E-15,2.22044604925031E-14,
20.));
#1298=CARTESIAN_POINT('',(-26.5,-75.,20.));
#1299=CARTESIAN_POINT('',(-32.5,-75.,20.));
#1300=CARTESIAN_POINT('',(-26.5,-71.,20.));
#1301=CARTESIAN_POINT('',(-26.5,-37.5,20.));
#1302=CARTESIAN_POINT('',(-28.5,-69.,20.));
#1303=CARTESIAN_POINT('Origin',(-28.5,-71.,20.));
#1304=CARTESIAN_POINT('',(-30.,-69.,20.));
#1305=CARTESIAN_POINT('',(-26.5,-69.,20.));
#1306=CARTESIAN_POINT('',(-30.,-72.5,20.));
#1307=CARTESIAN_POINT('',(-28.,-72.5,20.));
#1308=CARTESIAN_POINT('Origin',(-30.,-72.5,20.));
#1309=CARTESIAN_POINT('Origin',(15.7,-65.15,2.));
#1310=CARTESIAN_POINT('',(13.95,-65.15,0.));
#1311=CARTESIAN_POINT('',(13.95,-65.15,2.));
#1312=CARTESIAN_POINT('Origin',(15.7,-65.15,0.));
#1313=CARTESIAN_POINT('Origin',(15.7,-7.34999999999999,2.));
#1314=CARTESIAN_POINT('',(13.95,-7.34999999999999,0.));
#1315=CARTESIAN_POINT('',(13.95,-7.34999999999999,2.));
#1316=CARTESIAN_POINT('Origin',(15.7,-7.34999999999999,0.));
#1317=CARTESIAN_POINT('Origin',(-15.7,-65.15,2.));
#1318=CARTESIAN_POINT('',(-17.45,-65.15,0.));
#1319=CARTESIAN_POINT('',(-17.45,-65.15,2.));
#1320=CARTESIAN_POINT('Origin',(-15.7,-65.15,0.));
#1321=CARTESIAN_POINT('Origin',(-15.7,-7.34999999999999,2.));
#1322=CARTESIAN_POINT('',(-17.45,-7.34999999999999,0.));
#1323=CARTESIAN_POINT('',(-17.45,-7.34999999999999,2.));
#1324=CARTESIAN_POINT('Origin',(-15.7,-7.34999999999999,0.));
#1325=CARTESIAN_POINT('Origin',(22.5,59.5,2.));
#1326=CARTESIAN_POINT('',(20.75,59.5,0.));
#1327=CARTESIAN_POINT('',(20.75,59.5,2.));
#1328=CARTESIAN_POINT('Origin',(22.5,59.5,0.));
#1329=CARTESIAN_POINT('Origin',(-22.5,59.5,2.));
#1330=CARTESIAN_POINT('',(-24.25,59.5,0.));
#1331=CARTESIAN_POINT('',(-24.25,59.5,2.));
#1332=CARTESIAN_POINT('Origin',(-22.5,59.5,0.));
#1333=CARTESIAN_POINT('Origin',(22.5,9.50000000000003,2.));
#1334=CARTESIAN_POINT('',(20.75,9.50000000000003,0.));
#1335=CARTESIAN_POINT('',(20.75,9.50000000000003,2.));
#1336=CARTESIAN_POINT('Origin',(22.5,9.50000000000003,0.));
#1337=CARTESIAN_POINT('Origin',(-22.5,9.50000000000003,2.));
#1338=CARTESIAN_POINT('',(-24.25,9.50000000000003,0.));
#1339=CARTESIAN_POINT('',(-24.25,9.50000000000003,2.));
#1340=CARTESIAN_POINT('Origin',(-22.5,9.50000000000003,0.));
#1341=CARTESIAN_POINT('Origin',(28.5,-71.,0.));
#1342=CARTESIAN_POINT('',(28.5,-69.,0.));
#1343=CARTESIAN_POINT('',(26.5,-71.,0.));
#1344=CARTESIAN_POINT('Origin',(30.,-69.,0.));
#1345=CARTESIAN_POINT('',(30.,-69.,0.));
#1346=CARTESIAN_POINT('Origin',(-28.5,-71.,0.));
#1347=CARTESIAN_POINT('',(-26.5,-71.,0.));
#1348=CARTESIAN_POINT('',(-28.5,-69.,0.));
#1349=CARTESIAN_POINT('Origin',(-26.5,-72.5,0.));
#1350=CARTESIAN_POINT('',(-26.5,-75.,1.));
#1351=CARTESIAN_POINT('Origin',(28.5000000000001,71.,0.));
#1352=CARTESIAN_POINT('',(26.5000000000001,71.,0.));
#1353=CARTESIAN_POINT('',(28.5000000000001,69.,0.));
#1354=CARTESIAN_POINT('Origin',(26.5000000000001,72.5,0.));
#1355=CARTESIAN_POINT('',(26.5000000000001,72.5,0.));
#1356=CARTESIAN_POINT('Origin',(-28.5,71.,0.));
#1357=CARTESIAN_POINT('',(-28.5,69.,0.));
#1358=CARTESIAN_POINT('',(-26.5,71.,0.));
#1359=CARTESIAN_POINT('Origin',(-26.5,69.,0.));
#1360=CARTESIAN_POINT('',(-26.5,72.5,0.));
#1361=CARTESIAN_POINT('Origin',(30.,69.,0.));
#1362=CARTESIAN_POINT('',(30.,69.,0.));
#1363=CARTESIAN_POINT('Origin',(26.5,-69.,0.));
#1364=CARTESIAN_POINT('',(26.5000000000001,-75.,10.));
#1365=CARTESIAN_POINT('Origin',(-26.5,-69.,0.));
#1366=CARTESIAN_POINT('',(-30.,-69.,0.));
#1367=CARTESIAN_POINT('Origin',(-30.,-72.5,0.));
#1368=CARTESIAN_POINT('',(-28.,-72.5,0.));
#1369=CARTESIAN_POINT('',(-28.,-72.5,0.));
#1370=CARTESIAN_POINT('Origin',(-30.,-72.5,0.));
#1371=CARTESIAN_POINT('Origin',(30.,-72.5,0.));
#1372=CARTESIAN_POINT('',(32.,-72.5,0.));
#1373=CARTESIAN_POINT('',(32.,-72.5,0.));
#1374=CARTESIAN_POINT('Origin',(30.,-72.5,0.));
#1375=CARTESIAN_POINT('Origin',(-30.,72.5,0.));
#1376=CARTESIAN_POINT('',(-28.,72.5,0.));
#1377=CARTESIAN_POINT('',(-28.,72.5,0.));
#1378=CARTESIAN_POINT('Origin',(-30.,72.5,0.));
#1379=CARTESIAN_POINT('Origin',(-26.5,72.5,0.));
#1380=CARTESIAN_POINT('Origin',(-30.,69.,0.));
#1381=CARTESIAN_POINT('Origin',(-30.,-69.,0.));
#1382=CARTESIAN_POINT('Origin',(26.5000000000001,69.,0.));
#1383=CARTESIAN_POINT('Origin',(30.,72.5,0.));
#1384=CARTESIAN_POINT('',(32.,72.5,0.));
#1385=CARTESIAN_POINT('',(32.,72.5,0.));
#1386=CARTESIAN_POINT('Origin',(30.,72.5,0.));
#1387=CARTESIAN_POINT('Origin',(32.5,75.,0.));
#1388=CARTESIAN_POINT('',(32.5,75.,0.));
#1389=CARTESIAN_POINT('',(32.5,75.,0.));
#1390=CARTESIAN_POINT('',(32.5,75.,0.));
#1391=CARTESIAN_POINT('Origin',(32.5,-75.,0.));
#1392=CARTESIAN_POINT('',(32.5,-75.,0.));
#1393=CARTESIAN_POINT('',(32.5,-75.,0.));
#1394=CARTESIAN_POINT('',(32.5,-75.,0.));
#1395=CARTESIAN_POINT('Origin',(-32.5,-75.,0.));
#1396=CARTESIAN_POINT('',(-32.5,-75.,0.));
#1397=CARTESIAN_POINT('Origin',(-2.22044604925031E-15,2.22044604925031E-14,
0.));
#1398=CARTESIAN_POINT('',(0.,0.,2.));
#1399=UNCERTAINTY_MEASURE_WITH_UNIT(LENGTH_MEASURE(0.01),#1403,
'DISTANCE_ACCURACY_VALUE',
'Maximum model space distance between geometric entities at asserted c
onnectivities');
#1400=UNCERTAINTY_MEASURE_WITH_UNIT(LENGTH_MEASURE(0.01),#1403,
'DISTANCE_ACCURACY_VALUE',
'Maximum model space distance between geometric entities at asserted c
onnectivities');
#1401=(
GEOMETRIC_REPRESENTATION_CONTEXT(3)
GLOBAL_UNCERTAINTY_ASSIGNED_CONTEXT((#1399))
GLOBAL_UNIT_ASSIGNED_CONTEXT((#1403,#1405,#1406))
REPRESENTATION_CONTEXT('','3D')
);
#1402=(
GEOMETRIC_REPRESENTATION_CONTEXT(3)
GLOBAL_UNCERTAINTY_ASSIGNED_CONTEXT((#1400))
GLOBAL_UNIT_ASSIGNED_CONTEXT((#1403,#1405,#1406))
REPRESENTATION_CONTEXT('','3D')
);
#1403=(
LENGTH_UNIT()
NAMED_UNIT(*)
SI_UNIT(.MILLI.,.METRE.)
);
#1404=(
LENGTH_UNIT()
NAMED_UNIT(*)
SI_UNIT(.CENTI.,.METRE.)
);
#1405=(
NAMED_UNIT(*)
PLANE_ANGLE_UNIT()
SI_UNIT($,.RADIAN.)
);
#1406=(
NAMED_UNIT(*)
SI_UNIT($,.STERADIAN.)
SOLID_ANGLE_UNIT()
);
#1407=SHAPE_DEFINITION_REPRESENTATION(#1408,#1409);
#1408=PRODUCT_DEFINITION_SHAPE('',$,#1411);
#1409=SHAPE_REPRESENTATION('',(#858),#1401);
#1410=PRODUCT_DEFINITION_CONTEXT('part definition',#1415,'design');
#1411=PRODUCT_DEFINITION('box_vb_dc','box_vb_dc',#1412,#1410);
#1412=PRODUCT_DEFINITION_FORMATION('',$,#1417);
#1413=PRODUCT_RELATED_PRODUCT_CATEGORY('box_vb_dc','box_vb_dc',(#1417));
#1414=APPLICATION_PROTOCOL_DEFINITION('international standard',
'automotive_design',2009,#1415);
#1415=APPLICATION_CONTEXT(
'Core Data for Automotive Mechanical Design Process');
#1416=PRODUCT_CONTEXT('part definition',#1415,'mechanical');
#1417=PRODUCT('box_vb_dc','box_vb_dc',$,(#1416));
#1418=PRESENTATION_STYLE_ASSIGNMENT((#1420));
#1419=PRESENTATION_STYLE_ASSIGNMENT((#1421));
#1420=SURFACE_STYLE_USAGE(.BOTH.,#1424);
#1421=SURFACE_STYLE_USAGE(.BOTH.,#1425);
#1422=SURFACE_STYLE_RENDERING_WITH_PROPERTIES($,#1432,(#1423));
#1423=SURFACE_STYLE_TRANSPARENT(0.);
#1424=SURFACE_SIDE_STYLE('',(#1426,#1422));
#1425=SURFACE_SIDE_STYLE('',(#1427));
#1426=SURFACE_STYLE_FILL_AREA(#1428);
#1427=SURFACE_STYLE_FILL_AREA(#1429);
#1428=FILL_AREA_STYLE('',(#1430));
#1429=FILL_AREA_STYLE('',(#1431));
#1430=FILL_AREA_STYLE_COLOUR('',#1432);
#1431=FILL_AREA_STYLE_COLOUR('',#1433);
#1432=COLOUR_RGB('',0.749019607843137,0.749019607843137,0.749019607843137);
#1433=COLOUR_RGB('',1.,1.,0.);
ENDSEC;
END-ISO-10303-21;
