ISO-10303-21;
HEADER;
FILE_DESCRIPTION(('STEP AP203'),
    '1');
FILE_NAME('box_vb_dc',
    '',
    ('UNSPECIFIED'),
    ('UNSPECIFIED'),
    'C3D Converter',
    'C3D Toolkit',
    '');
FILE_SCHEMA(('CONFIG_CONTROL_DESIGN'));
ENDSEC;

DATA;
#1=PRODUCT_DEFINITION('','UNSPECIFIED',#28,#31);
#2=SHAPE_DEFINITION_REPRESENTATION(#26,#3);
#3=SHAPE_REPRESENTATION('NONE',(#4),#8);
#4=AXIS2_PLACEMENT_3D('',#5,#6,#7);
#5=CARTESIAN_POINT('',(0.,0.,0.));
#6=DIRECTION('',(0.,0.,1.));
#7=DIRECTION('',(1.,0.,0.));
#8=(GEOMETRIC_REPRESENTATION_CONTEXT(3)GLOBAL_UNCERTAINTY_ASSIGNED_CONTEXT((#10))
GLOBAL_UNIT_ASSIGNED_CONTEXT((#9,#11,#12))REPRESENTATION_CONTEXT('NONE','NONE'));
#9=(LENGTH_UNIT()NAMED_UNIT(*)SI_UNIT(.MILLI.,.METRE.));
#10=UNCERTAINTY_MEASURE_WITH_UNIT(LENGTH_MEASURE(1.E-5),#9,'NONE','NONE');
#11=(NAMED_UNIT(*)PLANE_ANGLE_UNIT()SI_UNIT($,.RADIAN.));
#12=(NAMED_UNIT(*)SI_UNIT($,.STERADIAN.)SOLID_ANGLE_UNIT());
#13=MANIFOLD_SOLID_BREP('',#14);
#14=CLOSED_SHELL('',(#53,#54,#55,#56,#57,#58,#59,#60,#61,#62,#63,#64,#65,#66,#67,
#68,#69,#70,#71,#72,#73,#74,#75,#76,#77,#78,#79,#80));
#15=COLOUR_RGB('',0.564705882352941,0.564705882352941,0.564705882352941);
#16=FILL_AREA_STYLE_COLOUR('',#15);
#17=FILL_AREA_STYLE($,(#16));
#18=SURFACE_STYLE_FILL_AREA(#17);
#19=SURFACE_SIDE_STYLE('',(#18));
#20=SURFACE_STYLE_USAGE(.BOTH.,#19);
#21=PRESENTATION_STYLE_ASSIGNMENT((#20));
#22=MECHANICAL_DESIGN_GEOMETRIC_PRESENTATION_REPRESENTATION('NONE',(#23),#8);
#23=STYLED_ITEM('',(#21),#13);
#24=ADVANCED_BREP_SHAPE_REPRESENTATION('NONE',(#13),#8);
#25=SHAPE_REPRESENTATION_RELATIONSHIP('','',#3,#24);
#26=PRODUCT_DEFINITION_SHAPE('NONE','NONE',#1);
#27=MECHANICAL_CONTEXT('NONE',#32,'mechanical');
#28=PRODUCT_DEFINITION_FORMATION_WITH_SPECIFIED_SOURCE('ANY','UNSPECIFIED',#29,.NOT_KNOWN.);
#29=PRODUCT('','\X2\0414043504420430043B044C\X0\','NONE',(#27));
#30=PRODUCT_RELATED_PRODUCT_CATEGORY('detail','',(#29));
#31=DESIGN_CONTEXT('detailed design',#32,'design');
#32=APPLICATION_CONTEXT('configuration controlled 3d designs of mechanical parts and assemblies');
#33=APPLICATION_PROTOCOL_DEFINITION('international standard','config_control_design',
1994,#32);
#34=CC_DESIGN_DATE_AND_TIME_ASSIGNMENT(#35,#39,(#1));
#35=DATE_AND_TIME(#36,#37);
#36=CALENDAR_DATE(0,1,1);
#37=LOCAL_TIME(0,0,0.,#38);
#38=COORDINATED_UNIVERSAL_TIME_OFFSET(0,0,.AHEAD.);
#39=DATE_TIME_ROLE('creation_date');
#40=CC_DESIGN_APPROVAL(#41,(#1));
#41=APPROVAL(#42,'UNSPECIFIED');
#42=APPROVAL_STATUS('not_yet_approved');
#43=APPROVAL_DATE_TIME(#44,#41);
#44=DATE_AND_TIME(#45,#46);
#45=CALENDAR_DATE(0,1,1);
#46=LOCAL_TIME(0,0,0.,#47);
#47=COORDINATED_UNIVERSAL_TIME_OFFSET(0,0,.AHEAD.);
#48=PERSON('UNSPECIFIED','pr11','UNSPECIFIED',('UNSPECIFIED'),('UNSPECIFIED'),('UNSPECIFIED'));
#49=ORGANIZATION('UNSPECIFIED','UNSPECIFIED','UNSPECIFIED');
#50=PERSON_AND_ORGANIZATION(#48,#49);
#51=PERSON_AND_ORGANIZATION_ROLE('creator');
#52=CC_DESIGN_PERSON_AND_ORGANIZATION_ASSIGNMENT(#50,#51,(#28,#1));
#53=ADVANCED_FACE('',(#81,#83,#85,#87,#89,#91,#93,#95,#97),#99,.F.);
#54=ADVANCED_FACE('',(#104,#106,#108,#110,#112),#114,.T.);
#55=ADVANCED_FACE('',(#119,#121),#123,.F.);
#56=ADVANCED_FACE('',(#128,#130),#132,.F.);
#57=ADVANCED_FACE('',(#137,#139),#141,.F.);
#58=ADVANCED_FACE('',(#146,#148),#150,.F.);
#59=ADVANCED_FACE('',(#155),#157,.T.);
#60=ADVANCED_FACE('',(#162),#164,.T.);
#61=ADVANCED_FACE('',(#169),#171,.T.);
#62=ADVANCED_FACE('',(#176),#178,.T.);
#63=ADVANCED_FACE('',(#183,#185),#187,.F.);
#64=ADVANCED_FACE('',(#192,#194),#196,.F.);
#65=ADVANCED_FACE('',(#201,#203),#205,.F.);
#66=ADVANCED_FACE('',(#210,#212),#214,.F.);
#67=ADVANCED_FACE('',(#219),#221,.F.);
#68=ADVANCED_FACE('',(#226),#228,.F.);
#69=ADVANCED_FACE('',(#233),#235,.F.);
#70=ADVANCED_FACE('',(#240),#242,.F.);
#71=ADVANCED_FACE('',(#247),#249,.F.);
#72=ADVANCED_FACE('',(#254),#256,.F.);
#73=ADVANCED_FACE('',(#261),#263,.F.);
#74=ADVANCED_FACE('',(#268),#270,.F.);
#75=ADVANCED_FACE('',(#275),#277,.F.);
#76=ADVANCED_FACE('',(#282),#284,.F.);
#77=ADVANCED_FACE('',(#289),#291,.F.);
#78=ADVANCED_FACE('',(#296),#298,.F.);
#79=ADVANCED_FACE('',(#303),#305,.F.);
#80=ADVANCED_FACE('',(#310,#312,#314,#316,#318),#320,.T.);
#81=FACE_BOUND('',#82,.T.);
#82=EDGE_LOOP('',(#325,#326,#327,#328));
#83=FACE_BOUND('',#84,.T.);
#84=EDGE_LOOP('',(#329));
#85=FACE_BOUND('',#86,.T.);
#86=EDGE_LOOP('',(#330));
#87=FACE_BOUND('',#88,.T.);
#88=EDGE_LOOP('',(#331));
#89=FACE_BOUND('',#90,.T.);
#90=EDGE_LOOP('',(#332));
#91=FACE_BOUND('',#92,.T.);
#92=EDGE_LOOP('',(#333));
#93=FACE_BOUND('',#94,.T.);
#94=EDGE_LOOP('',(#334));
#95=FACE_BOUND('',#96,.T.);
#96=EDGE_LOOP('',(#335));
#97=FACE_BOUND('',#98,.T.);
#98=EDGE_LOOP('',(#336));
#99=PLANE('',#100);
#100=AXIS2_PLACEMENT_3D('',#101,#102,#103);
#101=CARTESIAN_POINT('',(0.,0.,0.));
#102=DIRECTION('',(1.,0.,-1.83697019872103E-16));
#103=DIRECTION('',(-1.83697019872103E-16,1.22464679914735E-16,-1.));
#104=FACE_BOUND('',#105,.T.);
#105=EDGE_LOOP('',(#337,#338,#339,#340,#341,#342,#343,#344,#345,#346,#347,#348,#349,
#350));
#106=FACE_BOUND('',#107,.T.);
#107=EDGE_LOOP('',(#351));
#108=FACE_BOUND('',#109,.T.);
#109=EDGE_LOOP('',(#352));
#110=FACE_BOUND('',#111,.T.);
#111=EDGE_LOOP('',(#353));
#112=FACE_BOUND('',#113,.T.);
#113=EDGE_LOOP('',(#354));
#114=PLANE('',#115);
#115=AXIS2_PLACEMENT_3D('',#116,#117,#118);
#116=CARTESIAN_POINT('',(2.,0.,-3.67394039744206E-16));
#117=DIRECTION('',(1.,0.,-1.83697019872103E-16));
#118=DIRECTION('',(-1.83697019872103E-16,1.22464679914735E-16,-1.));
#119=FACE_OUTER_BOUND('',#120,.T.);
#120=EDGE_LOOP('',(#355));
#121=FACE_OUTER_BOUND('',#122,.T.);
#122=EDGE_LOOP('',(#356));
#123=CYLINDRICAL_SURFACE('',#124,1.75);
#124=AXIS2_PLACEMENT_3D('',#125,#126,#127);
#125=CARTESIAN_POINT('',(-34.,54.,-23.6597898867919));
#126=DIRECTION('',(1.,0.,-1.83697019872103E-16));
#127=DIRECTION('',(1.12481983699639E-32,-1.,6.12323399573677E-17));
#128=FACE_OUTER_BOUND('',#129,.T.);
#129=EDGE_LOOP('',(#357));
#130=FACE_OUTER_BOUND('',#131,.T.);
#131=EDGE_LOOP('',(#358));
#132=CYLINDRICAL_SURFACE('',#133,1.75);
#133=AXIS2_PLACEMENT_3D('',#134,#135,#136);
#134=CARTESIAN_POINT('',(-34.,54.,21.3402101132081));
#135=DIRECTION('',(1.,0.,-1.83697019872103E-16));
#136=DIRECTION('',(-1.83697019872103E-16,-6.12323399573677E-17,-1.));
#137=FACE_OUTER_BOUND('',#138,.T.);
#138=EDGE_LOOP('',(#359));
#139=FACE_OUTER_BOUND('',#140,.T.);
#140=EDGE_LOOP('',(#360));
#141=CYLINDRICAL_SURFACE('',#142,1.75);
#142=AXIS2_PLACEMENT_3D('',#143,#144,#145);
#143=CARTESIAN_POINT('',(-34.,4.00000000000002,21.3402101132081));
#144=DIRECTION('',(1.,0.,-1.83697019872103E-16));
#145=DIRECTION('',(-1.83697019872103E-16,-6.12323399573677E-17,-1.));
#146=FACE_OUTER_BOUND('',#147,.T.);
#147=EDGE_LOOP('',(#361));
#148=FACE_OUTER_BOUND('',#149,.T.);
#149=EDGE_LOOP('',(#362));
#150=CYLINDRICAL_SURFACE('',#151,1.75);
#151=AXIS2_PLACEMENT_3D('',#152,#153,#154);
#152=CARTESIAN_POINT('',(-34.,4.00000000000001,-23.6597898867919));
#153=DIRECTION('',(1.,0.,-1.83697019872103E-16));
#154=DIRECTION('',(-1.12481983699639E-32,1.,-6.12323399573677E-17));
#155=FACE_BOUND('',#156,.T.);
#156=EDGE_LOOP('',(#363,#364,#365,#366));
#157=PLANE('',#158);
#158=AXIS2_PLACEMENT_3D('',#159,#160,#161);
#159=CARTESIAN_POINT('',(5.97015314584334E-15,-60.,32.5));
#160=DIRECTION('',(0.,-1.,-2.18628534080031E-16));
#161=DIRECTION('',(-1.83697019872103E-16,2.18628534080031E-16,-1.));
#162=FACE_BOUND('',#163,.T.);
#163=EDGE_LOOP('',(#367,#368,#369,#370,#371,#372,#373,#374));
#164=PLANE('',#165);
#165=AXIS2_PLACEMENT_3D('',#166,#167,#168);
#166=CARTESIAN_POINT('',(5.97015314584335E-15,60.,32.5));
#167=DIRECTION('',(0.,-1.1842378929335E-16,1.));
#168=DIRECTION('',(-2.62953635073671E-32,-1.,-1.1842378929335E-16));
#169=FACE_BOUND('',#170,.T.);
#170=EDGE_LOOP('',(#375,#376,#377,#378));
#171=PLANE('',#172);
#172=AXIS2_PLACEMENT_3D('',#173,#174,#175);
#173=CARTESIAN_POINT('',(-5.97015314584334E-15,60.,-32.5));
#174=DIRECTION('',(0.,1.,2.18628534080031E-16));
#175=DIRECTION('',(1.83697019872103E-16,-2.18628534080031E-16,1.));
#176=FACE_BOUND('',#177,.T.);
#177=EDGE_LOOP('',(#379,#380,#381,#382));
#178=PLANE('',#179);
#179=AXIS2_PLACEMENT_3D('',#180,#181,#182);
#180=CARTESIAN_POINT('',(-5.97015314584335E-15,-60.,-32.5));
#181=DIRECTION('',(0.,1.1842378929335E-16,-1.));
#182=DIRECTION('',(2.62953635073671E-32,1.,1.1842378929335E-16));
#183=FACE_OUTER_BOUND('',#184,.T.);
#184=EDGE_LOOP('',(#383));
#185=FACE_OUTER_BOUND('',#186,.T.);
#186=EDGE_LOOP('',(#384));
#187=CYLINDRICAL_SURFACE('',#188,1.75);
#188=AXIS2_PLACEMENT_3D('',#189,#190,#191);
#189=CARTESIAN_POINT('',(-5.51091059616309E-15,57.5,-30.));
#190=DIRECTION('',(1.,0.,-1.83697019872103E-16));
#191=DIRECTION('',(-2.24963967399279E-32,-1.,-1.22464679914735E-16));
#192=FACE_OUTER_BOUND('',#193,.T.);
#193=EDGE_LOOP('',(#385));
#194=FACE_OUTER_BOUND('',#195,.T.);
#195=EDGE_LOOP('',(#386));
#196=CYLINDRICAL_SURFACE('',#197,1.75);
#197=AXIS2_PLACEMENT_3D('',#198,#199,#200);
#198=CARTESIAN_POINT('',(-5.51091059616309E-15,-57.5,-30.));
#199=DIRECTION('',(1.,0.,-1.83697019872103E-16));
#200=DIRECTION('',(1.83697019872103E-16,-1.22464679914735E-16,1.));
#201=FACE_OUTER_BOUND('',#202,.T.);
#202=EDGE_LOOP('',(#387));
#203=FACE_OUTER_BOUND('',#204,.T.);
#204=EDGE_LOOP('',(#388));
#205=CYLINDRICAL_SURFACE('',#206,1.75);
#206=AXIS2_PLACEMENT_3D('',#207,#208,#209);
#207=CARTESIAN_POINT('',(5.51091059616309E-15,-57.5,30.));
#208=DIRECTION('',(1.,0.,-1.83697019872103E-16));
#209=DIRECTION('',(2.24963967399279E-32,1.,1.22464679914735E-16));
#210=FACE_OUTER_BOUND('',#211,.T.);
#211=EDGE_LOOP('',(#389));
#212=FACE_OUTER_BOUND('',#213,.T.);
#213=EDGE_LOOP('',(#390));
#214=CYLINDRICAL_SURFACE('',#215,1.75);
#215=AXIS2_PLACEMENT_3D('',#216,#217,#218);
#216=CARTESIAN_POINT('',(5.51091059616309E-15,57.5,30.));
#217=DIRECTION('',(1.,0.,-1.83697019872103E-16));
#218=DIRECTION('',(-1.83697019872103E-16,1.22464679914735E-16,-1.));
#219=FACE_BOUND('',#220,.T.);
#220=EDGE_LOOP('',(#391,#392,#393,#394));
#221=PLANE('',#222);
#222=AXIS2_PLACEMENT_3D('',#223,#224,#225);
#223=CARTESIAN_POINT('',(1.99999999999999,55.,-27.5));
#224=DIRECTION('',(-2.368475785867E-16,0.,-1.));
#225=DIRECTION('',(0.,1.,0.));
#226=FACE_BOUND('',#227,.T.);
#227=EDGE_LOOP('',(#395,#396,#397,#398));
#228=PLANE('',#229);
#229=AXIS2_PLACEMENT_3D('',#230,#231,#232);
#230=CARTESIAN_POINT('',(1.99999999999999,58.,-27.5));
#231=DIRECTION('',(0.,1.,0.));
#232=DIRECTION('',(1.81672858575026E-16,0.,1.));
#233=FACE_BOUND('',#234,.T.);
#234=EDGE_LOOP('',(#399,#400,#401,#402));
#235=PLANE('',#236);
#236=AXIS2_PLACEMENT_3D('',#237,#238,#239);
#237=CARTESIAN_POINT('',(2.,58.,27.5));
#238=DIRECTION('',(2.368475785867E-16,0.,1.));
#239=DIRECTION('',(0.,-1.,0.));
#240=FACE_BOUND('',#241,.T.);
#241=EDGE_LOOP('',(#403,#404,#405,#406));
#242=PLANE('',#243);
#243=AXIS2_PLACEMENT_3D('',#244,#245,#246);
#244=CARTESIAN_POINT('',(2.,55.,27.5));
#245=DIRECTION('',(0.,1.,0.));
#246=DIRECTION('',(2.96059473233375E-16,0.,1.));
#247=FACE_BOUND('',#248,.T.);
#248=EDGE_LOOP('',(#407,#408,#409,#410));
#249=PLANE('',#250);
#250=AXIS2_PLACEMENT_3D('',#251,#252,#253);
#251=CARTESIAN_POINT('',(2.00000000000001,-54.9691693964421,32.5));
#252=DIRECTION('',(0.,-1.,0.));
#253=DIRECTION('',(0.,0.,-1.));
#254=FACE_BOUND('',#255,.T.);
#255=EDGE_LOOP('',(#411,#412,#413,#414));
#256=PLANE('',#257);
#257=AXIS2_PLACEMENT_3D('',#258,#259,#260);
#258=CARTESIAN_POINT('',(2.00000000000001,55.,30.5));
#259=DIRECTION('',(2.368475785867E-16,6.45947941600091E-17,1.));
#260=DIRECTION('',(0.,-1.,6.45947941600091E-17));
#261=FACE_BOUND('',#262,.T.);
#262=EDGE_LOOP('',(#415,#416,#417,#418));
#263=PLANE('',#264);
#264=AXIS2_PLACEMENT_3D('',#265,#266,#267);
#265=CARTESIAN_POINT('',(2.00000000000001,-55.,30.5));
#266=DIRECTION('',(5.60967754823825E-31,-1.,2.36847578586698E-15));
#267=DIRECTION('',(-2.96059473233372E-16,-2.36847578586698E-15,-1.));
#268=FACE_BOUND('',#269,.T.);
#269=EDGE_LOOP('',(#419,#420,#421,#422));
#270=PLANE('',#271);
#271=AXIS2_PLACEMENT_3D('',#272,#273,#274);
#272=CARTESIAN_POINT('',(2.,-55.,27.5));
#273=DIRECTION('',(2.368475785867E-16,0.,1.));
#274=DIRECTION('',(0.,-1.,0.));
#275=FACE_BOUND('',#276,.T.);
#276=EDGE_LOOP('',(#423,#424,#425,#426));
#277=PLANE('',#278);
#278=AXIS2_PLACEMENT_3D('',#279,#280,#281);
#279=CARTESIAN_POINT('',(2.,-58.,27.5));
#280=DIRECTION('',(0.,-1.,0.));
#281=DIRECTION('',(-1.81672858575026E-16,0.,-1.));
#282=FACE_BOUND('',#283,.T.);
#283=EDGE_LOOP('',(#427,#428,#429,#430));
#284=PLANE('',#285);
#285=AXIS2_PLACEMENT_3D('',#286,#287,#288);
#286=CARTESIAN_POINT('',(1.99999999999999,-58.,-27.5));
#287=DIRECTION('',(-2.368475785867E-16,0.,-1.));
#288=DIRECTION('',(0.,1.,0.));
#289=FACE_BOUND('',#290,.T.);
#290=EDGE_LOOP('',(#431,#432,#433,#434));
#291=PLANE('',#292);
#292=AXIS2_PLACEMENT_3D('',#293,#294,#295);
#293=CARTESIAN_POINT('',(1.99999999999999,-55.,-27.5));
#294=DIRECTION('',(-5.60967754823836E-31,-1.,-2.36847578586702E-15));
#295=DIRECTION('',(-1.48029736616689E-16,2.36847578586702E-15,-1.));
#296=FACE_BOUND('',#297,.T.);
#297=EDGE_LOOP('',(#435,#436,#437,#438));
#298=PLANE('',#299);
#299=AXIS2_PLACEMENT_3D('',#300,#301,#302);
#300=CARTESIAN_POINT('',(1.99999999999999,-55.,-30.5));
#301=DIRECTION('',(-2.368475785867E-16,-6.45947941600091E-17,-1.));
#302=DIRECTION('',(0.,1.,-6.45947941600091E-17));
#303=FACE_BOUND('',#304,.T.);
#304=EDGE_LOOP('',(#439,#440,#441,#442));
#305=PLANE('',#306);
#306=AXIS2_PLACEMENT_3D('',#307,#308,#309);
#307=CARTESIAN_POINT('',(1.99999999999999,55.,-30.5));
#308=DIRECTION('',(-5.60967754823831E-31,1.,-2.368475785867E-15));
#309=DIRECTION('',(1.48029736616688E-16,2.368475785867E-15,1.));
#310=FACE_BOUND('',#311,.T.);
#311=EDGE_LOOP('',(#443,#444,#445,#446,#447,#448,#449,#450,#451,#452,#453,#454,#455,
#456,#457,#458,#459,#460));
#312=FACE_BOUND('',#313,.T.);
#313=EDGE_LOOP('',(#461));
#314=FACE_BOUND('',#315,.T.);
#315=EDGE_LOOP('',(#462));
#316=FACE_BOUND('',#317,.T.);
#317=EDGE_LOOP('',(#463));
#318=FACE_BOUND('',#319,.T.);
#319=EDGE_LOOP('',(#464));
#320=PLANE('',#321);
#321=AXIS2_PLACEMENT_3D('',#322,#323,#324);
#322=CARTESIAN_POINT('',(17.,0.,-3.12284933782575E-15));
#323=DIRECTION('',(1.,0.,-1.83697019872103E-16));
#324=DIRECTION('',(1.12481983699639E-32,-1.,6.12323399573677E-17));
#325=ORIENTED_EDGE('',*,*,#465,.F.);
#326=ORIENTED_EDGE('',*,*,#466,.F.);
#327=ORIENTED_EDGE('',*,*,#467,.F.);
#328=ORIENTED_EDGE('',*,*,#468,.F.);
#329=ORIENTED_EDGE('',*,*,#469,.T.);
#330=ORIENTED_EDGE('',*,*,#470,.T.);
#331=ORIENTED_EDGE('',*,*,#471,.T.);
#332=ORIENTED_EDGE('',*,*,#472,.T.);
#333=ORIENTED_EDGE('',*,*,#473,.T.);
#334=ORIENTED_EDGE('',*,*,#474,.T.);
#335=ORIENTED_EDGE('',*,*,#475,.T.);
#336=ORIENTED_EDGE('',*,*,#476,.T.);
#337=ORIENTED_EDGE('',*,*,#477,.F.);
#338=ORIENTED_EDGE('',*,*,#478,.F.);
#339=ORIENTED_EDGE('',*,*,#479,.F.);
#340=ORIENTED_EDGE('',*,*,#480,.F.);
#341=ORIENTED_EDGE('',*,*,#481,.F.);
#342=ORIENTED_EDGE('',*,*,#482,.T.);
#343=ORIENTED_EDGE('',*,*,#483,.F.);
#344=ORIENTED_EDGE('',*,*,#484,.F.);
#345=ORIENTED_EDGE('',*,*,#485,.F.);
#346=ORIENTED_EDGE('',*,*,#486,.F.);
#347=ORIENTED_EDGE('',*,*,#487,.F.);
#348=ORIENTED_EDGE('',*,*,#488,.F.);
#349=ORIENTED_EDGE('',*,*,#489,.F.);
#350=ORIENTED_EDGE('',*,*,#490,.F.);
#351=ORIENTED_EDGE('',*,*,#491,.T.);
#352=ORIENTED_EDGE('',*,*,#492,.T.);
#353=ORIENTED_EDGE('',*,*,#493,.T.);
#354=ORIENTED_EDGE('',*,*,#494,.T.);
#355=ORIENTED_EDGE('',*,*,#494,.F.);
#356=ORIENTED_EDGE('',*,*,#472,.F.);
#357=ORIENTED_EDGE('',*,*,#493,.F.);
#358=ORIENTED_EDGE('',*,*,#471,.F.);
#359=ORIENTED_EDGE('',*,*,#492,.F.);
#360=ORIENTED_EDGE('',*,*,#470,.F.);
#361=ORIENTED_EDGE('',*,*,#491,.F.);
#362=ORIENTED_EDGE('',*,*,#469,.F.);
#363=ORIENTED_EDGE('',*,*,#465,.T.);
#364=ORIENTED_EDGE('',*,*,#495,.T.);
#365=ORIENTED_EDGE('',*,*,#496,.F.);
#366=ORIENTED_EDGE('',*,*,#497,.F.);
#367=ORIENTED_EDGE('',*,*,#498,.T.);
#368=ORIENTED_EDGE('',*,*,#499,.F.);
#369=ORIENTED_EDGE('',*,*,#500,.F.);
#370=ORIENTED_EDGE('',*,*,#466,.T.);
#371=ORIENTED_EDGE('',*,*,#497,.T.);
#372=ORIENTED_EDGE('',*,*,#501,.F.);
#373=ORIENTED_EDGE('',*,*,#502,.T.);
#374=ORIENTED_EDGE('',*,*,#481,.T.);
#375=ORIENTED_EDGE('',*,*,#467,.T.);
#376=ORIENTED_EDGE('',*,*,#500,.T.);
#377=ORIENTED_EDGE('',*,*,#503,.F.);
#378=ORIENTED_EDGE('',*,*,#504,.F.);
#379=ORIENTED_EDGE('',*,*,#468,.T.);
#380=ORIENTED_EDGE('',*,*,#504,.T.);
#381=ORIENTED_EDGE('',*,*,#505,.F.);
#382=ORIENTED_EDGE('',*,*,#495,.F.);
#383=ORIENTED_EDGE('',*,*,#506,.F.);
#384=ORIENTED_EDGE('',*,*,#473,.F.);
#385=ORIENTED_EDGE('',*,*,#507,.F.);
#386=ORIENTED_EDGE('',*,*,#474,.F.);
#387=ORIENTED_EDGE('',*,*,#508,.F.);
#388=ORIENTED_EDGE('',*,*,#475,.F.);
#389=ORIENTED_EDGE('',*,*,#509,.F.);
#390=ORIENTED_EDGE('',*,*,#476,.F.);
#391=ORIENTED_EDGE('',*,*,#477,.T.);
#392=ORIENTED_EDGE('',*,*,#510,.T.);
#393=ORIENTED_EDGE('',*,*,#511,.F.);
#394=ORIENTED_EDGE('',*,*,#512,.F.);
#395=ORIENTED_EDGE('',*,*,#478,.T.);
#396=ORIENTED_EDGE('',*,*,#512,.T.);
#397=ORIENTED_EDGE('',*,*,#513,.F.);
#398=ORIENTED_EDGE('',*,*,#514,.F.);
#399=ORIENTED_EDGE('',*,*,#479,.T.);
#400=ORIENTED_EDGE('',*,*,#514,.T.);
#401=ORIENTED_EDGE('',*,*,#515,.F.);
#402=ORIENTED_EDGE('',*,*,#516,.F.);
#403=ORIENTED_EDGE('',*,*,#480,.T.);
#404=ORIENTED_EDGE('',*,*,#516,.T.);
#405=ORIENTED_EDGE('',*,*,#517,.F.);
#406=ORIENTED_EDGE('',*,*,#498,.F.);
#407=ORIENTED_EDGE('',*,*,#502,.F.);
#408=ORIENTED_EDGE('',*,*,#518,.F.);
#409=ORIENTED_EDGE('',*,*,#519,.F.);
#410=ORIENTED_EDGE('',*,*,#482,.F.);
#411=ORIENTED_EDGE('',*,*,#519,.T.);
#412=ORIENTED_EDGE('',*,*,#520,.F.);
#413=ORIENTED_EDGE('',*,*,#521,.F.);
#414=ORIENTED_EDGE('',*,*,#483,.T.);
#415=ORIENTED_EDGE('',*,*,#484,.T.);
#416=ORIENTED_EDGE('',*,*,#521,.T.);
#417=ORIENTED_EDGE('',*,*,#522,.F.);
#418=ORIENTED_EDGE('',*,*,#523,.F.);
#419=ORIENTED_EDGE('',*,*,#485,.T.);
#420=ORIENTED_EDGE('',*,*,#523,.T.);
#421=ORIENTED_EDGE('',*,*,#524,.F.);
#422=ORIENTED_EDGE('',*,*,#525,.F.);
#423=ORIENTED_EDGE('',*,*,#486,.T.);
#424=ORIENTED_EDGE('',*,*,#525,.T.);
#425=ORIENTED_EDGE('',*,*,#526,.F.);
#426=ORIENTED_EDGE('',*,*,#527,.F.);
#427=ORIENTED_EDGE('',*,*,#487,.T.);
#428=ORIENTED_EDGE('',*,*,#527,.T.);
#429=ORIENTED_EDGE('',*,*,#528,.F.);
#430=ORIENTED_EDGE('',*,*,#529,.F.);
#431=ORIENTED_EDGE('',*,*,#488,.T.);
#432=ORIENTED_EDGE('',*,*,#529,.T.);
#433=ORIENTED_EDGE('',*,*,#530,.F.);
#434=ORIENTED_EDGE('',*,*,#531,.F.);
#435=ORIENTED_EDGE('',*,*,#489,.T.);
#436=ORIENTED_EDGE('',*,*,#531,.T.);
#437=ORIENTED_EDGE('',*,*,#532,.F.);
#438=ORIENTED_EDGE('',*,*,#533,.F.);
#439=ORIENTED_EDGE('',*,*,#490,.T.);
#440=ORIENTED_EDGE('',*,*,#533,.T.);
#441=ORIENTED_EDGE('',*,*,#534,.F.);
#442=ORIENTED_EDGE('',*,*,#510,.F.);
#443=ORIENTED_EDGE('',*,*,#517,.T.);
#444=ORIENTED_EDGE('',*,*,#515,.T.);
#445=ORIENTED_EDGE('',*,*,#513,.T.);
#446=ORIENTED_EDGE('',*,*,#511,.T.);
#447=ORIENTED_EDGE('',*,*,#534,.T.);
#448=ORIENTED_EDGE('',*,*,#532,.T.);
#449=ORIENTED_EDGE('',*,*,#530,.T.);
#450=ORIENTED_EDGE('',*,*,#528,.T.);
#451=ORIENTED_EDGE('',*,*,#526,.T.);
#452=ORIENTED_EDGE('',*,*,#524,.T.);
#453=ORIENTED_EDGE('',*,*,#522,.T.);
#454=ORIENTED_EDGE('',*,*,#520,.T.);
#455=ORIENTED_EDGE('',*,*,#518,.T.);
#456=ORIENTED_EDGE('',*,*,#501,.T.);
#457=ORIENTED_EDGE('',*,*,#496,.T.);
#458=ORIENTED_EDGE('',*,*,#505,.T.);
#459=ORIENTED_EDGE('',*,*,#503,.T.);
#460=ORIENTED_EDGE('',*,*,#499,.T.);
#461=ORIENTED_EDGE('',*,*,#507,.T.);
#462=ORIENTED_EDGE('',*,*,#508,.T.);
#463=ORIENTED_EDGE('',*,*,#506,.T.);
#464=ORIENTED_EDGE('',*,*,#509,.T.);
#465=EDGE_CURVE('',#535,#536,#537,.T.);
#466=EDGE_CURVE('',#538,#535,#539,.T.);
#467=EDGE_CURVE('',#540,#538,#541,.T.);
#468=EDGE_CURVE('',#536,#540,#542,.T.);
#469=EDGE_CURVE('',#543,#543,#544,.T.);
#470=EDGE_CURVE('',#545,#545,#546,.T.);
#471=EDGE_CURVE('',#547,#547,#548,.T.);
#472=EDGE_CURVE('',#549,#549,#550,.T.);
#473=EDGE_CURVE('',#551,#551,#552,.T.);
#474=EDGE_CURVE('',#553,#553,#554,.T.);
#475=EDGE_CURVE('',#555,#555,#556,.T.);
#476=EDGE_CURVE('',#557,#557,#558,.T.);
#477=EDGE_CURVE('',#559,#560,#561,.F.);
#478=EDGE_CURVE('',#562,#559,#563,.F.);
#479=EDGE_CURVE('',#564,#562,#565,.F.);
#480=EDGE_CURVE('',#566,#564,#567,.F.);
#481=EDGE_CURVE('',#568,#566,#569,.T.);
#482=EDGE_CURVE('',#568,#570,#571,.T.);
#483=EDGE_CURVE('',#572,#570,#573,.F.);
#484=EDGE_CURVE('',#574,#572,#575,.F.);
#485=EDGE_CURVE('',#576,#574,#577,.F.);
#486=EDGE_CURVE('',#578,#576,#579,.F.);
#487=EDGE_CURVE('',#580,#578,#581,.F.);
#488=EDGE_CURVE('',#582,#580,#583,.F.);
#489=EDGE_CURVE('',#584,#582,#585,.F.);
#490=EDGE_CURVE('',#560,#584,#586,.F.);
#491=EDGE_CURVE('',#587,#587,#588,.F.);
#492=EDGE_CURVE('',#589,#589,#590,.F.);
#493=EDGE_CURVE('',#591,#591,#592,.F.);
#494=EDGE_CURVE('',#593,#593,#594,.F.);
#495=EDGE_CURVE('',#536,#595,#596,.T.);
#496=EDGE_CURVE('',#597,#595,#598,.T.);
#497=EDGE_CURVE('',#535,#597,#599,.T.);
#498=EDGE_CURVE('',#566,#600,#601,.F.);
#499=EDGE_CURVE('',#602,#600,#603,.T.);
#500=EDGE_CURVE('',#538,#602,#604,.T.);
#501=EDGE_CURVE('',#605,#597,#606,.T.);
#502=EDGE_CURVE('',#605,#568,#607,.F.);
#503=EDGE_CURVE('',#608,#602,#609,.T.);
#504=EDGE_CURVE('',#540,#608,#610,.T.);
#505=EDGE_CURVE('',#595,#608,#611,.T.);
#506=EDGE_CURVE('',#612,#612,#613,.F.);
#507=EDGE_CURVE('',#614,#614,#615,.F.);
#508=EDGE_CURVE('',#616,#616,#617,.F.);
#509=EDGE_CURVE('',#618,#618,#619,.F.);
#510=EDGE_CURVE('',#560,#620,#621,.T.);
#511=EDGE_CURVE('',#622,#620,#623,.F.);
#512=EDGE_CURVE('',#559,#622,#624,.T.);
#513=EDGE_CURVE('',#625,#622,#626,.F.);
#514=EDGE_CURVE('',#562,#625,#627,.T.);
#515=EDGE_CURVE('',#628,#625,#629,.F.);
#516=EDGE_CURVE('',#564,#628,#630,.T.);
#517=EDGE_CURVE('',#600,#628,#631,.F.);
#518=EDGE_CURVE('',#632,#605,#633,.F.);
#519=EDGE_CURVE('',#570,#632,#634,.T.);
#520=EDGE_CURVE('',#635,#632,#636,.F.);
#521=EDGE_CURVE('',#572,#635,#637,.T.);
#522=EDGE_CURVE('',#638,#635,#639,.F.);
#523=EDGE_CURVE('',#574,#638,#640,.T.);
#524=EDGE_CURVE('',#641,#638,#642,.F.);
#525=EDGE_CURVE('',#576,#641,#643,.T.);
#526=EDGE_CURVE('',#644,#641,#645,.F.);
#527=EDGE_CURVE('',#578,#644,#646,.T.);
#528=EDGE_CURVE('',#647,#644,#648,.F.);
#529=EDGE_CURVE('',#580,#647,#649,.T.);
#530=EDGE_CURVE('',#650,#647,#651,.F.);
#531=EDGE_CURVE('',#582,#650,#652,.T.);
#532=EDGE_CURVE('',#653,#650,#654,.F.);
#533=EDGE_CURVE('',#584,#653,#655,.T.);
#534=EDGE_CURVE('',#620,#653,#656,.F.);
#535=VERTEX_POINT('',#657);
#536=VERTEX_POINT('',#658);
#537=LINE('',#659,#660);
#538=VERTEX_POINT('',#662);
#539=LINE('',#663,#664);
#540=VERTEX_POINT('',#666);
#541=LINE('',#667,#668);
#542=LINE('',#670,#671);
#543=VERTEX_POINT('',#673);
#544=CIRCLE('',#674,1.75);
#545=VERTEX_POINT('',#678);
#546=CIRCLE('',#679,1.75);
#547=VERTEX_POINT('',#683);
#548=CIRCLE('',#684,1.75);
#549=VERTEX_POINT('',#688);
#550=CIRCLE('',#689,1.75);
#551=VERTEX_POINT('',#693);
#552=CIRCLE('',#694,1.75);
#553=VERTEX_POINT('',#698);
#554=CIRCLE('',#699,1.75);
#555=VERTEX_POINT('',#703);
#556=CIRCLE('',#704,1.75);
#557=VERTEX_POINT('',#708);
#558=CIRCLE('',#709,1.75);
#559=VERTEX_POINT('',#713);
#560=VERTEX_POINT('',#714);
#561=LINE('',#715,#716);
#562=VERTEX_POINT('',#718);
#563=LINE('',#719,#720);
#564=VERTEX_POINT('',#722);
#565=LINE('',#723,#724);
#566=VERTEX_POINT('',#726);
#567=LINE('',#727,#728);
#568=VERTEX_POINT('',#730);
#569=LINE('',#731,#732);
#570=VERTEX_POINT('',#734);
#571=LINE('',#735,#736);
#572=VERTEX_POINT('',#738);
#573=LINE('',#739,#740);
#574=VERTEX_POINT('',#742);
#575=LINE('',#743,#744);
#576=VERTEX_POINT('',#746);
#577=LINE('',#747,#748);
#578=VERTEX_POINT('',#750);
#579=LINE('',#751,#752);
#580=VERTEX_POINT('',#754);
#581=LINE('',#755,#756);
#582=VERTEX_POINT('',#758);
#583=LINE('',#759,#760);
#584=VERTEX_POINT('',#762);
#585=LINE('',#763,#764);
#586=LINE('',#766,#767);
#587=VERTEX_POINT('',#769);
#588=CIRCLE('',#770,1.75);
#589=VERTEX_POINT('',#774);
#590=CIRCLE('',#775,1.75);
#591=VERTEX_POINT('',#779);
#592=CIRCLE('',#780,1.75);
#593=VERTEX_POINT('',#784);
#594=CIRCLE('',#785,1.75);
#595=VERTEX_POINT('',#789);
#596=LINE('',#790,#791);
#597=VERTEX_POINT('',#793);
#598=LINE('',#794,#795);
#599=LINE('',#797,#798);
#600=VERTEX_POINT('',#800);
#601=LINE('',#801,#802);
#602=VERTEX_POINT('',#804);
#603=LINE('',#805,#806);
#604=LINE('',#808,#809);
#605=VERTEX_POINT('',#811);
#606=LINE('',#812,#813);
#607=LINE('',#815,#816);
#608=VERTEX_POINT('',#818);
#609=LINE('',#819,#820);
#610=LINE('',#822,#823);
#611=LINE('',#825,#826);
#612=VERTEX_POINT('',#828);
#613=CIRCLE('',#829,1.75);
#614=VERTEX_POINT('',#833);
#615=CIRCLE('',#834,1.75);
#616=VERTEX_POINT('',#838);
#617=CIRCLE('',#839,1.75);
#618=VERTEX_POINT('',#843);
#619=CIRCLE('',#844,1.75);
#620=VERTEX_POINT('',#848);
#621=LINE('',#849,#850);
#622=VERTEX_POINT('',#852);
#623=LINE('',#853,#854);
#624=LINE('',#856,#857);
#625=VERTEX_POINT('',#859);
#626=LINE('',#860,#861);
#627=LINE('',#863,#864);
#628=VERTEX_POINT('',#866);
#629=LINE('',#867,#868);
#630=LINE('',#870,#871);
#631=LINE('',#873,#874);
#632=VERTEX_POINT('',#876);
#633=LINE('',#877,#878);
#634=LINE('',#880,#881);
#635=VERTEX_POINT('',#883);
#636=LINE('',#884,#885);
#637=LINE('',#887,#888);
#638=VERTEX_POINT('',#890);
#639=LINE('',#891,#892);
#640=LINE('',#894,#895);
#641=VERTEX_POINT('',#897);
#642=LINE('',#898,#899);
#643=LINE('',#901,#902);
#644=VERTEX_POINT('',#904);
#645=LINE('',#905,#906);
#646=LINE('',#908,#909);
#647=VERTEX_POINT('',#911);
#648=LINE('',#912,#913);
#649=LINE('',#915,#916);
#650=VERTEX_POINT('',#918);
#651=LINE('',#919,#920);
#652=LINE('',#922,#923);
#653=VERTEX_POINT('',#925);
#654=LINE('',#926,#927);
#655=LINE('',#929,#930);
#656=LINE('',#932,#933);
#657=CARTESIAN_POINT('',(5.97015314584334E-15,-60.,32.5));
#658=CARTESIAN_POINT('',(-5.97015314584335E-15,-60.,-32.5));
#659=CARTESIAN_POINT('',(5.97015314584334E-15,-60.,32.5));
#660=VECTOR('',#661,1.);
#661=DIRECTION('',(-1.83697019872103E-16,2.18628534080031E-16,-1.));
#662=CARTESIAN_POINT('',(5.97015314584335E-15,60.,32.5));
#663=CARTESIAN_POINT('',(5.97015314584335E-15,60.,32.5));
#664=VECTOR('',#665,1.);
#665=DIRECTION('',(-2.62953635073671E-32,-1.,-1.1842378929335E-16));
#666=CARTESIAN_POINT('',(-5.97015314584334E-15,60.,-32.5));
#667=CARTESIAN_POINT('',(-5.97015314584334E-15,60.,-32.5));
#668=VECTOR('',#669,1.);
#669=DIRECTION('',(1.83697019872103E-16,-2.18628534080031E-16,1.));
#670=CARTESIAN_POINT('',(-5.97015314584335E-15,-60.,-32.5));
#671=VECTOR('',#672,1.);
#672=DIRECTION('',(2.62953635073671E-32,1.,1.1842378929335E-16));
#673=CARTESIAN_POINT('',(-7.105427357601E-15,5.75000000000001,-23.6597898867919));
#674=AXIS2_PLACEMENT_3D('',#675,#676,#677);
#675=CARTESIAN_POINT('',(-4.3462328930038E-15,4.00000000000001,-23.6597898867919));
#676=DIRECTION('',(1.,0.,-1.83697019872103E-16));
#677=DIRECTION('',(-1.12481983699639E-32,1.,-6.12323399573676E-17));
#678=CARTESIAN_POINT('',(7.105427357601E-15,4.00000000000001,19.5902101132081));
#679=AXIS2_PLACEMENT_3D('',#680,#681,#682);
#680=CARTESIAN_POINT('',(3.92013300124084E-15,4.00000000000002,21.3402101132081));
#681=DIRECTION('',(1.,0.,-1.83697019872103E-16));
#682=DIRECTION('',(-1.83697019872103E-16,-6.12323399573676E-17,-1.));
#683=CARTESIAN_POINT('',(7.105427357601E-15,54.,19.5902101132081));
#684=AXIS2_PLACEMENT_3D('',#685,#686,#687);
#685=CARTESIAN_POINT('',(3.92013300124084E-15,54.,21.3402101132081));
#686=DIRECTION('',(1.,0.,-1.83697019872103E-16));
#687=DIRECTION('',(-1.83697019872103E-16,-6.12323399573676E-17,-1.));
#688=CARTESIAN_POINT('',(-7.105427357601E-15,52.25,-23.6597898867919));
#689=AXIS2_PLACEMENT_3D('',#690,#691,#692);
#690=CARTESIAN_POINT('',(-4.3462328930038E-15,54.,-23.6597898867919));
#691=DIRECTION('',(1.,0.,-1.83697019872103E-16));
#692=DIRECTION('',(1.12481983699639E-32,-1.,6.12323399573676E-17));
#693=CARTESIAN_POINT('',(-5.18944081138691E-15,57.5,-28.25));
#694=AXIS2_PLACEMENT_3D('',#695,#696,#697);
#695=CARTESIAN_POINT('',(-5.51091059616309E-15,57.5,-30.));
#696=DIRECTION('',(1.,0.,-1.83697019872103E-16));
#697=DIRECTION('',(-2.24963967399279E-32,-1.,-1.22464679914735E-16));
#698=CARTESIAN_POINT('',(-5.51091059616309E-15,-55.75,-30.));
#699=AXIS2_PLACEMENT_3D('',#700,#701,#702);
#700=CARTESIAN_POINT('',(-5.51091059616309E-15,-57.5,-30.));
#701=DIRECTION('',(1.,0.,-1.83697019872103E-16));
#702=DIRECTION('',(1.83697019872103E-16,-1.22464679914735E-16,1.));
#703=CARTESIAN_POINT('',(5.18944081138691E-15,-57.5,28.25));
#704=AXIS2_PLACEMENT_3D('',#705,#706,#707);
#705=CARTESIAN_POINT('',(5.51091059616309E-15,-57.5,30.));
#706=DIRECTION('',(1.,0.,-1.83697019872103E-16));
#707=DIRECTION('',(2.24963967399279E-32,1.,1.22464679914735E-16));
#708=CARTESIAN_POINT('',(5.51091059616309E-15,55.75,30.));
#709=AXIS2_PLACEMENT_3D('',#710,#711,#712);
#710=CARTESIAN_POINT('',(5.51091059616309E-15,57.5,30.));
#711=DIRECTION('',(1.,0.,-1.83697019872103E-16));
#712=DIRECTION('',(-1.83697019872103E-16,1.22464679914735E-16,-1.));
#713=CARTESIAN_POINT('',(1.99999999999999,58.,-27.5));
#714=CARTESIAN_POINT('',(1.99999999999999,55.,-27.5));
#715=CARTESIAN_POINT('',(1.99999999999999,55.,-27.5));
#716=VECTOR('',#717,1.);
#717=DIRECTION('',(0.,1.,0.));
#718=CARTESIAN_POINT('',(2.,58.,27.5));
#719=CARTESIAN_POINT('',(1.99999999999999,58.,-27.5));
#720=VECTOR('',#721,1.);
#721=DIRECTION('',(1.81672858575026E-16,1.29189588320018E-16,1.));
#722=CARTESIAN_POINT('',(2.,55.,27.5));
#723=CARTESIAN_POINT('',(2.,58.,27.5));
#724=VECTOR('',#725,1.);
#725=DIRECTION('',(0.,-1.,0.));
#726=CARTESIAN_POINT('',(2.00000000000001,55.,32.5));
#727=CARTESIAN_POINT('',(2.,55.,27.5));
#728=VECTOR('',#729,1.);
#729=DIRECTION('',(1.77635683940026E-16,0.,1.));
#730=CARTESIAN_POINT('',(2.00000000000001,-54.9691693964421,32.5));
#731=CARTESIAN_POINT('',(2.00000000000001,-54.9691693964421,32.5));
#732=VECTOR('',#733,1.);
#733=DIRECTION('',(0.,1.,1.29225807498568E-16));
#734=CARTESIAN_POINT('',(2.00000000000001,-54.9691693964421,30.5));
#735=CARTESIAN_POINT('',(2.00000000000001,-54.9691693964421,32.5));
#736=VECTOR('',#737,1.);
#737=DIRECTION('',(0.,0.,-1.));
#738=CARTESIAN_POINT('',(2.00000000000001,-55.,30.5));
#739=CARTESIAN_POINT('',(2.00000000000001,-54.9691693964421,30.5));
#740=VECTOR('',#741,1.);
#741=DIRECTION('',(0.,-1.,0.));
#742=CARTESIAN_POINT('',(2.,-55.,27.5));
#743=CARTESIAN_POINT('',(2.00000000000001,-55.,30.5));
#744=VECTOR('',#745,1.);
#745=DIRECTION('',(-2.96059473233372E-16,-2.36847578586698E-15,-1.));
#746=CARTESIAN_POINT('',(2.,-58.,27.5));
#747=CARTESIAN_POINT('',(2.,-55.,27.5));
#748=VECTOR('',#749,1.);
#749=DIRECTION('',(0.,-1.,0.));
#750=CARTESIAN_POINT('',(1.99999999999999,-58.,-27.5));
#751=CARTESIAN_POINT('',(2.,-58.,27.5));
#752=VECTOR('',#753,1.);
#753=DIRECTION('',(-1.81672858575026E-16,-1.29189588320018E-16,-1.));
#754=CARTESIAN_POINT('',(1.99999999999999,-55.,-27.5));
#755=CARTESIAN_POINT('',(1.99999999999999,-58.,-27.5));
#756=VECTOR('',#757,1.);
#757=DIRECTION('',(0.,1.,0.));
#758=CARTESIAN_POINT('',(1.99999999999999,-55.,-30.5));
#759=CARTESIAN_POINT('',(1.99999999999999,-55.,-27.5));
#760=VECTOR('',#761,1.);
#761=DIRECTION('',(-1.48029736616689E-16,4.73695157173405E-15,-1.));
#762=CARTESIAN_POINT('',(1.99999999999999,55.,-30.5));
#763=CARTESIAN_POINT('',(1.99999999999999,-55.,-30.5));
#764=VECTOR('',#765,1.);
#765=DIRECTION('',(0.,1.,-3.22973970800046E-17));
#766=CARTESIAN_POINT('',(1.99999999999999,55.,-30.5));
#767=VECTOR('',#768,1.);
#768=DIRECTION('',(1.48029736616687E-16,2.368475785867E-15,1.));
#769=CARTESIAN_POINT('',(2.,5.75000000000001,-23.6597898867919));
#770=AXIS2_PLACEMENT_3D('',#771,#772,#773);
#771=CARTESIAN_POINT('',(2.,4.00000000000001,-23.6597898867919));
#772=DIRECTION('',(1.,0.,-1.83697019872103E-16));
#773=DIRECTION('',(-1.12481983699639E-32,1.,-6.12323399573676E-17));
#774=CARTESIAN_POINT('',(2.,4.00000000000002,19.5902101132081));
#775=AXIS2_PLACEMENT_3D('',#776,#777,#778);
#776=CARTESIAN_POINT('',(2.,4.00000000000002,21.3402101132081));
#777=DIRECTION('',(1.,0.,-1.83697019872103E-16));
#778=DIRECTION('',(-1.83697019872103E-16,-6.12323399573676E-17,-1.));
#779=CARTESIAN_POINT('',(2.,54.,19.5902101132081));
#780=AXIS2_PLACEMENT_3D('',#781,#782,#783);
#781=CARTESIAN_POINT('',(2.,54.,21.3402101132081));
#782=DIRECTION('',(1.,0.,-1.83697019872103E-16));
#783=DIRECTION('',(-1.83697019872103E-16,-6.12323399573676E-17,-1.));
#784=CARTESIAN_POINT('',(2.,52.25,-23.6597898867919));
#785=AXIS2_PLACEMENT_3D('',#786,#787,#788);
#786=CARTESIAN_POINT('',(2.,54.,-23.6597898867919));
#787=DIRECTION('',(1.,0.,-1.83697019872103E-16));
#788=DIRECTION('',(1.12481983699639E-32,-1.,6.12323399573676E-17));
#789=CARTESIAN_POINT('',(17.,-60.,-32.5));
#790=CARTESIAN_POINT('',(-5.97015314584335E-15,-60.,-32.5));
#791=VECTOR('',#792,1.);
#792=DIRECTION('',(1.,0.,0.));
#793=CARTESIAN_POINT('',(17.,-60.,32.5));
#794=CARTESIAN_POINT('',(17.,-60.,32.5));
#795=VECTOR('',#796,1.);
#796=DIRECTION('',(-2.18628534080031E-16,2.18628534080031E-16,-1.));
#797=CARTESIAN_POINT('',(5.97015314584334E-15,-60.,32.5));
#798=VECTOR('',#799,1.);
#799=DIRECTION('',(1.,0.,-4.17966315153E-16));
#800=CARTESIAN_POINT('',(17.,55.,32.5));
#801=CARTESIAN_POINT('',(17.,55.,32.5));
#802=VECTOR('',#803,1.);
#803=DIRECTION('',(-1.,0.,0.));
#804=CARTESIAN_POINT('',(17.,60.,32.5));
#805=CARTESIAN_POINT('',(17.,60.,32.5));
#806=VECTOR('',#807,1.);
#807=DIRECTION('',(0.,-1.,0.));
#808=CARTESIAN_POINT('',(5.97015314584335E-15,60.,32.5));
#809=VECTOR('',#810,1.);
#810=DIRECTION('',(1.,0.,0.));
#811=CARTESIAN_POINT('',(17.,-54.9691693964421,32.5));
#812=CARTESIAN_POINT('',(17.,-54.9691693964421,32.5));
#813=VECTOR('',#814,1.);
#814=DIRECTION('',(0.,-1.,0.));
#815=CARTESIAN_POINT('',(2.00000000000001,-54.9691693964421,32.5));
#816=VECTOR('',#817,1.);
#817=DIRECTION('',(1.,0.,0.));
#818=CARTESIAN_POINT('',(17.,60.,-32.5));
#819=CARTESIAN_POINT('',(17.,60.,-32.5));
#820=VECTOR('',#821,1.);
#821=DIRECTION('',(2.18628534080031E-16,-2.18628534080031E-16,1.));
#822=CARTESIAN_POINT('',(-5.97015314584334E-15,60.,-32.5));
#823=VECTOR('',#824,1.);
#824=DIRECTION('',(1.,0.,0.));
#825=CARTESIAN_POINT('',(17.,-60.,-32.5));
#826=VECTOR('',#827,1.);
#827=DIRECTION('',(0.,1.,1.77635683940025E-16));
#828=CARTESIAN_POINT('',(17.,57.5,-28.25));
#829=AXIS2_PLACEMENT_3D('',#830,#831,#832);
#830=CARTESIAN_POINT('',(17.,57.5,-30.));
#831=DIRECTION('',(1.,0.,-1.83697019872103E-16));
#832=DIRECTION('',(1.83697019872103E-16,6.12323399573677E-17,1.));
#833=CARTESIAN_POINT('',(17.,-55.75,-30.));
#834=AXIS2_PLACEMENT_3D('',#835,#836,#837);
#835=CARTESIAN_POINT('',(17.,-57.5,-30.));
#836=DIRECTION('',(1.,0.,-1.83697019872103E-16));
#837=DIRECTION('',(-1.12481983699639E-32,1.,-6.12323399573677E-17));
#838=CARTESIAN_POINT('',(17.,-57.5,28.25));
#839=AXIS2_PLACEMENT_3D('',#840,#841,#842);
#840=CARTESIAN_POINT('',(17.,-57.5,30.));
#841=DIRECTION('',(1.,0.,-1.83697019872103E-16));
#842=DIRECTION('',(-1.83697019872103E-16,-6.12323399573677E-17,-1.));
#843=CARTESIAN_POINT('',(17.,55.75,30.));
#844=AXIS2_PLACEMENT_3D('',#845,#846,#847);
#845=CARTESIAN_POINT('',(17.,57.5,30.));
#846=DIRECTION('',(1.,0.,-1.83697019872103E-16));
#847=DIRECTION('',(1.12481983699639E-32,-1.,6.12323399573677E-17));
#848=CARTESIAN_POINT('',(17.,55.,-27.5));
#849=CARTESIAN_POINT('',(1.99999999999999,55.,-27.5));
#850=VECTOR('',#851,1.);
#851=DIRECTION('',(1.,0.,-2.368475785867E-16));
#852=CARTESIAN_POINT('',(17.,58.,-27.5));
#853=CARTESIAN_POINT('',(17.,55.,-27.5));
#854=VECTOR('',#855,1.);
#855=DIRECTION('',(0.,1.,0.));
#856=CARTESIAN_POINT('',(1.99999999999999,58.,-27.5));
#857=VECTOR('',#858,1.);
#858=DIRECTION('',(1.,0.,-2.368475785867E-16));
#859=CARTESIAN_POINT('',(17.,58.,27.5));
#860=CARTESIAN_POINT('',(17.,58.,-27.5));
#861=VECTOR('',#862,1.);
#862=DIRECTION('',(1.29189588320018E-16,0.,1.));
#863=CARTESIAN_POINT('',(2.,58.,27.5));
#864=VECTOR('',#865,1.);
#865=DIRECTION('',(1.,0.,-2.368475785867E-16));
#866=CARTESIAN_POINT('',(17.,55.,27.5));
#867=CARTESIAN_POINT('',(17.,58.,27.5));
#868=VECTOR('',#869,1.);
#869=DIRECTION('',(0.,-1.,0.));
#870=CARTESIAN_POINT('',(2.,55.,27.5));
#871=VECTOR('',#872,1.);
#872=DIRECTION('',(1.,0.,-2.368475785867E-16));
#873=CARTESIAN_POINT('',(17.,55.,27.5));
#874=VECTOR('',#875,1.);
#875=DIRECTION('',(7.10542735760104E-16,0.,1.));
#876=CARTESIAN_POINT('',(17.,-54.9691693964421,30.5));
#877=CARTESIAN_POINT('',(17.,-54.9691693964421,32.5));
#878=VECTOR('',#879,1.);
#879=DIRECTION('',(0.,0.,-1.));
#880=CARTESIAN_POINT('',(2.00000000000001,-54.9691693964421,30.5));
#881=VECTOR('',#882,1.);
#882=DIRECTION('',(1.,0.,-2.368475785867E-16));
#883=CARTESIAN_POINT('',(17.,-55.,30.5));
#884=CARTESIAN_POINT('',(17.,-54.9691693964421,30.5));
#885=VECTOR('',#886,1.);
#886=DIRECTION('',(0.,-1.,0.));
#887=CARTESIAN_POINT('',(2.00000000000001,-55.,30.5));
#888=VECTOR('',#889,1.);
#889=DIRECTION('',(1.,0.,-2.368475785867E-16));
#890=CARTESIAN_POINT('',(17.,-55.,27.5));
#891=CARTESIAN_POINT('',(17.,-55.,30.5));
#892=VECTOR('',#893,1.);
#893=DIRECTION('',(-2.36847578586698E-15,-2.36847578586698E-15,-1.));
#894=CARTESIAN_POINT('',(2.,-55.,27.5));
#895=VECTOR('',#896,1.);
#896=DIRECTION('',(1.,0.,-2.368475785867E-16));
#897=CARTESIAN_POINT('',(17.,-58.,27.5));
#898=CARTESIAN_POINT('',(17.,-55.,27.5));
#899=VECTOR('',#900,1.);
#900=DIRECTION('',(0.,-1.,0.));
#901=CARTESIAN_POINT('',(2.,-58.,27.5));
#902=VECTOR('',#903,1.);
#903=DIRECTION('',(1.,0.,-2.368475785867E-16));
#904=CARTESIAN_POINT('',(17.,-58.,-27.5));
#905=CARTESIAN_POINT('',(17.,-58.,27.5));
#906=VECTOR('',#907,1.);
#907=DIRECTION('',(-1.29189588320018E-16,0.,-1.));
#908=CARTESIAN_POINT('',(1.99999999999999,-58.,-27.5));
#909=VECTOR('',#910,1.);
#910=DIRECTION('',(1.,0.,-2.368475785867E-16));
#911=CARTESIAN_POINT('',(17.,-55.,-27.5));
#912=CARTESIAN_POINT('',(17.,-58.,-27.5));
#913=VECTOR('',#914,1.);
#914=DIRECTION('',(0.,1.,0.));
#915=CARTESIAN_POINT('',(1.99999999999999,-55.,-27.5));
#916=VECTOR('',#917,1.);
#917=DIRECTION('',(1.,0.,-2.368475785867E-16));
#918=CARTESIAN_POINT('',(17.,-55.,-30.5));
#919=CARTESIAN_POINT('',(17.,-55.,-27.5));
#920=VECTOR('',#921,1.);
#921=DIRECTION('',(0.,2.36847578586702E-15,-1.));
#922=CARTESIAN_POINT('',(1.99999999999999,-55.,-30.5));
#923=VECTOR('',#924,1.);
#924=DIRECTION('',(1.,0.,-2.368475785867E-16));
#925=CARTESIAN_POINT('',(17.,55.,-30.5));
#926=CARTESIAN_POINT('',(17.,-55.,-30.5));
#927=VECTOR('',#928,1.);
#928=DIRECTION('',(0.,1.,-6.45947941600091E-17));
#929=CARTESIAN_POINT('',(1.99999999999999,55.,-30.5));
#930=VECTOR('',#931,1.);
#931=DIRECTION('',(1.,0.,-2.368475785867E-16));
#932=CARTESIAN_POINT('',(17.,55.,-30.5));
#933=VECTOR('',#934,1.);
#934=DIRECTION('',(1.1842378929335E-15,2.368475785867E-15,1.));
ENDSEC;
END-ISO-10303-21;
