ISO-10303-21;
HEADER;
/* Generated by software containing ST-Developer
 * from STEP Tools, Inc. (www.steptools.com) 
 */

FILE_DESCRIPTION(
/* description */ (''),
/* implementation_level */ '2;1');

FILE_NAME(
/* name */ 'C:\\Users\\Artem\\Downloads\\power_panel.stp',
/* time_stamp */ '2026-05-30T12:53:14+03:00',
/* author */ ('\X2\0410044004420451043C\X0\'),
/* organization */ (''),
/* preprocessor_version */ 'ST-DEVELOPER v18.1',
/* originating_system */ 'Autodesk Inventor 2022',
/* authorisation */ '');

FILE_SCHEMA (('AUTOMOTIVE_DESIGN { 1 0 10303 214 3 1 1 }'));
ENDSEC;

DATA;
#10=MECHANICAL_DESIGN_GEOMETRIC_PRESENTATION_REPRESENTATION('',(#16),#750);
#11=GEOMETRICALLY_BOUNDED_WIREFRAME_SHAPE_REPRESENTATION('',(#12),#749);
#12=GEOMETRIC_CURVE_SET('\X2\042D0441043A04380437\X0\3',(#746));
#13=SHAPE_REPRESENTATION_RELATIONSHIP('SRR','None',#757,#15);
#14=SHAPE_REPRESENTATION_RELATIONSHIP('SRR','None',#757,#11);
#15=ADVANCED_BREP_SHAPE_REPRESENTATION('',(#17),#749);
#16=STYLED_ITEM('',(#766),#17);
#17=MANIFOLD_SOLID_BREP('\X2\04220432043504400434043E0435\X0\ \X2\04420435043B043E\X0\2',
#452);
#18=FACE_BOUND('',#78,.T.);
#19=FACE_BOUND('',#79,.T.);
#20=FACE_BOUND('',#80,.T.);
#21=FACE_BOUND('',#81,.T.);
#22=FACE_BOUND('',#91,.T.);
#23=FACE_BOUND('',#92,.T.);
#24=FACE_BOUND('',#93,.T.);
#25=FACE_BOUND('',#94,.T.);
#26=PLANE('',#481);
#27=PLANE('',#482);
#28=PLANE('',#486);
#29=PLANE('',#487);
#30=PLANE('',#491);
#31=PLANE('',#492);
#32=PLANE('',#496);
#33=PLANE('',#497);
#34=PLANE('',#498);
#35=PLANE('',#499);
#36=PLANE('',#500);
#37=PLANE('',#501);
#38=PLANE('',#502);
#39=PLANE('',#503);
#40=PLANE('',#504);
#41=PLANE('',#505);
#42=PLANE('',#506);
#43=FACE_OUTER_BOUND('',#65,.T.);
#44=FACE_OUTER_BOUND('',#66,.T.);
#45=FACE_OUTER_BOUND('',#67,.T.);
#46=FACE_OUTER_BOUND('',#68,.T.);
#47=FACE_OUTER_BOUND('',#69,.T.);
#48=FACE_OUTER_BOUND('',#70,.T.);
#49=FACE_OUTER_BOUND('',#71,.T.);
#50=FACE_OUTER_BOUND('',#72,.T.);
#51=FACE_OUTER_BOUND('',#73,.T.);
#52=FACE_OUTER_BOUND('',#74,.T.);
#53=FACE_OUTER_BOUND('',#75,.T.);
#54=FACE_OUTER_BOUND('',#76,.T.);
#55=FACE_OUTER_BOUND('',#77,.T.);
#56=FACE_OUTER_BOUND('',#82,.T.);
#57=FACE_OUTER_BOUND('',#83,.T.);
#58=FACE_OUTER_BOUND('',#84,.T.);
#59=FACE_OUTER_BOUND('',#85,.T.);
#60=FACE_OUTER_BOUND('',#86,.T.);
#61=FACE_OUTER_BOUND('',#87,.T.);
#62=FACE_OUTER_BOUND('',#88,.T.);
#63=FACE_OUTER_BOUND('',#89,.T.);
#64=FACE_OUTER_BOUND('',#90,.T.);
#65=EDGE_LOOP('',(#305,#306,#307,#308));
#66=EDGE_LOOP('',(#309,#310,#311,#312));
#67=EDGE_LOOP('',(#313,#314,#315,#316));
#68=EDGE_LOOP('',(#317,#318,#319,#320));
#69=EDGE_LOOP('',(#321,#322,#323,#324));
#70=EDGE_LOOP('',(#325,#326,#327,#328));
#71=EDGE_LOOP('',(#329,#330,#331,#332));
#72=EDGE_LOOP('',(#333,#334,#335,#336));
#73=EDGE_LOOP('',(#337,#338,#339,#340));
#74=EDGE_LOOP('',(#341,#342,#343,#344));
#75=EDGE_LOOP('',(#345,#346,#347,#348));
#76=EDGE_LOOP('',(#349,#350,#351,#352));
#77=EDGE_LOOP('',(#353,#354,#355,#356,#357,#358,#359,#360,#361,#362,#363,
#364,#365,#366,#367,#368));
#78=EDGE_LOOP('',(#369));
#79=EDGE_LOOP('',(#370));
#80=EDGE_LOOP('',(#371));
#81=EDGE_LOOP('',(#372));
#82=EDGE_LOOP('',(#373,#374,#375,#376));
#83=EDGE_LOOP('',(#377,#378,#379,#380));
#84=EDGE_LOOP('',(#381,#382,#383,#384));
#85=EDGE_LOOP('',(#385,#386,#387,#388));
#86=EDGE_LOOP('',(#389,#390,#391,#392));
#87=EDGE_LOOP('',(#393,#394,#395,#396));
#88=EDGE_LOOP('',(#397,#398,#399,#400));
#89=EDGE_LOOP('',(#401,#402,#403,#404));
#90=EDGE_LOOP('',(#405,#406,#407,#408,#409,#410,#411,#412,#413,#414,#415,
#416,#417,#418,#419,#420));
#91=EDGE_LOOP('',(#421));
#92=EDGE_LOOP('',(#422));
#93=EDGE_LOOP('',(#423));
#94=EDGE_LOOP('',(#424));
#95=LINE('',#628,#145);
#96=LINE('',#634,#146);
#97=LINE('',#639,#147);
#98=LINE('',#641,#148);
#99=LINE('',#643,#149);
#100=LINE('',#644,#150);
#101=LINE('',#648,#151);
#102=LINE('',#650,#152);
#103=LINE('',#652,#153);
#104=LINE('',#653,#154);
#105=LINE('',#658,#155);
#106=LINE('',#663,#156);
#107=LINE('',#665,#157);
#108=LINE('',#667,#158);
#109=LINE('',#668,#159);
#110=LINE('',#672,#160);
#111=LINE('',#674,#161);
#112=LINE('',#676,#162);
#113=LINE('',#677,#163);
#114=LINE('',#682,#164);
#115=LINE('',#686,#165);
#116=LINE('',#688,#166);
#117=LINE('',#689,#167);
#118=LINE('',#692,#168);
#119=LINE('',#694,#169);
#120=LINE('',#695,#170);
#121=LINE('',#701,#171);
#122=LINE('',#703,#172);
#123=LINE('',#704,#173);
#124=LINE('',#707,#174);
#125=LINE('',#709,#175);
#126=LINE('',#711,#176);
#127=LINE('',#712,#177);
#128=LINE('',#713,#178);
#129=LINE('',#715,#179);
#130=LINE('',#717,#180);
#131=LINE('',#718,#181);
#132=LINE('',#721,#182);
#133=LINE('',#722,#183);
#134=LINE('',#725,#184);
#135=LINE('',#726,#185);
#136=LINE('',#729,#186);
#137=LINE('',#730,#187);
#138=LINE('',#732,#188);
#139=LINE('',#735,#189);
#140=LINE('',#736,#190);
#141=LINE('',#739,#191);
#142=LINE('',#740,#192);
#143=LINE('',#742,#193);
#144=LINE('',#744,#194);
#145=VECTOR('',#513,1.75);
#146=VECTOR('',#520,1.75);
#147=VECTOR('',#525,10.);
#148=VECTOR('',#526,10.);
#149=VECTOR('',#527,10.);
#150=VECTOR('',#528,10.);
#151=VECTOR('',#531,10.);
#152=VECTOR('',#532,10.);
#153=VECTOR('',#533,10.);
#154=VECTOR('',#534,10.);
#155=VECTOR('',#539,1.75);
#156=VECTOR('',#544,10.);
#157=VECTOR('',#545,10.);
#158=VECTOR('',#546,10.);
#159=VECTOR('',#547,10.);
#160=VECTOR('',#550,10.);
#161=VECTOR('',#551,10.);
#162=VECTOR('',#552,10.);
#163=VECTOR('',#553,10.);
#164=VECTOR('',#558,1.75);
#165=VECTOR('',#563,10.);
#166=VECTOR('',#564,10.);
#167=VECTOR('',#565,10.);
#168=VECTOR('',#568,10.);
#169=VECTOR('',#569,10.);
#170=VECTOR('',#570,10.);
#171=VECTOR('',#579,10.);
#172=VECTOR('',#580,10.);
#173=VECTOR('',#581,10.);
#174=VECTOR('',#584,10.);
#175=VECTOR('',#585,10.);
#176=VECTOR('',#586,10.);
#177=VECTOR('',#587,10.);
#178=VECTOR('',#588,10.);
#179=VECTOR('',#589,10.);
#180=VECTOR('',#590,10.);
#181=VECTOR('',#591,10.);
#182=VECTOR('',#594,10.);
#183=VECTOR('',#595,10.);
#184=VECTOR('',#598,10.);
#185=VECTOR('',#599,10.);
#186=VECTOR('',#602,10.);
#187=VECTOR('',#603,10.);
#188=VECTOR('',#606,10.);
#189=VECTOR('',#609,10.);
#190=VECTOR('',#610,10.);
#191=VECTOR('',#613,10.);
#192=VECTOR('',#614,10.);
#193=VECTOR('',#617,10.);
#194=VECTOR('',#620,10.);
#195=CIRCLE('',#476,1.75);
#196=CIRCLE('',#477,1.75);
#197=CIRCLE('',#479,1.75);
#198=CIRCLE('',#480,1.75);
#199=CIRCLE('',#484,1.75);
#200=CIRCLE('',#485,1.75);
#201=CIRCLE('',#489,1.75);
#202=CIRCLE('',#490,1.75);
#203=CIRCLE('',#494,8.5);
#204=CIRCLE('',#495,8.5);
#205=VERTEX_POINT('',#625);
#206=VERTEX_POINT('',#627);
#207=VERTEX_POINT('',#631);
#208=VERTEX_POINT('',#633);
#209=VERTEX_POINT('',#637);
#210=VERTEX_POINT('',#638);
#211=VERTEX_POINT('',#640);
#212=VERTEX_POINT('',#642);
#213=VERTEX_POINT('',#646);
#214=VERTEX_POINT('',#647);
#215=VERTEX_POINT('',#649);
#216=VERTEX_POINT('',#651);
#217=VERTEX_POINT('',#655);
#218=VERTEX_POINT('',#657);
#219=VERTEX_POINT('',#661);
#220=VERTEX_POINT('',#662);
#221=VERTEX_POINT('',#664);
#222=VERTEX_POINT('',#666);
#223=VERTEX_POINT('',#670);
#224=VERTEX_POINT('',#671);
#225=VERTEX_POINT('',#673);
#226=VERTEX_POINT('',#675);
#227=VERTEX_POINT('',#679);
#228=VERTEX_POINT('',#681);
#229=VERTEX_POINT('',#685);
#230=VERTEX_POINT('',#687);
#231=VERTEX_POINT('',#691);
#232=VERTEX_POINT('',#693);
#233=VERTEX_POINT('',#700);
#234=VERTEX_POINT('',#702);
#235=VERTEX_POINT('',#706);
#236=VERTEX_POINT('',#708);
#237=VERTEX_POINT('',#710);
#238=VERTEX_POINT('',#714);
#239=VERTEX_POINT('',#716);
#240=VERTEX_POINT('',#720);
#241=VERTEX_POINT('',#724);
#242=VERTEX_POINT('',#728);
#243=VERTEX_POINT('',#734);
#244=VERTEX_POINT('',#738);
#245=EDGE_CURVE('',#205,#205,#195,.T.);
#246=EDGE_CURVE('',#205,#206,#95,.T.);
#247=EDGE_CURVE('',#206,#206,#196,.T.);
#248=EDGE_CURVE('',#207,#207,#197,.T.);
#249=EDGE_CURVE('',#207,#208,#96,.T.);
#250=EDGE_CURVE('',#208,#208,#198,.T.);
#251=EDGE_CURVE('',#209,#210,#97,.T.);
#252=EDGE_CURVE('',#211,#209,#98,.T.);
#253=EDGE_CURVE('',#212,#211,#99,.T.);
#254=EDGE_CURVE('',#210,#212,#100,.T.);
#255=EDGE_CURVE('',#213,#214,#101,.T.);
#256=EDGE_CURVE('',#215,#213,#102,.T.);
#257=EDGE_CURVE('',#216,#215,#103,.T.);
#258=EDGE_CURVE('',#214,#216,#104,.T.);
#259=EDGE_CURVE('',#217,#217,#199,.T.);
#260=EDGE_CURVE('',#217,#218,#105,.T.);
#261=EDGE_CURVE('',#218,#218,#200,.T.);
#262=EDGE_CURVE('',#219,#220,#106,.T.);
#263=EDGE_CURVE('',#221,#219,#107,.T.);
#264=EDGE_CURVE('',#222,#221,#108,.T.);
#265=EDGE_CURVE('',#220,#222,#109,.T.);
#266=EDGE_CURVE('',#223,#224,#110,.T.);
#267=EDGE_CURVE('',#225,#223,#111,.T.);
#268=EDGE_CURVE('',#226,#225,#112,.T.);
#269=EDGE_CURVE('',#224,#226,#113,.T.);
#270=EDGE_CURVE('',#227,#227,#201,.T.);
#271=EDGE_CURVE('',#227,#228,#114,.T.);
#272=EDGE_CURVE('',#228,#228,#202,.T.);
#273=EDGE_CURVE('',#229,#216,#115,.T.);
#274=EDGE_CURVE('',#230,#229,#116,.T.);
#275=EDGE_CURVE('',#230,#214,#117,.T.);
#276=EDGE_CURVE('',#213,#231,#118,.T.);
#277=EDGE_CURVE('',#231,#232,#119,.T.);
#278=EDGE_CURVE('',#215,#232,#120,.T.);
#279=EDGE_CURVE('',#219,#224,#203,.T.);
#280=EDGE_CURVE('',#221,#226,#204,.T.);
#281=EDGE_CURVE('',#223,#233,#121,.T.);
#282=EDGE_CURVE('',#233,#234,#122,.T.);
#283=EDGE_CURVE('',#225,#234,#123,.T.);
#284=EDGE_CURVE('',#235,#210,#124,.T.);
#285=EDGE_CURVE('',#236,#235,#125,.T.);
#286=EDGE_CURVE('',#237,#236,#126,.T.);
#287=EDGE_CURVE('',#231,#237,#127,.T.);
#288=EDGE_CURVE('',#233,#230,#128,.T.);
#289=EDGE_CURVE('',#238,#220,#129,.T.);
#290=EDGE_CURVE('',#239,#238,#130,.T.);
#291=EDGE_CURVE('',#209,#239,#131,.T.);
#292=EDGE_CURVE('',#237,#240,#132,.T.);
#293=EDGE_CURVE('',#232,#240,#133,.T.);
#294=EDGE_CURVE('',#241,#212,#134,.T.);
#295=EDGE_CURVE('',#235,#241,#135,.T.);
#296=EDGE_CURVE('',#242,#241,#136,.T.);
#297=EDGE_CURVE('',#236,#242,#137,.T.);
#298=EDGE_CURVE('',#240,#242,#138,.T.);
#299=EDGE_CURVE('',#243,#222,#139,.T.);
#300=EDGE_CURVE('',#238,#243,#140,.T.);
#301=EDGE_CURVE('',#244,#243,#141,.T.);
#302=EDGE_CURVE('',#239,#244,#142,.T.);
#303=EDGE_CURVE('',#211,#244,#143,.T.);
#304=EDGE_CURVE('',#234,#229,#144,.T.);
#305=ORIENTED_EDGE('',*,*,#245,.F.);
#306=ORIENTED_EDGE('',*,*,#246,.T.);
#307=ORIENTED_EDGE('',*,*,#247,.F.);
#308=ORIENTED_EDGE('',*,*,#246,.F.);
#309=ORIENTED_EDGE('',*,*,#248,.F.);
#310=ORIENTED_EDGE('',*,*,#249,.T.);
#311=ORIENTED_EDGE('',*,*,#250,.F.);
#312=ORIENTED_EDGE('',*,*,#249,.F.);
#313=ORIENTED_EDGE('',*,*,#251,.F.);
#314=ORIENTED_EDGE('',*,*,#252,.F.);
#315=ORIENTED_EDGE('',*,*,#253,.F.);
#316=ORIENTED_EDGE('',*,*,#254,.F.);
#317=ORIENTED_EDGE('',*,*,#255,.F.);
#318=ORIENTED_EDGE('',*,*,#256,.F.);
#319=ORIENTED_EDGE('',*,*,#257,.F.);
#320=ORIENTED_EDGE('',*,*,#258,.F.);
#321=ORIENTED_EDGE('',*,*,#259,.F.);
#322=ORIENTED_EDGE('',*,*,#260,.T.);
#323=ORIENTED_EDGE('',*,*,#261,.F.);
#324=ORIENTED_EDGE('',*,*,#260,.F.);
#325=ORIENTED_EDGE('',*,*,#262,.F.);
#326=ORIENTED_EDGE('',*,*,#263,.F.);
#327=ORIENTED_EDGE('',*,*,#264,.F.);
#328=ORIENTED_EDGE('',*,*,#265,.F.);
#329=ORIENTED_EDGE('',*,*,#266,.F.);
#330=ORIENTED_EDGE('',*,*,#267,.F.);
#331=ORIENTED_EDGE('',*,*,#268,.F.);
#332=ORIENTED_EDGE('',*,*,#269,.F.);
#333=ORIENTED_EDGE('',*,*,#270,.F.);
#334=ORIENTED_EDGE('',*,*,#271,.T.);
#335=ORIENTED_EDGE('',*,*,#272,.F.);
#336=ORIENTED_EDGE('',*,*,#271,.F.);
#337=ORIENTED_EDGE('',*,*,#258,.T.);
#338=ORIENTED_EDGE('',*,*,#273,.F.);
#339=ORIENTED_EDGE('',*,*,#274,.F.);
#340=ORIENTED_EDGE('',*,*,#275,.T.);
#341=ORIENTED_EDGE('',*,*,#256,.T.);
#342=ORIENTED_EDGE('',*,*,#276,.T.);
#343=ORIENTED_EDGE('',*,*,#277,.T.);
#344=ORIENTED_EDGE('',*,*,#278,.F.);
#345=ORIENTED_EDGE('',*,*,#263,.T.);
#346=ORIENTED_EDGE('',*,*,#279,.T.);
#347=ORIENTED_EDGE('',*,*,#269,.T.);
#348=ORIENTED_EDGE('',*,*,#280,.F.);
#349=ORIENTED_EDGE('',*,*,#267,.T.);
#350=ORIENTED_EDGE('',*,*,#281,.T.);
#351=ORIENTED_EDGE('',*,*,#282,.T.);
#352=ORIENTED_EDGE('',*,*,#283,.F.);
#353=ORIENTED_EDGE('',*,*,#251,.T.);
#354=ORIENTED_EDGE('',*,*,#284,.F.);
#355=ORIENTED_EDGE('',*,*,#285,.F.);
#356=ORIENTED_EDGE('',*,*,#286,.F.);
#357=ORIENTED_EDGE('',*,*,#287,.F.);
#358=ORIENTED_EDGE('',*,*,#276,.F.);
#359=ORIENTED_EDGE('',*,*,#255,.T.);
#360=ORIENTED_EDGE('',*,*,#275,.F.);
#361=ORIENTED_EDGE('',*,*,#288,.F.);
#362=ORIENTED_EDGE('',*,*,#281,.F.);
#363=ORIENTED_EDGE('',*,*,#266,.T.);
#364=ORIENTED_EDGE('',*,*,#279,.F.);
#365=ORIENTED_EDGE('',*,*,#262,.T.);
#366=ORIENTED_EDGE('',*,*,#289,.F.);
#367=ORIENTED_EDGE('',*,*,#290,.F.);
#368=ORIENTED_EDGE('',*,*,#291,.F.);
#369=ORIENTED_EDGE('',*,*,#270,.T.);
#370=ORIENTED_EDGE('',*,*,#259,.T.);
#371=ORIENTED_EDGE('',*,*,#248,.T.);
#372=ORIENTED_EDGE('',*,*,#245,.T.);
#373=ORIENTED_EDGE('',*,*,#287,.T.);
#374=ORIENTED_EDGE('',*,*,#292,.T.);
#375=ORIENTED_EDGE('',*,*,#293,.F.);
#376=ORIENTED_EDGE('',*,*,#277,.F.);
#377=ORIENTED_EDGE('',*,*,#254,.T.);
#378=ORIENTED_EDGE('',*,*,#294,.F.);
#379=ORIENTED_EDGE('',*,*,#295,.F.);
#380=ORIENTED_EDGE('',*,*,#284,.T.);
#381=ORIENTED_EDGE('',*,*,#285,.T.);
#382=ORIENTED_EDGE('',*,*,#295,.T.);
#383=ORIENTED_EDGE('',*,*,#296,.F.);
#384=ORIENTED_EDGE('',*,*,#297,.F.);
#385=ORIENTED_EDGE('',*,*,#286,.T.);
#386=ORIENTED_EDGE('',*,*,#297,.T.);
#387=ORIENTED_EDGE('',*,*,#298,.F.);
#388=ORIENTED_EDGE('',*,*,#292,.F.);
#389=ORIENTED_EDGE('',*,*,#265,.T.);
#390=ORIENTED_EDGE('',*,*,#299,.F.);
#391=ORIENTED_EDGE('',*,*,#300,.F.);
#392=ORIENTED_EDGE('',*,*,#289,.T.);
#393=ORIENTED_EDGE('',*,*,#290,.T.);
#394=ORIENTED_EDGE('',*,*,#300,.T.);
#395=ORIENTED_EDGE('',*,*,#301,.F.);
#396=ORIENTED_EDGE('',*,*,#302,.F.);
#397=ORIENTED_EDGE('',*,*,#252,.T.);
#398=ORIENTED_EDGE('',*,*,#291,.T.);
#399=ORIENTED_EDGE('',*,*,#302,.T.);
#400=ORIENTED_EDGE('',*,*,#303,.F.);
#401=ORIENTED_EDGE('',*,*,#288,.T.);
#402=ORIENTED_EDGE('',*,*,#274,.T.);
#403=ORIENTED_EDGE('',*,*,#304,.F.);
#404=ORIENTED_EDGE('',*,*,#282,.F.);
#405=ORIENTED_EDGE('',*,*,#253,.T.);
#406=ORIENTED_EDGE('',*,*,#303,.T.);
#407=ORIENTED_EDGE('',*,*,#301,.T.);
#408=ORIENTED_EDGE('',*,*,#299,.T.);
#409=ORIENTED_EDGE('',*,*,#264,.T.);
#410=ORIENTED_EDGE('',*,*,#280,.T.);
#411=ORIENTED_EDGE('',*,*,#268,.T.);
#412=ORIENTED_EDGE('',*,*,#283,.T.);
#413=ORIENTED_EDGE('',*,*,#304,.T.);
#414=ORIENTED_EDGE('',*,*,#273,.T.);
#415=ORIENTED_EDGE('',*,*,#257,.T.);
#416=ORIENTED_EDGE('',*,*,#278,.T.);
#417=ORIENTED_EDGE('',*,*,#293,.T.);
#418=ORIENTED_EDGE('',*,*,#298,.T.);
#419=ORIENTED_EDGE('',*,*,#296,.T.);
#420=ORIENTED_EDGE('',*,*,#294,.T.);
#421=ORIENTED_EDGE('',*,*,#247,.T.);
#422=ORIENTED_EDGE('',*,*,#250,.T.);
#423=ORIENTED_EDGE('',*,*,#261,.T.);
#424=ORIENTED_EDGE('',*,*,#272,.T.);
#425=CYLINDRICAL_SURFACE('',#475,1.75);
#426=CYLINDRICAL_SURFACE('',#478,1.75);
#427=CYLINDRICAL_SURFACE('',#483,1.75);
#428=CYLINDRICAL_SURFACE('',#488,1.75);
#429=CYLINDRICAL_SURFACE('',#493,8.5);
#430=ADVANCED_FACE('',(#43),#425,.F.);
#431=ADVANCED_FACE('',(#44),#426,.F.);
#432=ADVANCED_FACE('',(#45),#26,.F.);
#433=ADVANCED_FACE('',(#46),#27,.F.);
#434=ADVANCED_FACE('',(#47),#427,.F.);
#435=ADVANCED_FACE('',(#48),#28,.F.);
#436=ADVANCED_FACE('',(#49),#29,.F.);
#437=ADVANCED_FACE('',(#50),#428,.F.);
#438=ADVANCED_FACE('',(#51),#30,.T.);
#439=ADVANCED_FACE('',(#52),#31,.T.);
#440=ADVANCED_FACE('',(#53),#429,.F.);
#441=ADVANCED_FACE('',(#54),#32,.T.);
#442=ADVANCED_FACE('',(#55,#18,#19,#20,#21),#33,.F.);
#443=ADVANCED_FACE('',(#56),#34,.T.);
#444=ADVANCED_FACE('',(#57),#35,.T.);
#445=ADVANCED_FACE('',(#58),#36,.T.);
#446=ADVANCED_FACE('',(#59),#37,.T.);
#447=ADVANCED_FACE('',(#60),#38,.T.);
#448=ADVANCED_FACE('',(#61),#39,.T.);
#449=ADVANCED_FACE('',(#62),#40,.T.);
#450=ADVANCED_FACE('',(#63),#41,.T.);
#451=ADVANCED_FACE('',(#64,#22,#23,#24,#25),#42,.T.);
#452=CLOSED_SHELL('',(#430,#431,#432,#433,#434,#435,#436,#437,#438,#439,
#440,#441,#442,#443,#444,#445,#446,#447,#448,#449,#450,#451));
#453=DERIVED_UNIT_ELEMENT(#456,1.);
#454=DERIVED_UNIT_ELEMENT(#752,-3.);
#455=DIMENSIONAL_EXPONENTS(1.,0.,0.,0.,0.,0.,0.);
#456=(
CONVERSION_BASED_UNIT('gram',#458)
MASS_UNIT()
NAMED_UNIT(#455)
);
#457=(
MASS_UNIT()
NAMED_UNIT(*)
SI_UNIT(.KILO.,.GRAM.)
);
#458=MASS_MEASURE_WITH_UNIT(MASS_MEASURE(0.001),#457);
#459=DERIVED_UNIT((#453,#454));
#460=MEASURE_REPRESENTATION_ITEM('density measure',
POSITIVE_RATIO_MEASURE(1.),#459);
#461=PROPERTY_DEFINITION_REPRESENTATION(#466,#463);
#462=PROPERTY_DEFINITION_REPRESENTATION(#467,#464);
#463=REPRESENTATION('material name',(#465),#749);
#464=REPRESENTATION('density',(#460),#749);
#465=DESCRIPTIVE_REPRESENTATION_ITEM('\X2\04220438043F043E0432044B0435\X0\',
'\X2\04220438043F043E0432044B0435\X0\');
#466=PROPERTY_DEFINITION('material property','material name',#759);
#467=PROPERTY_DEFINITION('material property','density of part',#759);
#468=DATE_TIME_ROLE('creation_date');
#469=APPLIED_DATE_AND_TIME_ASSIGNMENT(#470,#468,(#759));
#470=DATE_AND_TIME(#471,#472);
#471=CALENDAR_DATE(2025,7,4);
#472=LOCAL_TIME(23,8,20.,#473);
#473=COORDINATED_UNIVERSAL_TIME_OFFSET(0,0,.BEHIND.);
#474=AXIS2_PLACEMENT_3D('placement',#623,#507,#508);
#475=AXIS2_PLACEMENT_3D('',#624,#509,#510);
#476=AXIS2_PLACEMENT_3D('',#626,#511,#512);
#477=AXIS2_PLACEMENT_3D('',#629,#514,#515);
#478=AXIS2_PLACEMENT_3D('',#630,#516,#517);
#479=AXIS2_PLACEMENT_3D('',#632,#518,#519);
#480=AXIS2_PLACEMENT_3D('',#635,#521,#522);
#481=AXIS2_PLACEMENT_3D('',#636,#523,#524);
#482=AXIS2_PLACEMENT_3D('',#645,#529,#530);
#483=AXIS2_PLACEMENT_3D('',#654,#535,#536);
#484=AXIS2_PLACEMENT_3D('',#656,#537,#538);
#485=AXIS2_PLACEMENT_3D('',#659,#540,#541);
#486=AXIS2_PLACEMENT_3D('',#660,#542,#543);
#487=AXIS2_PLACEMENT_3D('',#669,#548,#549);
#488=AXIS2_PLACEMENT_3D('',#678,#554,#555);
#489=AXIS2_PLACEMENT_3D('',#680,#556,#557);
#490=AXIS2_PLACEMENT_3D('',#683,#559,#560);
#491=AXIS2_PLACEMENT_3D('',#684,#561,#562);
#492=AXIS2_PLACEMENT_3D('',#690,#566,#567);
#493=AXIS2_PLACEMENT_3D('',#696,#571,#572);
#494=AXIS2_PLACEMENT_3D('',#697,#573,#574);
#495=AXIS2_PLACEMENT_3D('',#698,#575,#576);
#496=AXIS2_PLACEMENT_3D('',#699,#577,#578);
#497=AXIS2_PLACEMENT_3D('',#705,#582,#583);
#498=AXIS2_PLACEMENT_3D('',#719,#592,#593);
#499=AXIS2_PLACEMENT_3D('',#723,#596,#597);
#500=AXIS2_PLACEMENT_3D('',#727,#600,#601);
#501=AXIS2_PLACEMENT_3D('',#731,#604,#605);
#502=AXIS2_PLACEMENT_3D('',#733,#607,#608);
#503=AXIS2_PLACEMENT_3D('',#737,#611,#612);
#504=AXIS2_PLACEMENT_3D('',#741,#615,#616);
#505=AXIS2_PLACEMENT_3D('',#743,#618,#619);
#506=AXIS2_PLACEMENT_3D('',#745,#621,#622);
#507=DIRECTION('axis',(0.,0.,1.));
#508=DIRECTION('refdir',(1.,0.,0.));
#509=DIRECTION('center_axis',(0.,0.,1.));
#510=DIRECTION('ref_axis',(-1.,0.,0.));
#511=DIRECTION('center_axis',(0.,0.,1.));
#512=DIRECTION('ref_axis',(-1.,0.,0.));
#513=DIRECTION('',(0.,0.,1.));
#514=DIRECTION('center_axis',(0.,0.,-1.));
#515=DIRECTION('ref_axis',(-1.,0.,0.));
#516=DIRECTION('center_axis',(0.,0.,1.));
#517=DIRECTION('ref_axis',(-1.,0.,0.));
#518=DIRECTION('center_axis',(0.,0.,1.));
#519=DIRECTION('ref_axis',(-1.,0.,0.));
#520=DIRECTION('',(0.,0.,1.));
#521=DIRECTION('center_axis',(0.,0.,-1.));
#522=DIRECTION('ref_axis',(-1.,0.,0.));
#523=DIRECTION('center_axis',(0.,-1.,0.));
#524=DIRECTION('ref_axis',(1.,0.,0.));
#525=DIRECTION('',(1.,0.,0.));
#526=DIRECTION('',(0.,0.,-1.));
#527=DIRECTION('',(-1.,0.,0.));
#528=DIRECTION('',(0.,0.,1.));
#529=DIRECTION('center_axis',(0.,1.,0.));
#530=DIRECTION('ref_axis',(-1.,0.,0.));
#531=DIRECTION('',(-1.,0.,0.));
#532=DIRECTION('',(0.,0.,-1.));
#533=DIRECTION('',(1.,0.,0.));
#534=DIRECTION('',(0.,0.,1.));
#535=DIRECTION('center_axis',(0.,0.,1.));
#536=DIRECTION('ref_axis',(-1.,0.,0.));
#537=DIRECTION('center_axis',(0.,0.,1.));
#538=DIRECTION('ref_axis',(-1.,0.,0.));
#539=DIRECTION('',(0.,0.,1.));
#540=DIRECTION('center_axis',(0.,0.,-1.));
#541=DIRECTION('ref_axis',(-1.,0.,0.));
#542=DIRECTION('center_axis',(0.,-1.,0.));
#543=DIRECTION('ref_axis',(1.,0.,0.));
#544=DIRECTION('',(1.,0.,0.));
#545=DIRECTION('',(0.,0.,-1.));
#546=DIRECTION('',(-1.,0.,0.));
#547=DIRECTION('',(0.,0.,1.));
#548=DIRECTION('center_axis',(0.,1.,0.));
#549=DIRECTION('ref_axis',(-1.,0.,0.));
#550=DIRECTION('',(-1.,0.,0.));
#551=DIRECTION('',(0.,0.,-1.));
#552=DIRECTION('',(1.,0.,0.));
#553=DIRECTION('',(0.,0.,1.));
#554=DIRECTION('center_axis',(0.,0.,1.));
#555=DIRECTION('ref_axis',(-1.,0.,0.));
#556=DIRECTION('center_axis',(0.,0.,1.));
#557=DIRECTION('ref_axis',(-1.,0.,0.));
#558=DIRECTION('',(0.,0.,1.));
#559=DIRECTION('center_axis',(0.,0.,-1.));
#560=DIRECTION('ref_axis',(-1.,0.,0.));
#561=DIRECTION('center_axis',(-1.,3.5527136788005E-16,0.));
#562=DIRECTION('ref_axis',(-3.5527136788005E-16,-1.,0.));
#563=DIRECTION('',(-3.5527136788005E-16,-1.,0.));
#564=DIRECTION('',(0.,0.,1.));
#565=DIRECTION('',(-3.5527136788005E-16,-1.,0.));
#566=DIRECTION('center_axis',(1.,-3.11641550771974E-16,0.));
#567=DIRECTION('ref_axis',(3.11641550771974E-16,1.,0.));
#568=DIRECTION('',(3.11641550771974E-16,1.,0.));
#569=DIRECTION('',(0.,0.,1.));
#570=DIRECTION('',(3.11641550771974E-16,1.,0.));
#571=DIRECTION('center_axis',(0.,0.,1.));
#572=DIRECTION('ref_axis',(-1.,0.,0.));
#573=DIRECTION('center_axis',(0.,0.,-1.));
#574=DIRECTION('ref_axis',(-1.,0.,0.));
#575=DIRECTION('center_axis',(0.,0.,-1.));
#576=DIRECTION('ref_axis',(-1.,0.,0.));
#577=DIRECTION('center_axis',(1.,-8.88178419700125E-17,0.));
#578=DIRECTION('ref_axis',(8.88178419700125E-17,1.,0.));
#579=DIRECTION('',(8.88178419700125E-17,1.,0.));
#580=DIRECTION('',(0.,0.,1.));
#581=DIRECTION('',(8.88178419700125E-17,1.,0.));
#582=DIRECTION('center_axis',(0.,0.,1.));
#583=DIRECTION('ref_axis',(1.,0.,0.));
#584=DIRECTION('',(3.11641550771974E-16,1.,0.));
#585=DIRECTION('',(-1.,-1.93082265152201E-16,0.));
#586=DIRECTION('',(3.11641550771974E-16,-1.,0.));
#587=DIRECTION('',(1.,0.,0.));
#588=DIRECTION('',(-1.,2.53765262771464E-16,0.));
#589=DIRECTION('',(8.88178419700125E-17,1.,0.));
#590=DIRECTION('',(1.,-2.53765262771464E-16,0.));
#591=DIRECTION('',(-3.5527136788005E-16,-1.,0.));
#592=DIRECTION('center_axis',(0.,-1.,0.));
#593=DIRECTION('ref_axis',(1.,0.,0.));
#594=DIRECTION('',(0.,0.,1.));
#595=DIRECTION('',(1.,0.,0.));
#596=DIRECTION('center_axis',(1.,-3.11641550771974E-16,0.));
#597=DIRECTION('ref_axis',(3.11641550771974E-16,1.,0.));
#598=DIRECTION('',(3.11641550771974E-16,1.,0.));
#599=DIRECTION('',(0.,0.,1.));
#600=DIRECTION('center_axis',(-1.93082265152201E-16,1.,0.));
#601=DIRECTION('ref_axis',(-1.,-1.93082265152201E-16,0.));
#602=DIRECTION('',(-1.,-1.93082265152201E-16,0.));
#603=DIRECTION('',(0.,0.,1.));
#604=DIRECTION('center_axis',(-1.,-3.11641550771974E-16,0.));
#605=DIRECTION('ref_axis',(3.11641550771974E-16,-1.,0.));
#606=DIRECTION('',(3.11641550771974E-16,-1.,0.));
#607=DIRECTION('center_axis',(1.,-8.88178419700125E-17,0.));
#608=DIRECTION('ref_axis',(8.88178419700125E-17,1.,0.));
#609=DIRECTION('',(8.88178419700125E-17,1.,0.));
#610=DIRECTION('',(0.,0.,1.));
#611=DIRECTION('center_axis',(-2.53765262771464E-16,-1.,0.));
#612=DIRECTION('ref_axis',(1.,-2.53765262771464E-16,0.));
#613=DIRECTION('',(1.,-2.53765262771464E-16,0.));
#614=DIRECTION('',(0.,0.,1.));
#615=DIRECTION('center_axis',(-1.,3.5527136788005E-16,0.));
#616=DIRECTION('ref_axis',(-3.5527136788005E-16,-1.,0.));
#617=DIRECTION('',(-3.5527136788005E-16,-1.,0.));
#618=DIRECTION('center_axis',(2.53765262771464E-16,1.,0.));
#619=DIRECTION('ref_axis',(-1.,2.53765262771464E-16,0.));
#620=DIRECTION('',(-1.,2.53765262771464E-16,0.));
#621=DIRECTION('center_axis',(0.,0.,1.));
#622=DIRECTION('ref_axis',(1.,0.,0.));
#623=CARTESIAN_POINT('',(0.,0.,0.));
#624=CARTESIAN_POINT('Origin',(-40.2240749296646,20.,0.));
#625=CARTESIAN_POINT('',(-38.4740749296646,20.,0.));
#626=CARTESIAN_POINT('Origin',(-40.2240749296646,20.,0.));
#627=CARTESIAN_POINT('',(-38.4740749296646,20.,3.));
#628=CARTESIAN_POINT('',(-38.4740749296646,20.,0.));
#629=CARTESIAN_POINT('Origin',(-40.2240749296646,20.,3.));
#630=CARTESIAN_POINT('Origin',(19.7759250703354,-20.,0.));
#631=CARTESIAN_POINT('',(21.5259250703354,-20.,0.));
#632=CARTESIAN_POINT('Origin',(19.7759250703354,-20.,0.));
#633=CARTESIAN_POINT('',(21.5259250703354,-20.,3.));
#634=CARTESIAN_POINT('',(21.5259250703354,-20.,0.));
#635=CARTESIAN_POINT('Origin',(19.7759250703354,-20.,3.));
#636=CARTESIAN_POINT('Origin',(-45.2240749296646,-1.49999999999998,0.));
#637=CARTESIAN_POINT('',(-45.2240749296646,-1.49999999999998,0.));
#638=CARTESIAN_POINT('',(-36.7240749296646,-1.49999999999998,0.));
#639=CARTESIAN_POINT('',(-27.7240749296646,-1.49999999999998,0.));
#640=CARTESIAN_POINT('',(-45.2240749296646,-1.49999999999998,3.));
#641=CARTESIAN_POINT('',(-45.2240749296646,-1.49999999999998,0.));
#642=CARTESIAN_POINT('',(-36.7240749296646,-1.49999999999998,3.));
#643=CARTESIAN_POINT('',(-27.7240749296646,-1.49999999999998,3.));
#644=CARTESIAN_POINT('',(-36.7240749296646,-1.49999999999998,0.));
#645=CARTESIAN_POINT('Origin',(-36.7240749296646,1.50000000000002,0.));
#646=CARTESIAN_POINT('',(-36.7240749296646,1.50000000000002,0.));
#647=CARTESIAN_POINT('',(-45.2240749296646,1.50000000000002,0.));
#648=CARTESIAN_POINT('',(-23.4740749296646,1.50000000000002,0.));
#649=CARTESIAN_POINT('',(-36.7240749296646,1.50000000000002,3.));
#650=CARTESIAN_POINT('',(-36.7240749296646,1.50000000000002,0.));
#651=CARTESIAN_POINT('',(-45.2240749296646,1.50000000000002,3.));
#652=CARTESIAN_POINT('',(-23.4740749296646,1.50000000000002,3.));
#653=CARTESIAN_POINT('',(-45.2240749296646,1.50000000000002,0.));
#654=CARTESIAN_POINT('Origin',(19.7759250703354,20.,0.));
#655=CARTESIAN_POINT('',(21.5259250703354,20.,0.));
#656=CARTESIAN_POINT('Origin',(19.7759250703354,20.,0.));
#657=CARTESIAN_POINT('',(21.5259250703354,20.,3.));
#658=CARTESIAN_POINT('',(21.5259250703354,20.,0.));
#659=CARTESIAN_POINT('Origin',(19.7759250703354,20.,3.));
#660=CARTESIAN_POINT('Origin',(16.1425253356762,-1.5,0.));
#661=CARTESIAN_POINT('',(16.1425253356762,-1.5,0.));
#662=CARTESIAN_POINT('',(24.7759250703354,-1.5,0.));
#663=CARTESIAN_POINT('',(2.95922520300579,-1.5,0.));
#664=CARTESIAN_POINT('',(16.1425253356762,-1.5,3.));
#665=CARTESIAN_POINT('',(16.1425253356762,-1.5,0.));
#666=CARTESIAN_POINT('',(24.7759250703354,-1.5,3.));
#667=CARTESIAN_POINT('',(2.95922520300579,-1.5,3.));
#668=CARTESIAN_POINT('',(24.7759250703354,-1.5,0.));
#669=CARTESIAN_POINT('Origin',(24.7759250703354,1.5,0.));
#670=CARTESIAN_POINT('',(24.7759250703354,1.5,0.));
#671=CARTESIAN_POINT('',(16.1425253356762,1.5,0.));
#672=CARTESIAN_POINT('',(7.27592507033542,1.5,0.));
#673=CARTESIAN_POINT('',(24.7759250703354,1.5,3.));
#674=CARTESIAN_POINT('',(24.7759250703354,1.5,0.));
#675=CARTESIAN_POINT('',(16.1425253356762,1.5,3.));
#676=CARTESIAN_POINT('',(7.27592507033542,1.5,3.));
#677=CARTESIAN_POINT('',(16.1425253356762,1.5,0.));
#678=CARTESIAN_POINT('Origin',(-40.2240749296646,-20.,0.));
#679=CARTESIAN_POINT('',(-38.4740749296646,-20.,0.));
#680=CARTESIAN_POINT('Origin',(-40.2240749296646,-20.,0.));
#681=CARTESIAN_POINT('',(-38.4740749296646,-20.,3.));
#682=CARTESIAN_POINT('',(-38.4740749296646,-20.,0.));
#683=CARTESIAN_POINT('Origin',(-40.2240749296646,-20.,3.));
#684=CARTESIAN_POINT('Origin',(-45.2240749296646,25.,0.));
#685=CARTESIAN_POINT('',(-45.2240749296646,25.,3.));
#686=CARTESIAN_POINT('',(-45.2240749296646,25.,3.));
#687=CARTESIAN_POINT('',(-45.2240749296646,25.,0.));
#688=CARTESIAN_POINT('',(-45.2240749296646,25.,0.));
#689=CARTESIAN_POINT('',(-45.2240749296646,25.,0.));
#690=CARTESIAN_POINT('Origin',(-36.7240749296646,-14.25,0.));
#691=CARTESIAN_POINT('',(-36.7240749296646,14.25,0.));
#692=CARTESIAN_POINT('',(-36.7240749296646,-14.25,0.));
#693=CARTESIAN_POINT('',(-36.7240749296646,14.25,3.));
#694=CARTESIAN_POINT('',(-36.7240749296646,14.25,0.));
#695=CARTESIAN_POINT('',(-36.7240749296646,-14.25,3.));
#696=CARTESIAN_POINT('Origin',(7.77592507033542,2.93915231795365E-15,0.));
#697=CARTESIAN_POINT('Origin',(7.77592507033542,2.93915231795365E-15,0.));
#698=CARTESIAN_POINT('Origin',(7.77592507033542,2.93915231795365E-15,3.));
#699=CARTESIAN_POINT('Origin',(24.7759250703354,-25.,0.));
#700=CARTESIAN_POINT('',(24.7759250703354,25.,0.));
#701=CARTESIAN_POINT('',(24.7759250703354,-25.,0.));
#702=CARTESIAN_POINT('',(24.7759250703354,25.,3.));
#703=CARTESIAN_POINT('',(24.7759250703354,25.,0.));
#704=CARTESIAN_POINT('',(24.7759250703354,-25.,3.));
#705=CARTESIAN_POINT('Origin',(-10.2240749296646,8.88178419700125E-15,0.));
#706=CARTESIAN_POINT('',(-36.7240749296646,-14.25,0.));
#707=CARTESIAN_POINT('',(-36.7240749296646,-14.25,0.));
#708=CARTESIAN_POINT('',(-25.2240749296646,-14.25,0.));
#709=CARTESIAN_POINT('',(-25.2240749296646,-14.25,0.));
#710=CARTESIAN_POINT('',(-25.2240749296646,14.25,0.));
#711=CARTESIAN_POINT('',(-25.2240749296646,14.25,0.));
#712=CARTESIAN_POINT('',(-36.7240749296646,14.25,0.));
#713=CARTESIAN_POINT('',(24.7759250703354,25.,0.));
#714=CARTESIAN_POINT('',(24.7759250703354,-25.,0.));
#715=CARTESIAN_POINT('',(24.7759250703354,-25.,0.));
#716=CARTESIAN_POINT('',(-45.2240749296646,-25.,0.));
#717=CARTESIAN_POINT('',(-45.2240749296646,-25.,0.));
#718=CARTESIAN_POINT('',(-45.2240749296646,25.,0.));
#719=CARTESIAN_POINT('Origin',(-36.7240749296646,14.25,0.));
#720=CARTESIAN_POINT('',(-25.2240749296646,14.25,3.));
#721=CARTESIAN_POINT('',(-25.2240749296646,14.25,0.));
#722=CARTESIAN_POINT('',(-36.7240749296646,14.25,3.));
#723=CARTESIAN_POINT('Origin',(-36.7240749296646,-14.25,0.));
#724=CARTESIAN_POINT('',(-36.7240749296646,-14.25,3.));
#725=CARTESIAN_POINT('',(-36.7240749296646,-14.25,3.));
#726=CARTESIAN_POINT('',(-36.7240749296646,-14.25,0.));
#727=CARTESIAN_POINT('Origin',(-25.2240749296646,-14.25,0.));
#728=CARTESIAN_POINT('',(-25.2240749296646,-14.25,3.));
#729=CARTESIAN_POINT('',(-25.2240749296646,-14.25,3.));
#730=CARTESIAN_POINT('',(-25.2240749296646,-14.25,0.));
#731=CARTESIAN_POINT('Origin',(-25.2240749296646,14.25,0.));
#732=CARTESIAN_POINT('',(-25.2240749296646,14.25,3.));
#733=CARTESIAN_POINT('Origin',(24.7759250703354,-25.,0.));
#734=CARTESIAN_POINT('',(24.7759250703354,-25.,3.));
#735=CARTESIAN_POINT('',(24.7759250703354,-25.,3.));
#736=CARTESIAN_POINT('',(24.7759250703354,-25.,0.));
#737=CARTESIAN_POINT('Origin',(-45.2240749296646,-25.,0.));
#738=CARTESIAN_POINT('',(-45.2240749296646,-25.,3.));
#739=CARTESIAN_POINT('',(-45.2240749296646,-25.,3.));
#740=CARTESIAN_POINT('',(-45.2240749296646,-25.,0.));
#741=CARTESIAN_POINT('Origin',(-45.2240749296646,25.,0.));
#742=CARTESIAN_POINT('',(-45.2240749296646,25.,3.));
#743=CARTESIAN_POINT('Origin',(24.7759250703354,25.,0.));
#744=CARTESIAN_POINT('',(24.7759250703354,25.,3.));
#745=CARTESIAN_POINT('Origin',(-10.2240749296646,8.88178419700125E-15,3.));
#746=CARTESIAN_POINT('',(0.,0.,0.));
#747=UNCERTAINTY_MEASURE_WITH_UNIT(LENGTH_MEASURE(0.01),#751,
'DISTANCE_ACCURACY_VALUE',
'Maximum model space distance between geometric entities at asserted c
onnectivities');
#748=UNCERTAINTY_MEASURE_WITH_UNIT(LENGTH_MEASURE(0.01),#751,
'DISTANCE_ACCURACY_VALUE',
'Maximum model space distance between geometric entities at asserted c
onnectivities');
#749=(
GEOMETRIC_REPRESENTATION_CONTEXT(3)
GLOBAL_UNCERTAINTY_ASSIGNED_CONTEXT((#747))
GLOBAL_UNIT_ASSIGNED_CONTEXT((#751,#753,#754))
REPRESENTATION_CONTEXT('','3D')
);
#750=(
GEOMETRIC_REPRESENTATION_CONTEXT(3)
GLOBAL_UNCERTAINTY_ASSIGNED_CONTEXT((#748))
GLOBAL_UNIT_ASSIGNED_CONTEXT((#751,#753,#754))
REPRESENTATION_CONTEXT('','3D')
);
#751=(
LENGTH_UNIT()
NAMED_UNIT(*)
SI_UNIT(.MILLI.,.METRE.)
);
#752=(
LENGTH_UNIT()
NAMED_UNIT(*)
SI_UNIT(.CENTI.,.METRE.)
);
#753=(
NAMED_UNIT(*)
PLANE_ANGLE_UNIT()
SI_UNIT($,.RADIAN.)
);
#754=(
NAMED_UNIT(*)
SI_UNIT($,.STERADIAN.)
SOLID_ANGLE_UNIT()
);
#755=SHAPE_DEFINITION_REPRESENTATION(#756,#757);
#756=PRODUCT_DEFINITION_SHAPE('',$,#759);
#757=SHAPE_REPRESENTATION('',(#474),#749);
#758=PRODUCT_DEFINITION_CONTEXT('part definition',#763,'design');
#759=PRODUCT_DEFINITION('power_panel','power_panel',#760,#758);
#760=PRODUCT_DEFINITION_FORMATION('',$,#765);
#761=PRODUCT_RELATED_PRODUCT_CATEGORY('power_panel','power_panel',(#765));
#762=APPLICATION_PROTOCOL_DEFINITION('international standard',
'automotive_design',2009,#763);
#763=APPLICATION_CONTEXT(
'Core Data for Automotive Mechanical Design Process');
#764=PRODUCT_CONTEXT('part definition',#763,'mechanical');
#765=PRODUCT('power_panel','power_panel',$,(#764));
#766=PRESENTATION_STYLE_ASSIGNMENT((#768));
#767=PRESENTATION_STYLE_ASSIGNMENT((#769));
#768=SURFACE_STYLE_USAGE(.BOTH.,#772);
#769=SURFACE_STYLE_USAGE(.BOTH.,#773);
#770=SURFACE_STYLE_RENDERING_WITH_PROPERTIES($,#780,(#771));
#771=SURFACE_STYLE_TRANSPARENT(0.);
#772=SURFACE_SIDE_STYLE('',(#774,#770));
#773=SURFACE_SIDE_STYLE('',(#775));
#774=SURFACE_STYLE_FILL_AREA(#776);
#775=SURFACE_STYLE_FILL_AREA(#777);
#776=FILL_AREA_STYLE('',(#778));
#777=FILL_AREA_STYLE('',(#779));
#778=FILL_AREA_STYLE_COLOUR('',#780);
#779=FILL_AREA_STYLE_COLOUR('',#781);
#780=COLOUR_RGB('',0.749019607843137,0.749019607843137,0.749019607843137);
#781=COLOUR_RGB('',0.501960784313725,0.0941176470588235,1.);
ENDSEC;
END-ISO-10303-21;
